M48
;GenerationSoftware,Autodesk,EAGLE,9.6.2*%
;CreationDate,2021-01-07T18:21:42Z*%
FMAT,2
ICI,OFF
METRIC,TZ,000.000
T8C0.350
T7C0.800
T6C0.813
T5C1.016
T4C1.100
T3C1.778
T2C2.007
T1C3.000
%
G90
M71
T1
X146000Y10000
X10000Y10000
X138000Y74000
X20000Y74000
T2
X30759Y65458
X34772Y65458
X38785Y65458
T3
X49130Y34240
X64370Y34240
X64370Y74880
X49130Y74880
T4
X119888Y65024
X119888Y67564
X119888Y70104
T5
X18796Y3810
X46540Y23238
X21336Y3810
X23876Y3810
X26416Y3810
X28956Y3810
X31496Y3810
X121459Y8189
X86810Y56366
X86810Y53826
X84270Y56366
X84270Y53826
X130318Y59348
X132858Y59348
X135398Y59348
X137938Y59348
X18704Y56554
X21244Y56554
X23784Y56554
X26324Y56554
X140251Y7739
X140251Y12261
X133749Y7739
X133749Y12261
X99984Y40064
X99984Y37524
X99984Y34984
X99984Y32444
X99984Y29904
X99984Y27364
X130770Y65612
X130770Y68152
X46540Y25778
X79190Y53826
X79190Y56366
X81730Y53826
X127961Y8189
X127961Y12711
X81730Y56366
X121459Y12711
T6
X105590Y52182
X102472Y68008
X110394Y68008
X112934Y68008
X99932Y68008
X20468Y47838
X28088Y47838
X31094Y47840
X38714Y47840
X107714Y38000
X117066Y58134
X109446Y58134
X116972Y52212
X109352Y52212
X115334Y38000
X97970Y52182
X105750Y58198
X98130Y58198
X115434Y32436
X107814Y32436
T7
X64370Y54560
X64370Y52020
X64370Y49480
X64370Y46940
X64370Y44400
X64370Y72340
X64370Y39320
X64370Y36780
X49130Y36780
X49130Y39320
X49130Y41860
X64370Y57100
X64370Y59640
X49130Y44400
X49130Y46940
X49130Y49480
X49130Y52020
X64370Y62180
X64370Y64720
X64370Y67260
X64370Y69800
X49130Y54560
X49130Y57100
X49130Y59640
X49130Y62180
X49130Y64720
X49130Y67260
X49130Y69800
X49130Y72340
X64370Y41860
T8
X126619Y40767
X105664Y41148
X55118Y67056
X87122Y44958
X77216Y43180
X94996Y46736
X87376Y46736
X103632Y48260
X72898Y31496
X76708Y62738
X45212Y54102
X110728Y19494
X74930Y29718
X30734Y57150
X87122Y43180
X53340Y50546
X76962Y44958
X56388Y44450
M30