G04 EAGLE Gerber RS-274X export*
G75*
%MOMM*%
%FSLAX34Y34*%
%LPD*%
%INTop Copper*%
%IPPOS*%
%AMOC8*
5,1,8,0,0,1.08239X$1,22.5*%
G01*
%ADD10R,1.308000X1.308000*%
%ADD11C,1.308000*%
%ADD12P,1.429621X8X22.500000*%
%ADD13C,1.524000*%
%ADD14P,1.429621X8X202.500000*%
%ADD15C,3.009900*%
%ADD16P,1.649562X8X22.500000*%
%ADD17C,1.650000*%
%ADD18C,0.304800*%
%ADD19C,0.756400*%
%ADD20C,0.254000*%


D10*
X491300Y723400D03*
D11*
X491300Y698000D03*
X491300Y672600D03*
X491300Y647200D03*
X491300Y621800D03*
X491300Y596400D03*
X491300Y571000D03*
X491300Y545600D03*
X491300Y520200D03*
X491300Y494800D03*
X491300Y469400D03*
X491300Y444000D03*
X491300Y418600D03*
X491300Y393200D03*
X491300Y367800D03*
X643700Y367800D03*
X643700Y393200D03*
X643700Y418600D03*
X643700Y444000D03*
X643700Y469400D03*
X643700Y494800D03*
X643700Y520200D03*
X643700Y545600D03*
X643700Y571000D03*
X643700Y596400D03*
X643700Y621800D03*
X643700Y647200D03*
X643700Y672600D03*
X643700Y698000D03*
X643700Y723400D03*
D12*
X1103940Y680080D03*
X1129340Y680080D03*
X999320Y680080D03*
X1024720Y680080D03*
D13*
X1206968Y127106D02*
X1222208Y127106D01*
X1222208Y81894D02*
X1206968Y81894D01*
X1271992Y127106D02*
X1287232Y127106D01*
X1287232Y81894D02*
X1271992Y81894D01*
D14*
X1170660Y581340D03*
X1094460Y581340D03*
X1169720Y522120D03*
X1093520Y522120D03*
X1055900Y521820D03*
X979700Y521820D03*
X1057500Y581980D03*
X981300Y581980D03*
X1154340Y324360D03*
X1078140Y324360D03*
D15*
X387852Y639531D02*
X387852Y669630D01*
X347720Y669630D02*
X347720Y639531D01*
X307588Y639531D02*
X307588Y669630D01*
D13*
X1300080Y681520D02*
X1315320Y681520D01*
X1315320Y656120D02*
X1300080Y656120D01*
X1007460Y273640D02*
X992220Y273640D01*
X992220Y299040D02*
X1007460Y299040D01*
X1007460Y324440D02*
X992220Y324440D01*
X992220Y349840D02*
X1007460Y349840D01*
X1007460Y375240D02*
X992220Y375240D01*
X992220Y400640D02*
X1007460Y400640D01*
D14*
X1153340Y380000D03*
X1077140Y380000D03*
D13*
X1329868Y122606D02*
X1345108Y122606D01*
X1345108Y77394D02*
X1329868Y77394D01*
X1394892Y122606D02*
X1410132Y122606D01*
X1410132Y77394D02*
X1394892Y77394D01*
D14*
X387140Y478400D03*
X310940Y478400D03*
X280880Y478380D03*
X204680Y478380D03*
D13*
X263240Y557920D02*
X263240Y573160D01*
X237840Y573160D02*
X237840Y557920D01*
X212440Y557920D02*
X212440Y573160D01*
X187040Y573160D02*
X187040Y557920D01*
X1379380Y585860D02*
X1379380Y601100D01*
X1353980Y601100D02*
X1353980Y585860D01*
X1328580Y585860D02*
X1328580Y601100D01*
X1303180Y601100D02*
X1303180Y585860D01*
X473020Y232380D02*
X457780Y232380D01*
X457780Y257780D02*
X473020Y257780D01*
D16*
X791900Y538260D03*
X791900Y563660D03*
X817300Y538260D03*
X817300Y563660D03*
X842700Y538260D03*
X842700Y563660D03*
X868100Y538260D03*
X868100Y563660D03*
D17*
X1190630Y701040D02*
X1207130Y701040D01*
X1207130Y675640D02*
X1190630Y675640D01*
X1190630Y650240D02*
X1207130Y650240D01*
D13*
X314960Y45720D02*
X314960Y30480D01*
X289560Y30480D02*
X289560Y45720D01*
X264160Y45720D02*
X264160Y30480D01*
X238760Y30480D02*
X238760Y45720D01*
X213360Y45720D02*
X213360Y30480D01*
X187960Y30480D02*
X187960Y45720D01*
D18*
X387140Y478400D02*
X412540Y481540D01*
X441960Y452120D01*
X441960Y417140D01*
X465900Y393200D01*
X491300Y393200D01*
X904240Y585000D02*
X999320Y680080D01*
X904240Y585000D02*
X904240Y525780D01*
X889000Y510540D01*
X791900Y521280D02*
X791900Y538260D01*
X802640Y510540D02*
X889000Y510540D01*
X802640Y510540D02*
X791900Y521280D01*
X289560Y154940D02*
X289560Y38100D01*
X289560Y154940D02*
X368300Y233680D01*
X441960Y233680D01*
X464100Y233680D01*
X465400Y232380D01*
X441960Y369260D02*
X465900Y393200D01*
X441960Y369260D02*
X441960Y233680D01*
X1278420Y656120D02*
X1307700Y656120D01*
X1234440Y612140D02*
X1109980Y612140D01*
X1091240Y630880D01*
X1091240Y667380D02*
X1103940Y680080D01*
X1091240Y667380D02*
X1091240Y630880D01*
X1234440Y612140D02*
X1278420Y656120D01*
D19*
X563880Y444500D03*
D18*
X643200Y444500D01*
X643700Y444000D01*
D19*
X452120Y541020D03*
D18*
X452120Y469900D01*
X478020Y444000D02*
X491300Y444000D01*
X478020Y444000D02*
X452120Y469900D01*
X621384Y774700D02*
X713740Y774700D01*
X767080Y721360D02*
X767080Y627380D01*
D19*
X767080Y627380D03*
D18*
X767080Y721360D02*
X713740Y774700D01*
D19*
X1266190Y407670D03*
D18*
X1266190Y229870D01*
X1214588Y178268D02*
X1214588Y127106D01*
X1214588Y178268D02*
X1266190Y229870D01*
D19*
X1056640Y411480D03*
D18*
X1262380Y411480D01*
X1266190Y407670D01*
X621384Y774700D02*
X551180Y704496D01*
X551180Y670560D01*
D19*
X551180Y670560D03*
X949960Y467360D03*
D18*
X873760Y467360D01*
D19*
X873760Y467360D03*
X1036320Y482600D03*
D18*
X656900Y482600D02*
X643700Y469400D01*
X656900Y482600D02*
X1036320Y482600D01*
X979700Y521820D02*
X953180Y495300D01*
X646740Y495300D02*
X646240Y494800D01*
X643700Y494800D01*
X646740Y495300D02*
X953180Y495300D01*
D19*
X728980Y314960D03*
D18*
X728980Y264160D01*
X1083940Y226220D02*
X1107280Y194940D01*
X1083940Y226220D02*
X767720Y225420D01*
D19*
X1107280Y194940D03*
D18*
X767720Y225420D02*
X728980Y264160D01*
D19*
X749300Y297180D03*
D18*
X749300Y271780D01*
X777720Y243360D01*
X1183160Y243360D02*
X1209040Y269240D01*
X1209040Y358140D01*
X1186180Y381000D01*
X1154340Y381000D01*
X1153340Y380000D01*
X1183160Y243360D02*
X777720Y243360D01*
X643700Y596400D02*
X607640Y632460D01*
X558800Y632460D01*
X525780Y665480D01*
X525780Y767080D01*
X510540Y782320D01*
X387852Y740912D02*
X387852Y654580D01*
X387852Y740912D02*
X429260Y782320D01*
X510540Y782320D01*
D19*
X307340Y571500D03*
D18*
X307340Y654332D01*
X307588Y654580D01*
X212440Y565540D02*
X212440Y545220D01*
X219493Y538167D01*
X327347Y538167D01*
X370840Y581660D01*
X408940Y581660D01*
X474480Y647200D01*
X491300Y647200D01*
X195580Y528320D02*
X187040Y536860D01*
X187040Y565540D01*
X195580Y528320D02*
X332740Y528320D01*
X375920Y571500D02*
X424180Y571500D01*
X474480Y621800D01*
X491300Y621800D01*
X375920Y571500D02*
X332740Y528320D01*
X1166900Y431800D02*
X1328580Y593480D01*
D19*
X871220Y431800D03*
X772160Y431800D03*
D18*
X728980Y431800D01*
X706120Y320040D02*
X678180Y292100D01*
X584200Y292100D01*
X520700Y355600D01*
X520700Y581660D01*
X505960Y596400D01*
X491300Y596400D01*
X871220Y431800D02*
X1166900Y431800D01*
X728980Y431800D02*
X706120Y408940D01*
X706120Y320040D01*
X1159280Y449580D02*
X1303180Y593480D01*
X1159280Y449580D02*
X871220Y449580D01*
D19*
X871220Y449580D03*
X769620Y449580D03*
D18*
X723900Y449580D01*
X690880Y416560D01*
X690880Y327660D01*
X670560Y307340D01*
X589280Y307340D01*
X533400Y363220D01*
X533400Y505460D01*
D19*
X533400Y505460D03*
D20*
X20228Y117031D02*
X19118Y108378D01*
X18767Y99662D01*
X19177Y90947D01*
X20345Y82302D01*
X22262Y73791D01*
X24914Y65480D01*
X28279Y57432D01*
X32334Y49707D01*
X37046Y42365D01*
X42380Y35462D01*
X48296Y29050D01*
X54747Y23178D01*
X61687Y17891D01*
X69060Y13229D01*
X76812Y9227D01*
X84883Y5916D01*
X93212Y3320D01*
X101735Y1461D01*
X110388Y352D01*
X118767Y0D01*
X379249Y0D01*
X387964Y381D01*
X396613Y1519D01*
X405130Y3407D01*
X413451Y6031D01*
X421510Y9369D01*
X429248Y13397D01*
X436606Y18085D01*
X443527Y23396D01*
X449959Y29289D01*
X455853Y35721D01*
X461164Y42642D01*
X465851Y50000D01*
X469879Y57738D01*
X473218Y65798D01*
X473548Y66718D01*
X486452Y103282D01*
X489712Y111374D01*
X493664Y119151D01*
X498280Y126554D01*
X503523Y133527D01*
X509353Y140016D01*
X515727Y145973D01*
X522596Y151351D01*
X529908Y156110D01*
X537606Y160213D01*
X545633Y163631D01*
X553927Y166335D01*
X562425Y168306D01*
X571063Y169530D01*
X579774Y169995D01*
X580752Y170000D01*
X979249Y170000D01*
X987964Y169619D01*
X996613Y168481D01*
X1005130Y166593D01*
X1013451Y163969D01*
X1021510Y160631D01*
X1029249Y156603D01*
X1036606Y151915D01*
X1043527Y146604D01*
X1049959Y140711D01*
X1055853Y134279D01*
X1061164Y127358D01*
X1065851Y120000D01*
X1069879Y112262D01*
X1073218Y104202D01*
X1073548Y103282D01*
X1086452Y66718D01*
X1089712Y58626D01*
X1093664Y50849D01*
X1098280Y43446D01*
X1103523Y36473D01*
X1109353Y29984D01*
X1115727Y24027D01*
X1122596Y18649D01*
X1129908Y13890D01*
X1137606Y9787D01*
X1145633Y6369D01*
X1153927Y3665D01*
X1162425Y1694D01*
X1171063Y470D01*
X1179774Y5D01*
X1180752Y0D01*
X1444094Y0D01*
X1452809Y381D01*
X1461459Y1519D01*
X1469976Y3407D01*
X1478296Y6031D01*
X1486356Y9369D01*
X1494094Y13397D01*
X1501451Y18085D01*
X1508372Y23396D01*
X1514804Y29289D01*
X1520698Y35721D01*
X1526009Y42642D01*
X1530696Y50000D01*
X1534724Y57738D01*
X1538063Y65798D01*
X1540686Y74118D01*
X1542574Y82635D01*
X1543713Y91284D01*
X1544094Y100000D01*
X1543713Y108716D01*
X1543014Y114655D01*
X1452644Y724655D01*
X1450990Y733221D01*
X1448596Y741610D01*
X1445480Y749758D01*
X1441666Y757604D01*
X1437182Y765087D01*
X1432063Y772152D01*
X1426348Y778743D01*
X1420081Y784811D01*
X1413308Y790310D01*
X1406082Y795197D01*
X1398457Y799437D01*
X1390492Y802995D01*
X1382247Y805846D01*
X1373785Y807967D01*
X1365170Y809343D01*
X1356468Y809962D01*
X1353723Y810000D01*
X224199Y810000D01*
X215483Y809619D01*
X206834Y808481D01*
X198317Y806593D01*
X189997Y803969D01*
X181937Y800631D01*
X174199Y796603D01*
X166841Y791915D01*
X159920Y786604D01*
X153488Y780711D01*
X147594Y774279D01*
X142284Y767358D01*
X137596Y760000D01*
X133568Y752262D01*
X130229Y744202D01*
X127606Y735882D01*
X125718Y727365D01*
X125660Y727031D01*
X20228Y117031D01*
M02*
