G04 EAGLE Gerber RS-274X export*
G75*
%MOMM*%
%FSLAX34Y34*%
%LPD*%
%INBottom Copper*%
%IPPOS*%
%AMOC8*
5,1,8,0,0,1.08239X$1,22.5*%
G01*
%ADD10R,1.308000X1.308000*%
%ADD11C,1.308000*%
%ADD12P,1.429621X8X22.500000*%
%ADD13C,1.524000*%
%ADD14P,1.429621X8X202.500000*%
%ADD15C,3.009900*%
%ADD16P,1.649562X8X22.500000*%
%ADD17C,1.650000*%
%ADD18C,0.304800*%
%ADD19C,0.756400*%

G36*
X181104Y10928D02*
X181104Y10928D01*
X181155Y10926D01*
X181277Y10948D01*
X181400Y10963D01*
X181448Y10980D01*
X181497Y10989D01*
X181612Y11038D01*
X181729Y11080D01*
X181771Y11107D01*
X181817Y11127D01*
X181917Y11202D01*
X182021Y11269D01*
X182056Y11305D01*
X182097Y11335D01*
X182177Y11430D01*
X182264Y11520D01*
X182289Y11563D01*
X182322Y11601D01*
X182379Y11712D01*
X182442Y11819D01*
X182458Y11867D01*
X182481Y11912D01*
X182511Y12032D01*
X182549Y12151D01*
X182553Y12201D01*
X182565Y12250D01*
X182567Y12374D01*
X182577Y12498D01*
X182569Y12548D01*
X182570Y12598D01*
X182543Y12720D01*
X182525Y12843D01*
X182506Y12890D01*
X182496Y12939D01*
X182442Y13051D01*
X182396Y13167D01*
X182367Y13208D01*
X182346Y13254D01*
X182268Y13351D01*
X182197Y13453D01*
X182160Y13487D01*
X182128Y13526D01*
X182031Y13603D01*
X181938Y13686D01*
X181894Y13711D01*
X181855Y13742D01*
X181637Y13853D01*
X177888Y15406D01*
X172886Y20408D01*
X170179Y26943D01*
X170179Y49257D01*
X172886Y55792D01*
X175829Y58735D01*
X175908Y58834D01*
X175992Y58928D01*
X176016Y58970D01*
X176046Y59008D01*
X176100Y59122D01*
X176161Y59233D01*
X176174Y59279D01*
X176195Y59323D01*
X176221Y59446D01*
X176256Y59568D01*
X176261Y59629D01*
X176268Y59664D01*
X176267Y59712D01*
X176275Y59812D01*
X176275Y497449D01*
X176261Y497575D01*
X176254Y497701D01*
X176241Y497747D01*
X176235Y497795D01*
X176193Y497914D01*
X176158Y498036D01*
X176134Y498078D01*
X176118Y498123D01*
X176049Y498230D01*
X175988Y498340D01*
X175948Y498386D01*
X175929Y498416D01*
X175894Y498450D01*
X175829Y498526D01*
X150114Y524241D01*
X148335Y528536D01*
X148335Y601764D01*
X150114Y606059D01*
X331510Y787455D01*
X335011Y790956D01*
X339306Y792735D01*
X557314Y792735D01*
X561609Y790956D01*
X565110Y787455D01*
X621085Y731480D01*
X624586Y727979D01*
X624646Y727835D01*
X624694Y727747D01*
X624734Y727655D01*
X624779Y727595D01*
X624815Y727530D01*
X624882Y727456D01*
X624942Y727375D01*
X624999Y727327D01*
X625049Y727272D01*
X625132Y727215D01*
X625208Y727150D01*
X625274Y727116D01*
X625336Y727074D01*
X625429Y727037D01*
X625519Y726991D01*
X625591Y726973D01*
X625660Y726946D01*
X625759Y726931D01*
X625857Y726907D01*
X625931Y726906D01*
X626005Y726895D01*
X626105Y726903D01*
X626205Y726902D01*
X626278Y726918D01*
X626352Y726924D01*
X626448Y726955D01*
X626546Y726976D01*
X626613Y727008D01*
X626684Y727031D01*
X626770Y727083D01*
X626860Y727126D01*
X626919Y727172D01*
X626982Y727211D01*
X627054Y727281D01*
X627133Y727343D01*
X627179Y727402D01*
X627232Y727454D01*
X627286Y727538D01*
X627349Y727617D01*
X627394Y727706D01*
X627420Y727747D01*
X627432Y727781D01*
X627460Y727835D01*
X629542Y732860D01*
X630043Y733361D01*
X630059Y733382D01*
X630079Y733399D01*
X630167Y733518D01*
X630259Y733634D01*
X630271Y733658D01*
X630286Y733679D01*
X630345Y733815D01*
X630408Y733949D01*
X630414Y733975D01*
X630424Y733999D01*
X630450Y734145D01*
X630482Y734290D01*
X630481Y734316D01*
X630486Y734342D01*
X630478Y734491D01*
X630476Y734638D01*
X630469Y734664D01*
X630468Y734690D01*
X630427Y734833D01*
X630391Y734976D01*
X630379Y735000D01*
X630371Y735025D01*
X630299Y735154D01*
X630231Y735286D01*
X630214Y735306D01*
X630201Y735329D01*
X630089Y735461D01*
X630081Y735473D01*
X630072Y735481D01*
X630043Y735515D01*
X627550Y738009D01*
X624649Y745011D01*
X624649Y752589D01*
X627550Y759591D01*
X632909Y764950D01*
X639911Y767851D01*
X647489Y767851D01*
X654491Y764950D01*
X659850Y759591D01*
X662751Y752589D01*
X662751Y745011D01*
X659850Y738009D01*
X659527Y737685D01*
X659465Y737607D01*
X659395Y737534D01*
X659356Y737470D01*
X659310Y737412D01*
X659267Y737321D01*
X659216Y737235D01*
X659193Y737164D01*
X659161Y737097D01*
X659140Y736999D01*
X659110Y736903D01*
X659104Y736829D01*
X659088Y736756D01*
X659090Y736656D01*
X659082Y736556D01*
X659093Y736482D01*
X659094Y736408D01*
X659118Y736310D01*
X659133Y736211D01*
X659161Y736142D01*
X659179Y736070D01*
X659225Y735981D01*
X659262Y735887D01*
X659304Y735826D01*
X659339Y735760D01*
X659404Y735684D01*
X659461Y735601D01*
X659516Y735551D01*
X659564Y735495D01*
X659645Y735435D01*
X659720Y735368D01*
X659785Y735332D01*
X659845Y735287D01*
X659937Y735248D01*
X660025Y735199D01*
X660096Y735179D01*
X660165Y735149D01*
X660264Y735132D01*
X660360Y735104D01*
X660460Y735096D01*
X660508Y735088D01*
X660543Y735090D01*
X660604Y735085D01*
X856264Y735085D01*
X860559Y733306D01*
X939546Y654319D01*
X941325Y650024D01*
X941325Y481154D01*
X941342Y481005D01*
X941354Y480855D01*
X941362Y480832D01*
X941365Y480808D01*
X941415Y480667D01*
X941461Y480524D01*
X941474Y480503D01*
X941482Y480480D01*
X941564Y480354D01*
X941641Y480225D01*
X941658Y480208D01*
X941671Y480187D01*
X941780Y480082D01*
X941884Y479975D01*
X941904Y479962D01*
X941922Y479945D01*
X942051Y479868D01*
X942177Y479787D01*
X942200Y479779D01*
X942221Y479766D01*
X942364Y479721D01*
X942506Y479670D01*
X942530Y479667D01*
X942553Y479660D01*
X942702Y479648D01*
X942852Y479631D01*
X942876Y479634D01*
X942900Y479632D01*
X943049Y479654D01*
X943198Y479672D01*
X943226Y479681D01*
X943245Y479684D01*
X943289Y479701D01*
X943431Y479747D01*
X947187Y481303D01*
X952733Y481303D01*
X957905Y479161D01*
X957907Y479160D01*
X957908Y479159D01*
X958070Y479113D01*
X958240Y479065D01*
X958242Y479065D01*
X958244Y479064D01*
X958488Y479045D01*
X980224Y479045D01*
X984519Y477266D01*
X988020Y473765D01*
X1010234Y451551D01*
X1010333Y451472D01*
X1010427Y451388D01*
X1010469Y451364D01*
X1010507Y451334D01*
X1010621Y451280D01*
X1010732Y451219D01*
X1010778Y451206D01*
X1010822Y451185D01*
X1010945Y451159D01*
X1011067Y451124D01*
X1011128Y451119D01*
X1011163Y451112D01*
X1011211Y451113D01*
X1011311Y451105D01*
X1031024Y451105D01*
X1035319Y449326D01*
X1058872Y425772D01*
X1058874Y425771D01*
X1058875Y425769D01*
X1059015Y425659D01*
X1059145Y425556D01*
X1059147Y425555D01*
X1059149Y425554D01*
X1059367Y425442D01*
X1064538Y423300D01*
X1068460Y419378D01*
X1070583Y414253D01*
X1070583Y408707D01*
X1068460Y403582D01*
X1064538Y399660D01*
X1059413Y397537D01*
X1053867Y397537D01*
X1048742Y399660D01*
X1044820Y403582D01*
X1042678Y408753D01*
X1042677Y408755D01*
X1042676Y408757D01*
X1042594Y408905D01*
X1042509Y409058D01*
X1042507Y409060D01*
X1042506Y409061D01*
X1042348Y409248D01*
X1024306Y427289D01*
X1024207Y427368D01*
X1024113Y427452D01*
X1024071Y427476D01*
X1024033Y427506D01*
X1023919Y427560D01*
X1023808Y427621D01*
X1023762Y427634D01*
X1023718Y427655D01*
X1023595Y427681D01*
X1023473Y427716D01*
X1023412Y427721D01*
X1023377Y427728D01*
X1023329Y427727D01*
X1023229Y427735D01*
X1003516Y427735D01*
X999221Y429514D01*
X995720Y433015D01*
X973506Y455229D01*
X973407Y455308D01*
X973313Y455392D01*
X973271Y455416D01*
X973233Y455446D01*
X973119Y455500D01*
X973008Y455561D01*
X972962Y455574D01*
X972918Y455595D01*
X972795Y455621D01*
X972673Y455656D01*
X972612Y455661D01*
X972577Y455668D01*
X972529Y455667D01*
X972429Y455675D01*
X958488Y455675D01*
X958486Y455675D01*
X958484Y455675D01*
X958313Y455655D01*
X958141Y455635D01*
X958139Y455635D01*
X958137Y455634D01*
X957905Y455559D01*
X952733Y453417D01*
X947187Y453417D01*
X943431Y454973D01*
X943286Y455014D01*
X943143Y455060D01*
X943119Y455062D01*
X943096Y455069D01*
X942945Y455076D01*
X942796Y455088D01*
X942772Y455084D01*
X942748Y455086D01*
X942600Y455059D01*
X942451Y455036D01*
X942429Y455027D01*
X942405Y455023D01*
X942267Y454963D01*
X942127Y454908D01*
X942107Y454894D01*
X942085Y454884D01*
X941964Y454794D01*
X941841Y454709D01*
X941825Y454691D01*
X941805Y454676D01*
X941708Y454561D01*
X941608Y454450D01*
X941596Y454429D01*
X941580Y454410D01*
X941512Y454277D01*
X941439Y454145D01*
X941433Y454121D01*
X941422Y454100D01*
X941385Y453955D01*
X941344Y453809D01*
X941342Y453780D01*
X941337Y453762D01*
X941337Y453715D01*
X941325Y453566D01*
X941325Y427111D01*
X941339Y426985D01*
X941346Y426859D01*
X941359Y426813D01*
X941365Y426765D01*
X941407Y426646D01*
X941442Y426524D01*
X941466Y426482D01*
X941482Y426437D01*
X941551Y426330D01*
X941612Y426220D01*
X941652Y426174D01*
X941671Y426144D01*
X941706Y426110D01*
X941771Y426034D01*
X971839Y395966D01*
X971917Y395903D01*
X971990Y395834D01*
X972054Y395795D01*
X972112Y395749D01*
X972203Y395706D01*
X972289Y395655D01*
X972360Y395632D01*
X972427Y395600D01*
X972525Y395579D01*
X972621Y395549D01*
X972695Y395543D01*
X972768Y395527D01*
X972868Y395529D01*
X972968Y395521D01*
X973042Y395532D01*
X973116Y395533D01*
X973213Y395557D01*
X973313Y395572D01*
X973382Y395600D01*
X973454Y395618D01*
X973544Y395664D01*
X973637Y395701D01*
X973698Y395743D01*
X973764Y395777D01*
X973841Y395843D01*
X973923Y395900D01*
X973973Y395955D01*
X974029Y396003D01*
X974089Y396084D01*
X974156Y396159D01*
X974192Y396224D01*
X974237Y396284D01*
X974276Y396376D01*
X974325Y396464D01*
X974345Y396535D01*
X974375Y396604D01*
X974392Y396702D01*
X974420Y396799D01*
X974428Y396899D01*
X974436Y396947D01*
X974434Y396982D01*
X974439Y397043D01*
X974439Y404177D01*
X977146Y410712D01*
X982148Y415714D01*
X988683Y418421D01*
X1010997Y418421D01*
X1017532Y415714D01*
X1022534Y410712D01*
X1025241Y404177D01*
X1025241Y397103D01*
X1022534Y390568D01*
X1020983Y389017D01*
X1020967Y388997D01*
X1020947Y388980D01*
X1020858Y388860D01*
X1020766Y388744D01*
X1020755Y388720D01*
X1020739Y388699D01*
X1020681Y388563D01*
X1020617Y388429D01*
X1020612Y388403D01*
X1020601Y388379D01*
X1020575Y388233D01*
X1020544Y388088D01*
X1020544Y388062D01*
X1020540Y388036D01*
X1020547Y387888D01*
X1020550Y387740D01*
X1020556Y387714D01*
X1020558Y387688D01*
X1020599Y387546D01*
X1020635Y387402D01*
X1020647Y387379D01*
X1020654Y387353D01*
X1020727Y387224D01*
X1020795Y387092D01*
X1020812Y387072D01*
X1020824Y387049D01*
X1020983Y386863D01*
X1022534Y385312D01*
X1025241Y378777D01*
X1025241Y371703D01*
X1022534Y365168D01*
X1020983Y363617D01*
X1020967Y363597D01*
X1020947Y363580D01*
X1020858Y363460D01*
X1020766Y363344D01*
X1020755Y363320D01*
X1020739Y363299D01*
X1020681Y363163D01*
X1020617Y363029D01*
X1020612Y363003D01*
X1020601Y362979D01*
X1020575Y362833D01*
X1020544Y362688D01*
X1020544Y362662D01*
X1020540Y362636D01*
X1020547Y362488D01*
X1020550Y362340D01*
X1020556Y362314D01*
X1020558Y362288D01*
X1020599Y362146D01*
X1020635Y362002D01*
X1020647Y361979D01*
X1020654Y361953D01*
X1020727Y361824D01*
X1020795Y361692D01*
X1020812Y361672D01*
X1020824Y361649D01*
X1020983Y361463D01*
X1022534Y359912D01*
X1025241Y353377D01*
X1025241Y346303D01*
X1022534Y339768D01*
X1021491Y338725D01*
X1021428Y338646D01*
X1021359Y338574D01*
X1021320Y338510D01*
X1021274Y338452D01*
X1021231Y338361D01*
X1021180Y338275D01*
X1021157Y338204D01*
X1021125Y338137D01*
X1021104Y338039D01*
X1021074Y337943D01*
X1021068Y337869D01*
X1021052Y337796D01*
X1021054Y337696D01*
X1021046Y337596D01*
X1021057Y337522D01*
X1021058Y337448D01*
X1021082Y337351D01*
X1021097Y337251D01*
X1021125Y337182D01*
X1021143Y337110D01*
X1021189Y337021D01*
X1021226Y336927D01*
X1021268Y336866D01*
X1021303Y336800D01*
X1021368Y336724D01*
X1021425Y336641D01*
X1021480Y336591D01*
X1021528Y336535D01*
X1021609Y336475D01*
X1021684Y336408D01*
X1021749Y336372D01*
X1021809Y336327D01*
X1021901Y336288D01*
X1021989Y336239D01*
X1022060Y336219D01*
X1022129Y336189D01*
X1022227Y336172D01*
X1022324Y336144D01*
X1022424Y336136D01*
X1022472Y336128D01*
X1022507Y336130D01*
X1022568Y336125D01*
X1031704Y336125D01*
X1035999Y334346D01*
X1058926Y311419D01*
X1060705Y307124D01*
X1060705Y238976D01*
X1058926Y234681D01*
X1055425Y231180D01*
X1046650Y222405D01*
X1046587Y222327D01*
X1046518Y222254D01*
X1046479Y222190D01*
X1046433Y222132D01*
X1046390Y222041D01*
X1046339Y221955D01*
X1046316Y221884D01*
X1046284Y221817D01*
X1046263Y221719D01*
X1046233Y221623D01*
X1046227Y221549D01*
X1046211Y221476D01*
X1046213Y221376D01*
X1046205Y221276D01*
X1046216Y221202D01*
X1046217Y221128D01*
X1046241Y221031D01*
X1046256Y220931D01*
X1046284Y220862D01*
X1046302Y220790D01*
X1046348Y220700D01*
X1046385Y220607D01*
X1046427Y220546D01*
X1046461Y220480D01*
X1046527Y220403D01*
X1046584Y220321D01*
X1046639Y220271D01*
X1046687Y220215D01*
X1046768Y220155D01*
X1046843Y220088D01*
X1046908Y220052D01*
X1046968Y220007D01*
X1047060Y219968D01*
X1047148Y219919D01*
X1047219Y219899D01*
X1047288Y219869D01*
X1047386Y219852D01*
X1047483Y219824D01*
X1047583Y219816D01*
X1047631Y219808D01*
X1047666Y219810D01*
X1047727Y219805D01*
X1053549Y219805D01*
X1053675Y219819D01*
X1053801Y219826D01*
X1053847Y219839D01*
X1053895Y219845D01*
X1054014Y219887D01*
X1054136Y219922D01*
X1054178Y219946D01*
X1054223Y219962D01*
X1054330Y220031D01*
X1054440Y220092D01*
X1054486Y220132D01*
X1054516Y220151D01*
X1054550Y220186D01*
X1054626Y220251D01*
X1100389Y266014D01*
X1100468Y266113D01*
X1100552Y266207D01*
X1100576Y266249D01*
X1100606Y266287D01*
X1100660Y266401D01*
X1100721Y266512D01*
X1100734Y266558D01*
X1100755Y266602D01*
X1100781Y266725D01*
X1100816Y266847D01*
X1100821Y266908D01*
X1100828Y266943D01*
X1100827Y266991D01*
X1100835Y267091D01*
X1100835Y454444D01*
X1102614Y458739D01*
X1128761Y484886D01*
X1133056Y486665D01*
X1160389Y486665D01*
X1160515Y486679D01*
X1160641Y486686D01*
X1160687Y486699D01*
X1160735Y486705D01*
X1160854Y486747D01*
X1160976Y486782D01*
X1161018Y486806D01*
X1161063Y486822D01*
X1161170Y486891D01*
X1161280Y486952D01*
X1161326Y486992D01*
X1161356Y487011D01*
X1161390Y487046D01*
X1161466Y487111D01*
X1177110Y502755D01*
X1177173Y502833D01*
X1177242Y502906D01*
X1177281Y502970D01*
X1177327Y503028D01*
X1177370Y503119D01*
X1177421Y503205D01*
X1177444Y503276D01*
X1177476Y503343D01*
X1177497Y503441D01*
X1177527Y503537D01*
X1177533Y503611D01*
X1177549Y503684D01*
X1177547Y503784D01*
X1177555Y503884D01*
X1177544Y503958D01*
X1177543Y504032D01*
X1177519Y504129D01*
X1177504Y504229D01*
X1177476Y504298D01*
X1177458Y504370D01*
X1177412Y504460D01*
X1177375Y504553D01*
X1177333Y504614D01*
X1177299Y504680D01*
X1177233Y504757D01*
X1177176Y504839D01*
X1177121Y504889D01*
X1177073Y504945D01*
X1176992Y505005D01*
X1176917Y505072D01*
X1176852Y505108D01*
X1176792Y505153D01*
X1176700Y505192D01*
X1176612Y505241D01*
X1176541Y505261D01*
X1176472Y505291D01*
X1176374Y505308D01*
X1176277Y505336D01*
X1176177Y505344D01*
X1176129Y505352D01*
X1176094Y505350D01*
X1176033Y505355D01*
X1162776Y505355D01*
X1152955Y515176D01*
X1152955Y529064D01*
X1158529Y534638D01*
X1158608Y534737D01*
X1158692Y534831D01*
X1158716Y534873D01*
X1158746Y534911D01*
X1158800Y535025D01*
X1158861Y535136D01*
X1158874Y535182D01*
X1158895Y535226D01*
X1158921Y535349D01*
X1158956Y535471D01*
X1158961Y535532D01*
X1158968Y535567D01*
X1158967Y535615D01*
X1158975Y535715D01*
X1158975Y568685D01*
X1158961Y568811D01*
X1158954Y568937D01*
X1158941Y568983D01*
X1158935Y569031D01*
X1158893Y569150D01*
X1158858Y569272D01*
X1158834Y569314D01*
X1158818Y569359D01*
X1158749Y569465D01*
X1158688Y569576D01*
X1158648Y569622D01*
X1158629Y569652D01*
X1158594Y569686D01*
X1158529Y569762D01*
X1153895Y574396D01*
X1153895Y588284D01*
X1158529Y592918D01*
X1158608Y593017D01*
X1158692Y593111D01*
X1158716Y593153D01*
X1158746Y593191D01*
X1158800Y593305D01*
X1158861Y593416D01*
X1158874Y593462D01*
X1158895Y593506D01*
X1158921Y593629D01*
X1158956Y593751D01*
X1158961Y593812D01*
X1158968Y593847D01*
X1158967Y593895D01*
X1158975Y593995D01*
X1158975Y612029D01*
X1158961Y612155D01*
X1158954Y612281D01*
X1158941Y612327D01*
X1158935Y612375D01*
X1158893Y612494D01*
X1158858Y612616D01*
X1158834Y612658D01*
X1158818Y612703D01*
X1158749Y612810D01*
X1158688Y612920D01*
X1158648Y612966D01*
X1158629Y612996D01*
X1158594Y613030D01*
X1158529Y613106D01*
X1119434Y652201D01*
X1117655Y656496D01*
X1117655Y667425D01*
X1117641Y667551D01*
X1117634Y667677D01*
X1117621Y667723D01*
X1117615Y667771D01*
X1117573Y667890D01*
X1117538Y668012D01*
X1117514Y668054D01*
X1117498Y668099D01*
X1117429Y668205D01*
X1117368Y668316D01*
X1117328Y668362D01*
X1117309Y668392D01*
X1117274Y668426D01*
X1117272Y668429D01*
X1117256Y668450D01*
X1117242Y668463D01*
X1117209Y668502D01*
X1112329Y673382D01*
X1112308Y673398D01*
X1112291Y673418D01*
X1112172Y673507D01*
X1112056Y673599D01*
X1112032Y673610D01*
X1112011Y673626D01*
X1111875Y673684D01*
X1111741Y673748D01*
X1111715Y673753D01*
X1111691Y673764D01*
X1111545Y673790D01*
X1111400Y673821D01*
X1111374Y673821D01*
X1111348Y673825D01*
X1111200Y673818D01*
X1111052Y673815D01*
X1111026Y673809D01*
X1111000Y673807D01*
X1110858Y673766D01*
X1110714Y673730D01*
X1110690Y673718D01*
X1110665Y673711D01*
X1110536Y673638D01*
X1110404Y673570D01*
X1110384Y673553D01*
X1110361Y673541D01*
X1110175Y673382D01*
X1107728Y670935D01*
X1105971Y670935D01*
X1105971Y679572D01*
X1105968Y679598D01*
X1105970Y679624D01*
X1105948Y679771D01*
X1105931Y679918D01*
X1105923Y679943D01*
X1105919Y679969D01*
X1105876Y680076D01*
X1105897Y680152D01*
X1105942Y680293D01*
X1105944Y680319D01*
X1105952Y680344D01*
X1105971Y680588D01*
X1105971Y689225D01*
X1107728Y689225D01*
X1110175Y686778D01*
X1110195Y686762D01*
X1110212Y686742D01*
X1110332Y686653D01*
X1110448Y686561D01*
X1110471Y686550D01*
X1110493Y686534D01*
X1110629Y686476D01*
X1110763Y686412D01*
X1110789Y686407D01*
X1110813Y686396D01*
X1110959Y686370D01*
X1111104Y686339D01*
X1111130Y686339D01*
X1111156Y686335D01*
X1111304Y686342D01*
X1111452Y686345D01*
X1111477Y686351D01*
X1111504Y686353D01*
X1111646Y686394D01*
X1111790Y686430D01*
X1111813Y686442D01*
X1111839Y686449D01*
X1111968Y686522D01*
X1112100Y686590D01*
X1112120Y686606D01*
X1112143Y686619D01*
X1112329Y686778D01*
X1122396Y696845D01*
X1136284Y696845D01*
X1146105Y687024D01*
X1146105Y673136D01*
X1141471Y668502D01*
X1141406Y668420D01*
X1141357Y668370D01*
X1141347Y668353D01*
X1141308Y668309D01*
X1141284Y668267D01*
X1141254Y668229D01*
X1141200Y668115D01*
X1141139Y668004D01*
X1141126Y667958D01*
X1141105Y667914D01*
X1141079Y667791D01*
X1141044Y667669D01*
X1141039Y667608D01*
X1141032Y667573D01*
X1141033Y667525D01*
X1141025Y667425D01*
X1141025Y664291D01*
X1141039Y664165D01*
X1141046Y664039D01*
X1141059Y663993D01*
X1141065Y663945D01*
X1141107Y663826D01*
X1141142Y663704D01*
X1141166Y663662D01*
X1141182Y663617D01*
X1141251Y663510D01*
X1141312Y663400D01*
X1141352Y663354D01*
X1141371Y663324D01*
X1141406Y663290D01*
X1141471Y663214D01*
X1180566Y624119D01*
X1182345Y619824D01*
X1182345Y598027D01*
X1182356Y597927D01*
X1182358Y597827D01*
X1182376Y597755D01*
X1182385Y597681D01*
X1182418Y597586D01*
X1182443Y597489D01*
X1182477Y597423D01*
X1182502Y597353D01*
X1182557Y597268D01*
X1182603Y597179D01*
X1182651Y597122D01*
X1182691Y597060D01*
X1182763Y596990D01*
X1182828Y596914D01*
X1182888Y596869D01*
X1182942Y596818D01*
X1183028Y596766D01*
X1183109Y596706D01*
X1183177Y596677D01*
X1183241Y596639D01*
X1183337Y596608D01*
X1183429Y596568D01*
X1183502Y596555D01*
X1183573Y596533D01*
X1183673Y596524D01*
X1183772Y596507D01*
X1183846Y596511D01*
X1183920Y596505D01*
X1184020Y596519D01*
X1184120Y596525D01*
X1184191Y596545D01*
X1184265Y596556D01*
X1184358Y596593D01*
X1184455Y596621D01*
X1184520Y596657D01*
X1184589Y596685D01*
X1184671Y596742D01*
X1184759Y596791D01*
X1184835Y596856D01*
X1184875Y596884D01*
X1184899Y596910D01*
X1184945Y596950D01*
X1227389Y639394D01*
X1227468Y639493D01*
X1227552Y639587D01*
X1227576Y639629D01*
X1227606Y639667D01*
X1227660Y639781D01*
X1227721Y639892D01*
X1227734Y639938D01*
X1227755Y639982D01*
X1227781Y640105D01*
X1227816Y640227D01*
X1227821Y640288D01*
X1227828Y640323D01*
X1227827Y640371D01*
X1227835Y640471D01*
X1227835Y644460D01*
X1227830Y644510D01*
X1227832Y644560D01*
X1227810Y644682D01*
X1227795Y644806D01*
X1227778Y644853D01*
X1227769Y644903D01*
X1227720Y645017D01*
X1227678Y645134D01*
X1227651Y645176D01*
X1227631Y645222D01*
X1227556Y645322D01*
X1227489Y645427D01*
X1227453Y645462D01*
X1227423Y645502D01*
X1227328Y645582D01*
X1227238Y645669D01*
X1227195Y645695D01*
X1227157Y645727D01*
X1227046Y645784D01*
X1226939Y645848D01*
X1226891Y645863D01*
X1226846Y645886D01*
X1226726Y645916D01*
X1226607Y645954D01*
X1226557Y645958D01*
X1226508Y645970D01*
X1226384Y645972D01*
X1226260Y645982D01*
X1226210Y645974D01*
X1226160Y645975D01*
X1226038Y645949D01*
X1225915Y645930D01*
X1225868Y645912D01*
X1225819Y645901D01*
X1225707Y645847D01*
X1225591Y645801D01*
X1225550Y645773D01*
X1225504Y645751D01*
X1225407Y645673D01*
X1225305Y645603D01*
X1225271Y645565D01*
X1225232Y645534D01*
X1225155Y645436D01*
X1225072Y645344D01*
X1225047Y645300D01*
X1225016Y645260D01*
X1224905Y645042D01*
X1222738Y639811D01*
X1217559Y634632D01*
X1210792Y631829D01*
X1186968Y631829D01*
X1180201Y634632D01*
X1175022Y639811D01*
X1172219Y646578D01*
X1172219Y653902D01*
X1175022Y660669D01*
X1176216Y661863D01*
X1176232Y661883D01*
X1176253Y661900D01*
X1176341Y662020D01*
X1176433Y662136D01*
X1176444Y662160D01*
X1176460Y662181D01*
X1176518Y662317D01*
X1176582Y662451D01*
X1176587Y662477D01*
X1176598Y662501D01*
X1176624Y662647D01*
X1176655Y662792D01*
X1176655Y662818D01*
X1176659Y662844D01*
X1176652Y662992D01*
X1176649Y663140D01*
X1176643Y663166D01*
X1176641Y663192D01*
X1176600Y663334D01*
X1176564Y663478D01*
X1176552Y663501D01*
X1176545Y663527D01*
X1176472Y663656D01*
X1176405Y663788D01*
X1176388Y663808D01*
X1176375Y663831D01*
X1176216Y664017D01*
X1175022Y665211D01*
X1172219Y671978D01*
X1172219Y679302D01*
X1175022Y686069D01*
X1176216Y687263D01*
X1176232Y687283D01*
X1176253Y687300D01*
X1176341Y687420D01*
X1176433Y687536D01*
X1176444Y687560D01*
X1176460Y687581D01*
X1176518Y687717D01*
X1176582Y687851D01*
X1176587Y687877D01*
X1176598Y687901D01*
X1176624Y688047D01*
X1176655Y688192D01*
X1176655Y688218D01*
X1176659Y688244D01*
X1176652Y688392D01*
X1176649Y688540D01*
X1176643Y688566D01*
X1176641Y688592D01*
X1176600Y688734D01*
X1176564Y688878D01*
X1176552Y688901D01*
X1176545Y688927D01*
X1176472Y689056D01*
X1176405Y689188D01*
X1176388Y689208D01*
X1176375Y689231D01*
X1176216Y689417D01*
X1175022Y690611D01*
X1172219Y697378D01*
X1172219Y704702D01*
X1175022Y711469D01*
X1180201Y716648D01*
X1186968Y719451D01*
X1210792Y719451D01*
X1217559Y716648D01*
X1221036Y713171D01*
X1221135Y713092D01*
X1221229Y713008D01*
X1221271Y712984D01*
X1221309Y712954D01*
X1221423Y712900D01*
X1221534Y712839D01*
X1221580Y712826D01*
X1221624Y712805D01*
X1221747Y712779D01*
X1221869Y712744D01*
X1221930Y712739D01*
X1221965Y712732D01*
X1222013Y712733D01*
X1222113Y712725D01*
X1257084Y712725D01*
X1261379Y710946D01*
X1279474Y692851D01*
X1279573Y692772D01*
X1279667Y692688D01*
X1279709Y692664D01*
X1279747Y692634D01*
X1279861Y692580D01*
X1279972Y692519D01*
X1280018Y692506D01*
X1280062Y692485D01*
X1280185Y692459D01*
X1280307Y692424D01*
X1280368Y692419D01*
X1280403Y692412D01*
X1280451Y692413D01*
X1280551Y692405D01*
X1285188Y692405D01*
X1285314Y692419D01*
X1285440Y692426D01*
X1285486Y692439D01*
X1285534Y692445D01*
X1285653Y692487D01*
X1285775Y692522D01*
X1285817Y692546D01*
X1285862Y692562D01*
X1285969Y692631D01*
X1286079Y692692D01*
X1286125Y692732D01*
X1286155Y692751D01*
X1286189Y692786D01*
X1286265Y692851D01*
X1290008Y696594D01*
X1296543Y699301D01*
X1318857Y699301D01*
X1325392Y696594D01*
X1330394Y691592D01*
X1333101Y685057D01*
X1333101Y677983D01*
X1330394Y671448D01*
X1325392Y666446D01*
X1323235Y665553D01*
X1323104Y665480D01*
X1322970Y665411D01*
X1322952Y665395D01*
X1322931Y665384D01*
X1322819Y665283D01*
X1322705Y665185D01*
X1322690Y665166D01*
X1322672Y665149D01*
X1322587Y665026D01*
X1322498Y664905D01*
X1322488Y664883D01*
X1322474Y664863D01*
X1322419Y664723D01*
X1322360Y664585D01*
X1322355Y664561D01*
X1322346Y664538D01*
X1322325Y664390D01*
X1322298Y664242D01*
X1322299Y664218D01*
X1322296Y664194D01*
X1322308Y664044D01*
X1322316Y663894D01*
X1322323Y663871D01*
X1322325Y663846D01*
X1322371Y663703D01*
X1322412Y663559D01*
X1322424Y663538D01*
X1322432Y663515D01*
X1322509Y663386D01*
X1322583Y663255D01*
X1322601Y663233D01*
X1322611Y663216D01*
X1322644Y663182D01*
X1322741Y663068D01*
X1323070Y662739D01*
X1324010Y661445D01*
X1324736Y660020D01*
X1325179Y658659D01*
X1308716Y658659D01*
X1308690Y658656D01*
X1308664Y658658D01*
X1308517Y658636D01*
X1308370Y658619D01*
X1308345Y658611D01*
X1308319Y658607D01*
X1308182Y658552D01*
X1308042Y658502D01*
X1308020Y658488D01*
X1307995Y658478D01*
X1307874Y658393D01*
X1307749Y658313D01*
X1307731Y658294D01*
X1307709Y658279D01*
X1307695Y658263D01*
X1307610Y658345D01*
X1307587Y658359D01*
X1307568Y658376D01*
X1307438Y658448D01*
X1307311Y658524D01*
X1307286Y658532D01*
X1307263Y658545D01*
X1307120Y658585D01*
X1306979Y658630D01*
X1306953Y658632D01*
X1306928Y658640D01*
X1306684Y658659D01*
X1290221Y658659D01*
X1290664Y660020D01*
X1291390Y661445D01*
X1292330Y662739D01*
X1292659Y663068D01*
X1292752Y663186D01*
X1292850Y663301D01*
X1292861Y663323D01*
X1292876Y663341D01*
X1292940Y663478D01*
X1293008Y663611D01*
X1293014Y663635D01*
X1293025Y663657D01*
X1293056Y663804D01*
X1293092Y663949D01*
X1293093Y663974D01*
X1293098Y663997D01*
X1293095Y664147D01*
X1293098Y664298D01*
X1293092Y664322D01*
X1293092Y664346D01*
X1293055Y664491D01*
X1293023Y664638D01*
X1293013Y664660D01*
X1293007Y664684D01*
X1292938Y664818D01*
X1292873Y664953D01*
X1292858Y664972D01*
X1292847Y664994D01*
X1292750Y665108D01*
X1292656Y665226D01*
X1292637Y665240D01*
X1292621Y665259D01*
X1292500Y665348D01*
X1292383Y665441D01*
X1292357Y665455D01*
X1292341Y665466D01*
X1292298Y665485D01*
X1292165Y665553D01*
X1290008Y666446D01*
X1287865Y668589D01*
X1287766Y668668D01*
X1287672Y668752D01*
X1287630Y668776D01*
X1287592Y668806D01*
X1287478Y668860D01*
X1287367Y668921D01*
X1287321Y668934D01*
X1287277Y668955D01*
X1287154Y668981D01*
X1287032Y669016D01*
X1286971Y669021D01*
X1286936Y669028D01*
X1286888Y669027D01*
X1286788Y669035D01*
X1272756Y669035D01*
X1268461Y670814D01*
X1250366Y688909D01*
X1250267Y688988D01*
X1250173Y689072D01*
X1250131Y689096D01*
X1250093Y689126D01*
X1249979Y689180D01*
X1249868Y689241D01*
X1249822Y689254D01*
X1249778Y689275D01*
X1249655Y689301D01*
X1249533Y689336D01*
X1249472Y689341D01*
X1249437Y689348D01*
X1249389Y689347D01*
X1249289Y689355D01*
X1231900Y689355D01*
X1231850Y689350D01*
X1231800Y689352D01*
X1231677Y689330D01*
X1231554Y689315D01*
X1231506Y689298D01*
X1231457Y689289D01*
X1231343Y689240D01*
X1231226Y689198D01*
X1231183Y689171D01*
X1231137Y689151D01*
X1231037Y689076D01*
X1230933Y689009D01*
X1230898Y688973D01*
X1230857Y688943D01*
X1230777Y688848D01*
X1230691Y688758D01*
X1230665Y688715D01*
X1230632Y688677D01*
X1230576Y688566D01*
X1230512Y688459D01*
X1230496Y688411D01*
X1230473Y688366D01*
X1230443Y688246D01*
X1230406Y688127D01*
X1230402Y688077D01*
X1230389Y688028D01*
X1230388Y687904D01*
X1230378Y687780D01*
X1230385Y687730D01*
X1230384Y687680D01*
X1230411Y687558D01*
X1230429Y687435D01*
X1230448Y687388D01*
X1230459Y687339D01*
X1230512Y687227D01*
X1230558Y687111D01*
X1230587Y687070D01*
X1230608Y687024D01*
X1230686Y686927D01*
X1230757Y686825D01*
X1230794Y686791D01*
X1230826Y686752D01*
X1230923Y686675D01*
X1231016Y686592D01*
X1231060Y686567D01*
X1231099Y686536D01*
X1231317Y686425D01*
X1233439Y685546D01*
X1249426Y669559D01*
X1251205Y665264D01*
X1251205Y632676D01*
X1249426Y628381D01*
X1203391Y582346D01*
X1203312Y582247D01*
X1203228Y582153D01*
X1203204Y582111D01*
X1203174Y582073D01*
X1203120Y581959D01*
X1203059Y581848D01*
X1203046Y581802D01*
X1203025Y581758D01*
X1202999Y581635D01*
X1202964Y581513D01*
X1202959Y581452D01*
X1202952Y581417D01*
X1202953Y581369D01*
X1202945Y581269D01*
X1202945Y498056D01*
X1201166Y493761D01*
X1172479Y465074D01*
X1168184Y463295D01*
X1140851Y463295D01*
X1140725Y463281D01*
X1140599Y463274D01*
X1140553Y463261D01*
X1140505Y463255D01*
X1140386Y463213D01*
X1140264Y463178D01*
X1140222Y463154D01*
X1140177Y463138D01*
X1140070Y463069D01*
X1139960Y463008D01*
X1139914Y462968D01*
X1139884Y462949D01*
X1139850Y462914D01*
X1139774Y462849D01*
X1124651Y447726D01*
X1124572Y447627D01*
X1124488Y447533D01*
X1124464Y447491D01*
X1124434Y447453D01*
X1124380Y447339D01*
X1124319Y447228D01*
X1124306Y447182D01*
X1124285Y447138D01*
X1124259Y447015D01*
X1124224Y446893D01*
X1124219Y446832D01*
X1124212Y446797D01*
X1124213Y446749D01*
X1124205Y446649D01*
X1124205Y265567D01*
X1124216Y265467D01*
X1124218Y265367D01*
X1124236Y265295D01*
X1124245Y265221D01*
X1124278Y265126D01*
X1124303Y265029D01*
X1124337Y264963D01*
X1124362Y264893D01*
X1124417Y264808D01*
X1124463Y264719D01*
X1124511Y264662D01*
X1124551Y264600D01*
X1124623Y264530D01*
X1124688Y264454D01*
X1124748Y264409D01*
X1124802Y264358D01*
X1124888Y264306D01*
X1124969Y264246D01*
X1125037Y264217D01*
X1125101Y264179D01*
X1125197Y264148D01*
X1125289Y264108D01*
X1125362Y264095D01*
X1125433Y264073D01*
X1125533Y264064D01*
X1125632Y264047D01*
X1125706Y264051D01*
X1125780Y264045D01*
X1125880Y264059D01*
X1125980Y264065D01*
X1126051Y264085D01*
X1126125Y264096D01*
X1126218Y264133D01*
X1126315Y264161D01*
X1126380Y264197D01*
X1126449Y264225D01*
X1126531Y264282D01*
X1126619Y264331D01*
X1126695Y264396D01*
X1126735Y264424D01*
X1126759Y264450D01*
X1126805Y264490D01*
X1142209Y279894D01*
X1142288Y279993D01*
X1142372Y280087D01*
X1142396Y280129D01*
X1142426Y280167D01*
X1142480Y280281D01*
X1142541Y280392D01*
X1142554Y280438D01*
X1142575Y280482D01*
X1142601Y280605D01*
X1142636Y280727D01*
X1142641Y280788D01*
X1142648Y280823D01*
X1142647Y280871D01*
X1142655Y280971D01*
X1142655Y311705D01*
X1142641Y311830D01*
X1142634Y311957D01*
X1142621Y312003D01*
X1142615Y312051D01*
X1142573Y312170D01*
X1142538Y312292D01*
X1142514Y312334D01*
X1142498Y312379D01*
X1142429Y312485D01*
X1142368Y312596D01*
X1142328Y312642D01*
X1142309Y312672D01*
X1142274Y312706D01*
X1142209Y312782D01*
X1137575Y317416D01*
X1137575Y331304D01*
X1147396Y341125D01*
X1161284Y341125D01*
X1171105Y331304D01*
X1171105Y317416D01*
X1166471Y312782D01*
X1166392Y312683D01*
X1166308Y312589D01*
X1166284Y312547D01*
X1166254Y312509D01*
X1166200Y312395D01*
X1166139Y312284D01*
X1166126Y312238D01*
X1166105Y312194D01*
X1166079Y312071D01*
X1166044Y311949D01*
X1166039Y311888D01*
X1166032Y311853D01*
X1166033Y311805D01*
X1166025Y311705D01*
X1166025Y273176D01*
X1164246Y268881D01*
X1119411Y224046D01*
X1119332Y223947D01*
X1119248Y223853D01*
X1119224Y223811D01*
X1119194Y223773D01*
X1119140Y223659D01*
X1119079Y223548D01*
X1119066Y223502D01*
X1119045Y223458D01*
X1119019Y223335D01*
X1118984Y223213D01*
X1118979Y223152D01*
X1118972Y223117D01*
X1118973Y223069D01*
X1118965Y222969D01*
X1118965Y203468D01*
X1118965Y203466D01*
X1118965Y203464D01*
X1118986Y203287D01*
X1119005Y203121D01*
X1119005Y203120D01*
X1119006Y203117D01*
X1119081Y202885D01*
X1121223Y197713D01*
X1121223Y192167D01*
X1119081Y186995D01*
X1119080Y186993D01*
X1119079Y186992D01*
X1119033Y186830D01*
X1118985Y186660D01*
X1118985Y186658D01*
X1118984Y186656D01*
X1118965Y186412D01*
X1118965Y149148D01*
X1118980Y149013D01*
X1118989Y148877D01*
X1119001Y148831D01*
X1119005Y148802D01*
X1119021Y148755D01*
X1119052Y148640D01*
X1119071Y148586D01*
X1118967Y146613D01*
X1118969Y146583D01*
X1118965Y146533D01*
X1118965Y144558D01*
X1118943Y144504D01*
X1118905Y144374D01*
X1118861Y144244D01*
X1118855Y144197D01*
X1118847Y144169D01*
X1118845Y144119D01*
X1118829Y144002D01*
X1118779Y143059D01*
X1118789Y142893D01*
X1118798Y142727D01*
X1118800Y142719D01*
X1118801Y142711D01*
X1118848Y142552D01*
X1118894Y142392D01*
X1118898Y142385D01*
X1118901Y142378D01*
X1118983Y142233D01*
X1119065Y142088D01*
X1119071Y142081D01*
X1119074Y142075D01*
X1119092Y142056D01*
X1119223Y141902D01*
X1167714Y93411D01*
X1167813Y93332D01*
X1167907Y93248D01*
X1167949Y93224D01*
X1167987Y93194D01*
X1168101Y93140D01*
X1168212Y93079D01*
X1168258Y93066D01*
X1168302Y93045D01*
X1168425Y93019D01*
X1168547Y92984D01*
X1168608Y92979D01*
X1168643Y92972D01*
X1168691Y92973D01*
X1168791Y92965D01*
X1192262Y92965D01*
X1192388Y92979D01*
X1192514Y92986D01*
X1192560Y92999D01*
X1192608Y93005D01*
X1192727Y93047D01*
X1192849Y93082D01*
X1192891Y93106D01*
X1192936Y93122D01*
X1193043Y93191D01*
X1193153Y93252D01*
X1193199Y93292D01*
X1193229Y93311D01*
X1193263Y93346D01*
X1193339Y93411D01*
X1196896Y96968D01*
X1203431Y99675D01*
X1225745Y99675D01*
X1232280Y96968D01*
X1237282Y91966D01*
X1239989Y85431D01*
X1239989Y78357D01*
X1237282Y71822D01*
X1232280Y66820D01*
X1225745Y64113D01*
X1203431Y64113D01*
X1196896Y66820D01*
X1194567Y69149D01*
X1194468Y69228D01*
X1194374Y69312D01*
X1194332Y69336D01*
X1194294Y69366D01*
X1194180Y69420D01*
X1194069Y69481D01*
X1194023Y69494D01*
X1193979Y69515D01*
X1193856Y69541D01*
X1193734Y69576D01*
X1193673Y69581D01*
X1193638Y69588D01*
X1193590Y69587D01*
X1193490Y69595D01*
X1160996Y69595D01*
X1156701Y71374D01*
X1153200Y74875D01*
X1100140Y127935D01*
X1100034Y128020D01*
X1099931Y128110D01*
X1099890Y128134D01*
X1099867Y128152D01*
X1099822Y128173D01*
X1099719Y128233D01*
X1099668Y128257D01*
X1098347Y129726D01*
X1098324Y129746D01*
X1098291Y129784D01*
X1096894Y131181D01*
X1096872Y131234D01*
X1096806Y131354D01*
X1096746Y131476D01*
X1096717Y131513D01*
X1096703Y131539D01*
X1096669Y131576D01*
X1096597Y131670D01*
X1096559Y131713D01*
X1095900Y133575D01*
X1095887Y133603D01*
X1095871Y133651D01*
X1095115Y135476D01*
X1095115Y135533D01*
X1095100Y135669D01*
X1095091Y135805D01*
X1095079Y135851D01*
X1095075Y135880D01*
X1095059Y135927D01*
X1095028Y136041D01*
X1095009Y136096D01*
X1095113Y138068D01*
X1095111Y138099D01*
X1095115Y138149D01*
X1095115Y140124D01*
X1095137Y140178D01*
X1095175Y140309D01*
X1095219Y140438D01*
X1095225Y140484D01*
X1095233Y140513D01*
X1095235Y140563D01*
X1095251Y140680D01*
X1095593Y147150D01*
X1095591Y147181D01*
X1095595Y147231D01*
X1095595Y186412D01*
X1095595Y186414D01*
X1095595Y186416D01*
X1095574Y186593D01*
X1095555Y186759D01*
X1095555Y186760D01*
X1095554Y186763D01*
X1095479Y186995D01*
X1093337Y192167D01*
X1093337Y197713D01*
X1095479Y202885D01*
X1095480Y202887D01*
X1095481Y202888D01*
X1095527Y203050D01*
X1095575Y203220D01*
X1095575Y203222D01*
X1095576Y203224D01*
X1095595Y203468D01*
X1095595Y224493D01*
X1095584Y224593D01*
X1095582Y224693D01*
X1095564Y224765D01*
X1095555Y224839D01*
X1095522Y224934D01*
X1095497Y225031D01*
X1095463Y225097D01*
X1095438Y225167D01*
X1095383Y225252D01*
X1095337Y225341D01*
X1095289Y225398D01*
X1095249Y225460D01*
X1095177Y225530D01*
X1095112Y225606D01*
X1095052Y225651D01*
X1094998Y225702D01*
X1094912Y225754D01*
X1094831Y225814D01*
X1094763Y225843D01*
X1094699Y225881D01*
X1094603Y225912D01*
X1094511Y225952D01*
X1094438Y225965D01*
X1094367Y225987D01*
X1094267Y225996D01*
X1094168Y226013D01*
X1094094Y226009D01*
X1094020Y226015D01*
X1093920Y226001D01*
X1093820Y225995D01*
X1093749Y225975D01*
X1093675Y225964D01*
X1093582Y225927D01*
X1093485Y225899D01*
X1093420Y225863D01*
X1093351Y225835D01*
X1093269Y225778D01*
X1093181Y225729D01*
X1093105Y225664D01*
X1093065Y225636D01*
X1093041Y225610D01*
X1092995Y225570D01*
X1065639Y198214D01*
X1061344Y196435D01*
X645536Y196435D01*
X641241Y198214D01*
X543814Y295641D01*
X542035Y299936D01*
X542035Y324729D01*
X542033Y324748D01*
X542034Y324764D01*
X542021Y324855D01*
X542014Y324981D01*
X542001Y325027D01*
X541995Y325075D01*
X541953Y325194D01*
X541918Y325316D01*
X541894Y325358D01*
X541878Y325403D01*
X541809Y325510D01*
X541748Y325620D01*
X541708Y325666D01*
X541689Y325696D01*
X541654Y325730D01*
X541589Y325806D01*
X511726Y355669D01*
X511627Y355748D01*
X511533Y355832D01*
X511491Y355856D01*
X511453Y355886D01*
X511339Y355940D01*
X511228Y356001D01*
X511182Y356014D01*
X511138Y356035D01*
X511015Y356061D01*
X510893Y356096D01*
X510832Y356101D01*
X510797Y356108D01*
X510749Y356107D01*
X510649Y356115D01*
X508204Y356115D01*
X508104Y356104D01*
X508004Y356102D01*
X507932Y356084D01*
X507858Y356075D01*
X507763Y356042D01*
X507666Y356017D01*
X507600Y355983D01*
X507530Y355958D01*
X507445Y355903D01*
X507356Y355857D01*
X507299Y355809D01*
X507237Y355769D01*
X507167Y355697D01*
X507091Y355632D01*
X507046Y355572D01*
X506995Y355518D01*
X506943Y355432D01*
X506883Y355351D01*
X506854Y355283D01*
X506816Y355219D01*
X506785Y355124D01*
X506745Y355031D01*
X506732Y354958D01*
X506710Y354887D01*
X506702Y354787D01*
X506684Y354688D01*
X506688Y354614D01*
X506682Y354540D01*
X506697Y354441D01*
X506702Y354340D01*
X506722Y354269D01*
X506733Y354195D01*
X506770Y354102D01*
X506798Y354005D01*
X506835Y353940D01*
X506862Y353871D01*
X506919Y353789D01*
X506968Y353701D01*
X507034Y353625D01*
X507061Y353585D01*
X507087Y353561D01*
X507127Y353515D01*
X507450Y353191D01*
X510351Y346189D01*
X510351Y338611D01*
X507450Y331609D01*
X502091Y326250D01*
X495089Y323349D01*
X487511Y323349D01*
X480509Y326250D01*
X476565Y330193D01*
X476487Y330255D01*
X476414Y330325D01*
X476350Y330364D01*
X476292Y330410D01*
X476201Y330453D01*
X476115Y330504D01*
X476044Y330527D01*
X475977Y330559D01*
X475879Y330580D01*
X475783Y330610D01*
X475709Y330616D01*
X475636Y330632D01*
X475536Y330630D01*
X475436Y330638D01*
X475362Y330627D01*
X475288Y330626D01*
X475191Y330602D01*
X475091Y330587D01*
X475022Y330559D01*
X474950Y330541D01*
X474860Y330495D01*
X474767Y330458D01*
X474706Y330416D01*
X474640Y330381D01*
X474563Y330316D01*
X474481Y330259D01*
X474431Y330204D01*
X474375Y330156D01*
X474315Y330075D01*
X474248Y330000D01*
X474212Y329935D01*
X474167Y329875D01*
X474128Y329783D01*
X474079Y329695D01*
X474059Y329624D01*
X474029Y329555D01*
X474012Y329457D01*
X473984Y329360D01*
X473976Y329260D01*
X473968Y329212D01*
X473970Y329177D01*
X473965Y329116D01*
X473965Y277084D01*
X473968Y277058D01*
X473966Y277032D01*
X473988Y276885D01*
X474005Y276738D01*
X474013Y276713D01*
X474017Y276687D01*
X474072Y276549D01*
X474122Y276410D01*
X474136Y276388D01*
X474146Y276363D01*
X474231Y276242D01*
X474311Y276117D01*
X474330Y276099D01*
X474345Y276077D01*
X474455Y275978D01*
X474562Y275875D01*
X474584Y275861D01*
X474604Y275844D01*
X474734Y275772D01*
X474861Y275696D01*
X474886Y275688D01*
X474909Y275675D01*
X475052Y275635D01*
X475193Y275590D01*
X475219Y275588D01*
X475244Y275580D01*
X475488Y275561D01*
X476557Y275561D01*
X483092Y272854D01*
X488094Y267852D01*
X490801Y261317D01*
X490801Y254243D01*
X488094Y247708D01*
X483092Y242706D01*
X480935Y241813D01*
X480804Y241740D01*
X480670Y241671D01*
X480652Y241655D01*
X480631Y241644D01*
X480519Y241542D01*
X480405Y241445D01*
X480390Y241426D01*
X480372Y241409D01*
X480287Y241286D01*
X480198Y241165D01*
X480188Y241142D01*
X480174Y241123D01*
X480119Y240983D01*
X480060Y240845D01*
X480055Y240821D01*
X480046Y240798D01*
X480025Y240650D01*
X479998Y240502D01*
X479999Y240478D01*
X479996Y240454D01*
X480008Y240304D01*
X480016Y240154D01*
X480022Y240131D01*
X480024Y240106D01*
X480071Y239963D01*
X480112Y239819D01*
X480124Y239798D01*
X480132Y239775D01*
X480209Y239646D01*
X480283Y239515D01*
X480301Y239493D01*
X480311Y239476D01*
X480344Y239442D01*
X480441Y239328D01*
X480770Y238999D01*
X481710Y237705D01*
X482436Y236280D01*
X482879Y234919D01*
X466416Y234919D01*
X466390Y234916D01*
X466364Y234918D01*
X466217Y234896D01*
X466070Y234879D01*
X466045Y234871D01*
X466019Y234867D01*
X465882Y234812D01*
X465742Y234762D01*
X465720Y234748D01*
X465695Y234738D01*
X465574Y234653D01*
X465449Y234573D01*
X465431Y234554D01*
X465409Y234539D01*
X465395Y234523D01*
X465310Y234605D01*
X465287Y234619D01*
X465268Y234636D01*
X465138Y234708D01*
X465011Y234784D01*
X464986Y234792D01*
X464963Y234805D01*
X464820Y234845D01*
X464679Y234890D01*
X464653Y234892D01*
X464628Y234900D01*
X464384Y234919D01*
X447921Y234919D01*
X448364Y236280D01*
X449090Y237705D01*
X450030Y238999D01*
X450359Y239328D01*
X450453Y239447D01*
X450550Y239561D01*
X450561Y239582D01*
X450576Y239601D01*
X450640Y239737D01*
X450708Y239871D01*
X450714Y239895D01*
X450725Y239917D01*
X450756Y240064D01*
X450792Y240209D01*
X450793Y240234D01*
X450798Y240257D01*
X450795Y240407D01*
X450798Y240558D01*
X450792Y240581D01*
X450792Y240606D01*
X450755Y240751D01*
X450723Y240898D01*
X450713Y240920D01*
X450707Y240944D01*
X450638Y241077D01*
X450573Y241213D01*
X450558Y241232D01*
X450547Y241253D01*
X450450Y241368D01*
X450356Y241486D01*
X450337Y241500D01*
X450322Y241519D01*
X450200Y241608D01*
X450083Y241701D01*
X450057Y241715D01*
X450041Y241726D01*
X449998Y241745D01*
X449865Y241813D01*
X447708Y242706D01*
X444765Y245649D01*
X444666Y245728D01*
X444572Y245812D01*
X444530Y245836D01*
X444492Y245866D01*
X444378Y245920D01*
X444267Y245981D01*
X444221Y245994D01*
X444177Y246015D01*
X444054Y246041D01*
X443932Y246076D01*
X443871Y246081D01*
X443836Y246088D01*
X443788Y246087D01*
X443688Y246095D01*
X420731Y246095D01*
X420605Y246081D01*
X420479Y246074D01*
X420433Y246061D01*
X420385Y246055D01*
X420266Y246013D01*
X420144Y245978D01*
X420102Y245954D01*
X420057Y245938D01*
X419950Y245869D01*
X419840Y245808D01*
X419794Y245768D01*
X419764Y245749D01*
X419730Y245714D01*
X419654Y245649D01*
X327091Y153086D01*
X327012Y152987D01*
X326928Y152893D01*
X326904Y152851D01*
X326874Y152813D01*
X326820Y152699D01*
X326759Y152588D01*
X326746Y152542D01*
X326725Y152498D01*
X326699Y152375D01*
X326664Y152253D01*
X326659Y152192D01*
X326652Y152157D01*
X326653Y152109D01*
X326645Y152009D01*
X326645Y59812D01*
X326659Y59686D01*
X326666Y59560D01*
X326679Y59514D01*
X326685Y59466D01*
X326727Y59347D01*
X326762Y59225D01*
X326786Y59183D01*
X326802Y59138D01*
X326871Y59031D01*
X326932Y58921D01*
X326972Y58875D01*
X326991Y58845D01*
X327026Y58811D01*
X327091Y58735D01*
X330034Y55792D01*
X332741Y49257D01*
X332741Y26943D01*
X330034Y20408D01*
X325032Y15406D01*
X321283Y13853D01*
X321239Y13829D01*
X321191Y13812D01*
X321087Y13744D01*
X320978Y13684D01*
X320941Y13650D01*
X320899Y13623D01*
X320812Y13533D01*
X320720Y13450D01*
X320691Y13408D01*
X320656Y13372D01*
X320593Y13265D01*
X320522Y13163D01*
X320503Y13116D01*
X320478Y13073D01*
X320440Y12955D01*
X320394Y12839D01*
X320387Y12789D01*
X320371Y12741D01*
X320361Y12617D01*
X320343Y12494D01*
X320347Y12444D01*
X320343Y12394D01*
X320362Y12271D01*
X320372Y12147D01*
X320388Y12099D01*
X320395Y12049D01*
X320441Y11934D01*
X320479Y11815D01*
X320505Y11772D01*
X320524Y11725D01*
X320595Y11623D01*
X320659Y11517D01*
X320694Y11480D01*
X320723Y11439D01*
X320815Y11356D01*
X320902Y11267D01*
X320944Y11239D01*
X320982Y11206D01*
X321090Y11146D01*
X321195Y11078D01*
X321242Y11061D01*
X321287Y11037D01*
X321406Y11003D01*
X321523Y10962D01*
X321573Y10956D01*
X321622Y10942D01*
X321866Y10923D01*
X379249Y10923D01*
X379274Y10926D01*
X379316Y10924D01*
X387007Y11263D01*
X387053Y11270D01*
X387207Y11285D01*
X402353Y13977D01*
X402364Y13981D01*
X402376Y13981D01*
X402611Y14047D01*
X417052Y19349D01*
X417063Y19354D01*
X417074Y19357D01*
X417294Y19463D01*
X430584Y27210D01*
X430594Y27217D01*
X430604Y27222D01*
X430803Y27365D01*
X442532Y37319D01*
X442540Y37327D01*
X442549Y37334D01*
X442720Y37509D01*
X452526Y49362D01*
X452532Y49372D01*
X452540Y49380D01*
X452678Y49583D01*
X460257Y62969D01*
X460275Y63011D01*
X460345Y63150D01*
X463224Y70291D01*
X463231Y70316D01*
X463247Y70353D01*
X463407Y70804D01*
X475328Y104583D01*
X476152Y106917D01*
X479408Y116142D01*
X489049Y133167D01*
X501520Y148242D01*
X516437Y160902D01*
X533340Y170755D01*
X551706Y177498D01*
X570969Y180923D01*
X989031Y180923D01*
X1008294Y177498D01*
X1026660Y170755D01*
X1043563Y160902D01*
X1058480Y148242D01*
X1070951Y133167D01*
X1080592Y116142D01*
X1083848Y106917D01*
X1084672Y104583D01*
X1096403Y71343D01*
X1096753Y70353D01*
X1096764Y70330D01*
X1096776Y70291D01*
X1099655Y63150D01*
X1099677Y63110D01*
X1099743Y62969D01*
X1107322Y49583D01*
X1107329Y49573D01*
X1107334Y49563D01*
X1107474Y49362D01*
X1117280Y37509D01*
X1117288Y37501D01*
X1117295Y37492D01*
X1117468Y37319D01*
X1129197Y27365D01*
X1129207Y27358D01*
X1129215Y27350D01*
X1129416Y27210D01*
X1142706Y19463D01*
X1142716Y19458D01*
X1142726Y19451D01*
X1142948Y19349D01*
X1157389Y14047D01*
X1157400Y14044D01*
X1157411Y14039D01*
X1157647Y13977D01*
X1172793Y11285D01*
X1172839Y11282D01*
X1172993Y11263D01*
X1180685Y10924D01*
X1180710Y10926D01*
X1180751Y10923D01*
X1444094Y10923D01*
X1444119Y10926D01*
X1444159Y10924D01*
X1451670Y11247D01*
X1451717Y11254D01*
X1451865Y11268D01*
X1466666Y13836D01*
X1466674Y13838D01*
X1466683Y13839D01*
X1466919Y13902D01*
X1481063Y18963D01*
X1481071Y18967D01*
X1481079Y18969D01*
X1481301Y19072D01*
X1494372Y26475D01*
X1494379Y26480D01*
X1494387Y26484D01*
X1494587Y26623D01*
X1496296Y28025D01*
X1500008Y31071D01*
X1500009Y31071D01*
X1503721Y34118D01*
X1506200Y36152D01*
X1506206Y36158D01*
X1506213Y36163D01*
X1506388Y36335D01*
X1516201Y47709D01*
X1516205Y47716D01*
X1516212Y47722D01*
X1516354Y47921D01*
X1524078Y60805D01*
X1524082Y60812D01*
X1524087Y60819D01*
X1524193Y61040D01*
X1529601Y75055D01*
X1529603Y75063D01*
X1529607Y75070D01*
X1529674Y75306D01*
X1530444Y79174D01*
X1531354Y83743D01*
X1531354Y83744D01*
X1532263Y88313D01*
X1532607Y90039D01*
X1532607Y90047D01*
X1532610Y90055D01*
X1532636Y90298D01*
X1533007Y105316D01*
X1533002Y105363D01*
X1533002Y105379D01*
X1533005Y105416D01*
X1533000Y105448D01*
X1532999Y105512D01*
X1532217Y112989D01*
X1532212Y113014D01*
X1532209Y113054D01*
X1532152Y113444D01*
X1531847Y115503D01*
X1441839Y723054D01*
X1441832Y723080D01*
X1441827Y723121D01*
X1440345Y730767D01*
X1440331Y730809D01*
X1440293Y730963D01*
X1435323Y745709D01*
X1435318Y745721D01*
X1435315Y745734D01*
X1435214Y745957D01*
X1427713Y759591D01*
X1427705Y759601D01*
X1427700Y759614D01*
X1427562Y759815D01*
X1417766Y771906D01*
X1417756Y771915D01*
X1417749Y771926D01*
X1417577Y772100D01*
X1405795Y782265D01*
X1405784Y782272D01*
X1405775Y782282D01*
X1405575Y782423D01*
X1392180Y790342D01*
X1392168Y790347D01*
X1392157Y790355D01*
X1391935Y790458D01*
X1377350Y795881D01*
X1377337Y795884D01*
X1377325Y795890D01*
X1377089Y795952D01*
X1361774Y798707D01*
X1361729Y798710D01*
X1361572Y798729D01*
X1353791Y799076D01*
X1353765Y799074D01*
X1353723Y799077D01*
X224199Y799077D01*
X224173Y799074D01*
X224132Y799076D01*
X216483Y798741D01*
X216437Y798734D01*
X216284Y798719D01*
X201219Y796056D01*
X201209Y796053D01*
X201198Y796052D01*
X200962Y795987D01*
X186591Y790743D01*
X186581Y790738D01*
X186570Y790735D01*
X186457Y790681D01*
X186424Y790669D01*
X186402Y790655D01*
X186350Y790630D01*
X173110Y782964D01*
X173102Y782957D01*
X173092Y782953D01*
X172893Y782811D01*
X161190Y772957D01*
X161182Y772949D01*
X161173Y772943D01*
X161002Y772769D01*
X151193Y761029D01*
X151187Y761020D01*
X151179Y761012D01*
X151041Y760810D01*
X143425Y747542D01*
X143421Y747532D01*
X143415Y747523D01*
X143313Y747300D01*
X138124Y732909D01*
X138113Y732864D01*
X138068Y732717D01*
X136436Y725237D01*
X136433Y725211D01*
X136423Y725171D01*
X136028Y722885D01*
X136001Y722732D01*
X31412Y117611D01*
X31280Y116843D01*
X31280Y116842D01*
X30991Y115171D01*
X30989Y115145D01*
X30981Y115105D01*
X30011Y107544D01*
X30010Y107498D01*
X29998Y107346D01*
X30045Y92114D01*
X30046Y92103D01*
X30045Y92093D01*
X30069Y91850D01*
X32754Y76856D01*
X32757Y76846D01*
X32758Y76836D01*
X32824Y76600D01*
X38067Y62299D01*
X38072Y62290D01*
X38074Y62280D01*
X38180Y62059D01*
X45823Y48883D01*
X45829Y48875D01*
X45833Y48866D01*
X45975Y48667D01*
X55786Y37015D01*
X55793Y37008D01*
X55799Y36999D01*
X55973Y36828D01*
X67655Y27052D01*
X67664Y27047D01*
X67671Y27039D01*
X67872Y26901D01*
X81072Y19298D01*
X81081Y19294D01*
X81089Y19288D01*
X81312Y19186D01*
X95629Y13986D01*
X95639Y13984D01*
X95648Y13979D01*
X95885Y13918D01*
X110887Y11278D01*
X110933Y11275D01*
X111084Y11256D01*
X118700Y10924D01*
X118726Y10926D01*
X118767Y10923D01*
X181054Y10923D01*
X181104Y10928D01*
G37*
G36*
X225678Y59317D02*
X225678Y59317D01*
X225752Y59318D01*
X225849Y59342D01*
X225949Y59357D01*
X226018Y59385D01*
X226090Y59403D01*
X226179Y59449D01*
X226273Y59486D01*
X226334Y59528D01*
X226400Y59563D01*
X226476Y59628D01*
X226559Y59685D01*
X226609Y59740D01*
X226665Y59788D01*
X226725Y59869D01*
X226792Y59944D01*
X226828Y60009D01*
X226873Y60069D01*
X226912Y60161D01*
X226961Y60249D01*
X226981Y60320D01*
X227011Y60389D01*
X227028Y60487D01*
X227056Y60584D01*
X227064Y60684D01*
X227072Y60732D01*
X227070Y60767D01*
X227075Y60828D01*
X227075Y177584D01*
X228854Y181879D01*
X406969Y359994D01*
X407048Y360093D01*
X407132Y360187D01*
X407156Y360229D01*
X407186Y360267D01*
X407240Y360381D01*
X407301Y360492D01*
X407314Y360538D01*
X407335Y360582D01*
X407361Y360705D01*
X407396Y360827D01*
X407401Y360888D01*
X407408Y360923D01*
X407407Y360971D01*
X407415Y361071D01*
X407415Y487464D01*
X409194Y491759D01*
X444352Y526916D01*
X444368Y526937D01*
X444388Y526954D01*
X444476Y527073D01*
X444568Y527189D01*
X444579Y527213D01*
X444595Y527234D01*
X444654Y527370D01*
X444717Y527504D01*
X444723Y527530D01*
X444733Y527554D01*
X444759Y527700D01*
X444790Y527845D01*
X444790Y527871D01*
X444795Y527897D01*
X444787Y528046D01*
X444784Y528194D01*
X444778Y528219D01*
X444777Y528245D01*
X444736Y528388D01*
X444699Y528532D01*
X444687Y528555D01*
X444680Y528580D01*
X444608Y528709D01*
X444540Y528841D01*
X444523Y528861D01*
X444510Y528884D01*
X444352Y529070D01*
X440300Y533122D01*
X438177Y538247D01*
X438177Y543793D01*
X440319Y548965D01*
X440320Y548967D01*
X440321Y548968D01*
X440367Y549130D01*
X440415Y549300D01*
X440415Y549302D01*
X440416Y549304D01*
X440435Y549548D01*
X440435Y715889D01*
X440421Y716015D01*
X440414Y716141D01*
X440401Y716187D01*
X440395Y716235D01*
X440353Y716354D01*
X440318Y716476D01*
X440294Y716518D01*
X440278Y716563D01*
X440209Y716670D01*
X440148Y716780D01*
X440108Y716826D01*
X440089Y716856D01*
X440054Y716890D01*
X439989Y716966D01*
X417246Y739709D01*
X417147Y739788D01*
X417053Y739872D01*
X417011Y739896D01*
X416973Y739926D01*
X416859Y739980D01*
X416748Y740041D01*
X416702Y740054D01*
X416658Y740075D01*
X416535Y740101D01*
X416413Y740136D01*
X416352Y740141D01*
X416317Y740148D01*
X416269Y740147D01*
X416169Y740155D01*
X360928Y740155D01*
X360902Y740152D01*
X360876Y740154D01*
X360729Y740132D01*
X360582Y740115D01*
X360557Y740107D01*
X360531Y740103D01*
X360393Y740048D01*
X360254Y739998D01*
X360232Y739984D01*
X360207Y739974D01*
X360086Y739889D01*
X359961Y739809D01*
X359943Y739790D01*
X359921Y739775D01*
X359822Y739665D01*
X359719Y739558D01*
X359705Y739536D01*
X359688Y739516D01*
X359616Y739386D01*
X359540Y739259D01*
X359532Y739234D01*
X359519Y739211D01*
X359479Y739068D01*
X359434Y738927D01*
X359432Y738901D01*
X359424Y738876D01*
X359405Y738632D01*
X359405Y692873D01*
X359422Y692723D01*
X359435Y692573D01*
X359442Y692550D01*
X359445Y692527D01*
X359495Y692385D01*
X359542Y692241D01*
X359554Y692221D01*
X359562Y692199D01*
X359644Y692072D01*
X359722Y691942D01*
X359738Y691926D01*
X359751Y691906D01*
X359860Y691801D01*
X359965Y691693D01*
X359988Y691677D01*
X360002Y691664D01*
X360042Y691640D01*
X360166Y691554D01*
X363200Y689803D01*
X366709Y686293D01*
X366729Y686277D01*
X366746Y686257D01*
X366866Y686169D01*
X366982Y686077D01*
X367006Y686065D01*
X367027Y686050D01*
X367163Y685991D01*
X367297Y685928D01*
X367323Y685922D01*
X367347Y685912D01*
X367493Y685886D01*
X367638Y685854D01*
X367664Y685855D01*
X367690Y685850D01*
X367838Y685858D01*
X367986Y685860D01*
X368012Y685867D01*
X368038Y685868D01*
X368180Y685909D01*
X368324Y685945D01*
X368347Y685957D01*
X368373Y685965D01*
X368502Y686037D01*
X368634Y686105D01*
X368654Y686122D01*
X368677Y686135D01*
X368863Y686293D01*
X372372Y689803D01*
X378121Y693122D01*
X384533Y694840D01*
X391171Y694840D01*
X397583Y693122D01*
X403332Y689803D01*
X408025Y685109D01*
X411344Y679360D01*
X413062Y672949D01*
X413062Y636211D01*
X411344Y629800D01*
X408025Y624051D01*
X403332Y619357D01*
X400333Y617626D01*
X400198Y617526D01*
X400064Y617429D01*
X400059Y617423D01*
X400053Y617419D01*
X399945Y617290D01*
X399836Y617165D01*
X399833Y617158D01*
X399828Y617153D01*
X399752Y617005D01*
X399674Y616856D01*
X399672Y616849D01*
X399669Y616843D01*
X399628Y616679D01*
X399586Y616519D01*
X399586Y616510D01*
X399584Y616505D01*
X399584Y616479D01*
X399572Y616275D01*
X399585Y615680D01*
X399556Y615581D01*
X399555Y615564D01*
X399552Y615553D01*
X399552Y615531D01*
X398701Y613477D01*
X398697Y613464D01*
X398689Y613447D01*
X397873Y611353D01*
X397809Y611272D01*
X397801Y611257D01*
X397794Y611248D01*
X397785Y611228D01*
X396213Y609656D01*
X396205Y609645D01*
X396190Y609633D01*
X323048Y533333D01*
X322982Y533245D01*
X322908Y533164D01*
X322876Y533107D01*
X322838Y533056D01*
X322793Y532955D01*
X322739Y532858D01*
X322722Y532796D01*
X322695Y532738D01*
X322674Y532629D01*
X322644Y532523D01*
X322638Y532439D01*
X322629Y532396D01*
X322631Y532354D01*
X322625Y532279D01*
X322625Y491055D01*
X322639Y490930D01*
X322646Y490803D01*
X322659Y490757D01*
X322665Y490709D01*
X322707Y490590D01*
X322742Y490468D01*
X322766Y490426D01*
X322782Y490381D01*
X322851Y490275D01*
X322912Y490164D01*
X322952Y490118D01*
X322971Y490088D01*
X323006Y490054D01*
X323071Y489978D01*
X327705Y485344D01*
X327705Y471456D01*
X317884Y461635D01*
X303996Y461635D01*
X296997Y468634D01*
X296977Y468650D01*
X296960Y468670D01*
X296840Y468759D01*
X296724Y468851D01*
X296700Y468862D01*
X296679Y468877D01*
X296543Y468936D01*
X296409Y469000D01*
X296383Y469005D01*
X296359Y469015D01*
X296213Y469042D01*
X296068Y469073D01*
X296042Y469072D01*
X296016Y469077D01*
X295868Y469069D01*
X295720Y469067D01*
X295694Y469061D01*
X295668Y469059D01*
X295526Y469018D01*
X295382Y468982D01*
X295359Y468970D01*
X295333Y468963D01*
X295204Y468890D01*
X295072Y468822D01*
X295052Y468805D01*
X295029Y468793D01*
X294843Y468634D01*
X287824Y461615D01*
X273936Y461615D01*
X264115Y471436D01*
X264115Y485324D01*
X273936Y495145D01*
X280372Y495145D01*
X280398Y495148D01*
X280424Y495146D01*
X280571Y495168D01*
X280718Y495185D01*
X280743Y495193D01*
X280769Y495197D01*
X280907Y495252D01*
X281046Y495302D01*
X281068Y495316D01*
X281093Y495326D01*
X281214Y495411D01*
X281339Y495491D01*
X281357Y495510D01*
X281379Y495525D01*
X281478Y495635D01*
X281581Y495742D01*
X281595Y495764D01*
X281612Y495784D01*
X281684Y495914D01*
X281760Y496041D01*
X281768Y496066D01*
X281781Y496089D01*
X281821Y496232D01*
X281866Y496373D01*
X281868Y496399D01*
X281876Y496424D01*
X281895Y496668D01*
X281895Y542284D01*
X283674Y546579D01*
X295209Y558114D01*
X295288Y558213D01*
X295372Y558307D01*
X295396Y558349D01*
X295426Y558387D01*
X295480Y558501D01*
X295541Y558612D01*
X295554Y558658D01*
X295575Y558702D01*
X295601Y558825D01*
X295636Y558947D01*
X295641Y559008D01*
X295648Y559043D01*
X295647Y559091D01*
X295655Y559191D01*
X295655Y562972D01*
X295655Y562974D01*
X295655Y562976D01*
X295634Y563153D01*
X295615Y563319D01*
X295615Y563320D01*
X295614Y563323D01*
X295539Y563555D01*
X293397Y568727D01*
X293397Y574273D01*
X295520Y579398D01*
X299442Y583320D01*
X304567Y585443D01*
X310113Y585443D01*
X315238Y583320D01*
X319160Y579398D01*
X321283Y574273D01*
X321283Y569052D01*
X321296Y568936D01*
X321301Y568820D01*
X321316Y568764D01*
X321323Y568706D01*
X321362Y568596D01*
X321393Y568484D01*
X321420Y568433D01*
X321440Y568378D01*
X321503Y568280D01*
X321559Y568177D01*
X321598Y568134D01*
X321629Y568085D01*
X321713Y568004D01*
X321790Y567917D01*
X321838Y567883D01*
X321880Y567843D01*
X321980Y567783D01*
X322075Y567716D01*
X322129Y567694D01*
X322179Y567664D01*
X322290Y567628D01*
X322398Y567584D01*
X322455Y567575D01*
X322511Y567558D01*
X322627Y567548D01*
X322742Y567530D01*
X322800Y567534D01*
X322858Y567530D01*
X322973Y567547D01*
X323089Y567555D01*
X323145Y567573D01*
X323203Y567581D01*
X323311Y567624D01*
X323422Y567659D01*
X323472Y567688D01*
X323527Y567710D01*
X323622Y567777D01*
X323723Y567835D01*
X323779Y567885D01*
X323813Y567909D01*
X323843Y567942D01*
X323906Y567998D01*
X371732Y617889D01*
X371738Y617897D01*
X371746Y617904D01*
X371844Y618036D01*
X371943Y618166D01*
X371947Y618176D01*
X371953Y618184D01*
X372019Y618336D01*
X372085Y618485D01*
X372087Y618495D01*
X372091Y618504D01*
X372120Y618666D01*
X372151Y618827D01*
X372151Y618837D01*
X372153Y618847D01*
X372144Y619011D01*
X372138Y619175D01*
X372135Y619185D01*
X372135Y619195D01*
X372089Y619352D01*
X372046Y619511D01*
X372041Y619520D01*
X372038Y619530D01*
X371959Y619672D01*
X371880Y619818D01*
X371873Y619825D01*
X371868Y619834D01*
X371710Y620020D01*
X368863Y622867D01*
X368843Y622883D01*
X368826Y622903D01*
X368718Y622982D01*
X368714Y622986D01*
X368710Y622988D01*
X368706Y622991D01*
X368590Y623083D01*
X368566Y623095D01*
X368545Y623110D01*
X368409Y623169D01*
X368275Y623232D01*
X368249Y623238D01*
X368225Y623248D01*
X368079Y623274D01*
X367934Y623306D01*
X367908Y623305D01*
X367882Y623310D01*
X367734Y623302D01*
X367586Y623300D01*
X367560Y623293D01*
X367534Y623292D01*
X367392Y623251D01*
X367248Y623215D01*
X367225Y623203D01*
X367199Y623195D01*
X367070Y623123D01*
X366938Y623055D01*
X366918Y623038D01*
X366895Y623025D01*
X366709Y622867D01*
X363200Y619357D01*
X357451Y616038D01*
X355458Y615504D01*
X355363Y615467D01*
X355265Y615439D01*
X355201Y615403D01*
X355133Y615376D01*
X355050Y615318D01*
X354961Y615268D01*
X354886Y615205D01*
X354847Y615178D01*
X354822Y615151D01*
X354775Y615110D01*
X336819Y597154D01*
X332524Y595375D01*
X256931Y595375D01*
X256805Y595361D01*
X256679Y595354D01*
X256633Y595341D01*
X256585Y595335D01*
X256466Y595293D01*
X256344Y595258D01*
X256302Y595234D01*
X256257Y595218D01*
X256150Y595149D01*
X256040Y595088D01*
X255994Y595048D01*
X255964Y595029D01*
X255930Y594994D01*
X255854Y594929D01*
X249971Y589046D01*
X249892Y588947D01*
X249808Y588853D01*
X249784Y588811D01*
X249754Y588773D01*
X249700Y588659D01*
X249639Y588548D01*
X249626Y588502D01*
X249605Y588458D01*
X249579Y588335D01*
X249544Y588213D01*
X249539Y588152D01*
X249532Y588117D01*
X249533Y588069D01*
X249525Y587969D01*
X249525Y587252D01*
X249539Y587126D01*
X249546Y587000D01*
X249559Y586954D01*
X249565Y586906D01*
X249607Y586787D01*
X249642Y586665D01*
X249666Y586623D01*
X249682Y586578D01*
X249751Y586471D01*
X249812Y586361D01*
X249852Y586315D01*
X249871Y586285D01*
X249906Y586251D01*
X249971Y586175D01*
X252914Y583232D01*
X253807Y581075D01*
X253880Y580944D01*
X253949Y580810D01*
X253965Y580792D01*
X253976Y580771D01*
X254077Y580659D01*
X254175Y580545D01*
X254194Y580530D01*
X254211Y580512D01*
X254334Y580427D01*
X254455Y580338D01*
X254477Y580328D01*
X254497Y580314D01*
X254637Y580259D01*
X254775Y580200D01*
X254799Y580195D01*
X254822Y580186D01*
X254970Y580165D01*
X255118Y580138D01*
X255142Y580139D01*
X255166Y580136D01*
X255316Y580148D01*
X255466Y580156D01*
X255489Y580163D01*
X255514Y580165D01*
X255657Y580211D01*
X255801Y580252D01*
X255822Y580264D01*
X255845Y580272D01*
X255974Y580349D01*
X256105Y580423D01*
X256127Y580441D01*
X256144Y580451D01*
X256178Y580484D01*
X256292Y580581D01*
X256621Y580910D01*
X257915Y581850D01*
X259340Y582576D01*
X260701Y583019D01*
X260701Y566556D01*
X260704Y566530D01*
X260702Y566504D01*
X260724Y566357D01*
X260741Y566210D01*
X260749Y566185D01*
X260753Y566159D01*
X260808Y566022D01*
X260858Y565882D01*
X260872Y565860D01*
X260882Y565835D01*
X260967Y565714D01*
X261047Y565589D01*
X261066Y565571D01*
X261081Y565549D01*
X261097Y565535D01*
X261015Y565450D01*
X261001Y565427D01*
X260984Y565408D01*
X260912Y565278D01*
X260836Y565151D01*
X260828Y565126D01*
X260815Y565103D01*
X260775Y564960D01*
X260730Y564819D01*
X260727Y564793D01*
X260720Y564768D01*
X260701Y564524D01*
X260701Y548061D01*
X259340Y548504D01*
X257915Y549230D01*
X256621Y550170D01*
X256292Y550499D01*
X256174Y550592D01*
X256059Y550690D01*
X256037Y550701D01*
X256019Y550716D01*
X255882Y550780D01*
X255749Y550848D01*
X255725Y550854D01*
X255703Y550865D01*
X255556Y550896D01*
X255411Y550932D01*
X255386Y550933D01*
X255363Y550938D01*
X255213Y550935D01*
X255062Y550938D01*
X255038Y550932D01*
X255014Y550932D01*
X254869Y550895D01*
X254722Y550863D01*
X254700Y550853D01*
X254676Y550847D01*
X254542Y550778D01*
X254407Y550713D01*
X254388Y550698D01*
X254366Y550687D01*
X254252Y550590D01*
X254134Y550496D01*
X254120Y550477D01*
X254101Y550461D01*
X254012Y550340D01*
X253919Y550223D01*
X253905Y550197D01*
X253894Y550181D01*
X253875Y550138D01*
X253807Y550005D01*
X252914Y547848D01*
X247912Y542846D01*
X241377Y540139D01*
X234303Y540139D01*
X227768Y542846D01*
X226217Y544397D01*
X226197Y544413D01*
X226180Y544433D01*
X226060Y544522D01*
X225944Y544614D01*
X225920Y544625D01*
X225899Y544641D01*
X225763Y544699D01*
X225629Y544763D01*
X225603Y544768D01*
X225579Y544779D01*
X225433Y544805D01*
X225288Y544836D01*
X225262Y544836D01*
X225236Y544840D01*
X225088Y544833D01*
X224940Y544830D01*
X224914Y544824D01*
X224888Y544822D01*
X224746Y544781D01*
X224602Y544745D01*
X224579Y544733D01*
X224553Y544726D01*
X224424Y544653D01*
X224292Y544585D01*
X224272Y544568D01*
X224249Y544556D01*
X224063Y544397D01*
X222512Y542846D01*
X215977Y540139D01*
X208903Y540139D01*
X202368Y542846D01*
X200817Y544397D01*
X200797Y544413D01*
X200780Y544433D01*
X200660Y544522D01*
X200544Y544614D01*
X200520Y544625D01*
X200499Y544641D01*
X200363Y544699D01*
X200229Y544763D01*
X200203Y544768D01*
X200179Y544779D01*
X200033Y544805D01*
X199888Y544836D01*
X199862Y544836D01*
X199836Y544840D01*
X199688Y544833D01*
X199540Y544830D01*
X199514Y544824D01*
X199488Y544822D01*
X199346Y544781D01*
X199202Y544745D01*
X199179Y544733D01*
X199153Y544726D01*
X199024Y544653D01*
X198892Y544585D01*
X198872Y544568D01*
X198849Y544556D01*
X198663Y544397D01*
X197112Y542846D01*
X190577Y540139D01*
X183503Y540139D01*
X176968Y542846D01*
X174305Y545509D01*
X174227Y545572D01*
X174154Y545641D01*
X174090Y545680D01*
X174032Y545726D01*
X173941Y545769D01*
X173855Y545820D01*
X173784Y545843D01*
X173717Y545875D01*
X173619Y545896D01*
X173523Y545926D01*
X173449Y545932D01*
X173376Y545948D01*
X173276Y545946D01*
X173176Y545954D01*
X173102Y545943D01*
X173028Y545942D01*
X172931Y545918D01*
X172831Y545903D01*
X172762Y545875D01*
X172690Y545857D01*
X172601Y545811D01*
X172507Y545774D01*
X172446Y545732D01*
X172380Y545697D01*
X172304Y545632D01*
X172221Y545575D01*
X172171Y545520D01*
X172115Y545472D01*
X172055Y545391D01*
X171988Y545316D01*
X171952Y545251D01*
X171907Y545191D01*
X171868Y545099D01*
X171819Y545011D01*
X171799Y544940D01*
X171769Y544871D01*
X171752Y544773D01*
X171724Y544676D01*
X171716Y544576D01*
X171708Y544528D01*
X171710Y544493D01*
X171705Y544432D01*
X171705Y536331D01*
X171719Y536205D01*
X171726Y536079D01*
X171739Y536033D01*
X171745Y535985D01*
X171787Y535866D01*
X171822Y535744D01*
X171846Y535702D01*
X171862Y535657D01*
X171931Y535550D01*
X171992Y535440D01*
X172032Y535394D01*
X172051Y535364D01*
X172086Y535330D01*
X172151Y535254D01*
X197866Y509539D01*
X199645Y505244D01*
X199645Y489048D01*
X199648Y489022D01*
X199646Y488996D01*
X199668Y488849D01*
X199685Y488702D01*
X199693Y488677D01*
X199697Y488651D01*
X199752Y488513D01*
X199802Y488374D01*
X199816Y488352D01*
X199826Y488327D01*
X199911Y488206D01*
X199991Y488081D01*
X200010Y488063D01*
X200025Y488041D01*
X200135Y487942D01*
X200242Y487839D01*
X200264Y487825D01*
X200284Y487808D01*
X200414Y487736D01*
X200541Y487660D01*
X200566Y487652D01*
X200589Y487639D01*
X200732Y487599D01*
X200873Y487554D01*
X200899Y487552D01*
X200924Y487544D01*
X201168Y487525D01*
X202649Y487525D01*
X202649Y478888D01*
X202652Y478862D01*
X202650Y478836D01*
X202672Y478689D01*
X202689Y478542D01*
X202697Y478517D01*
X202701Y478491D01*
X202744Y478384D01*
X202723Y478308D01*
X202678Y478167D01*
X202675Y478141D01*
X202668Y478116D01*
X202649Y477872D01*
X202649Y469235D01*
X201168Y469235D01*
X201142Y469232D01*
X201116Y469234D01*
X200969Y469212D01*
X200822Y469195D01*
X200797Y469187D01*
X200771Y469183D01*
X200633Y469128D01*
X200494Y469078D01*
X200472Y469064D01*
X200447Y469054D01*
X200326Y468969D01*
X200201Y468889D01*
X200183Y468870D01*
X200161Y468855D01*
X200062Y468745D01*
X199959Y468638D01*
X199945Y468616D01*
X199928Y468596D01*
X199856Y468466D01*
X199780Y468339D01*
X199772Y468314D01*
X199759Y468291D01*
X199719Y468148D01*
X199674Y468007D01*
X199672Y467981D01*
X199664Y467956D01*
X199645Y467712D01*
X199645Y60828D01*
X199656Y60728D01*
X199658Y60628D01*
X199676Y60556D01*
X199685Y60482D01*
X199718Y60387D01*
X199743Y60290D01*
X199777Y60224D01*
X199802Y60154D01*
X199857Y60069D01*
X199903Y59980D01*
X199951Y59923D01*
X199991Y59861D01*
X200063Y59791D01*
X200128Y59715D01*
X200188Y59670D01*
X200242Y59619D01*
X200328Y59567D01*
X200409Y59507D01*
X200477Y59478D01*
X200541Y59440D01*
X200637Y59409D01*
X200729Y59369D01*
X200802Y59356D01*
X200873Y59334D01*
X200973Y59325D01*
X201072Y59308D01*
X201146Y59312D01*
X201220Y59306D01*
X201320Y59320D01*
X201420Y59326D01*
X201491Y59346D01*
X201565Y59357D01*
X201658Y59394D01*
X201755Y59422D01*
X201820Y59459D01*
X201889Y59486D01*
X201971Y59543D01*
X202059Y59592D01*
X202135Y59658D01*
X202175Y59685D01*
X202199Y59711D01*
X202245Y59751D01*
X203288Y60794D01*
X209823Y63501D01*
X216897Y63501D01*
X223432Y60794D01*
X224475Y59751D01*
X224554Y59688D01*
X224626Y59619D01*
X224690Y59580D01*
X224748Y59534D01*
X224839Y59491D01*
X224925Y59440D01*
X224996Y59417D01*
X225063Y59385D01*
X225161Y59364D01*
X225257Y59334D01*
X225331Y59328D01*
X225404Y59312D01*
X225504Y59314D01*
X225604Y59306D01*
X225678Y59317D01*
G37*
G36*
X1028435Y237759D02*
X1028435Y237759D01*
X1028561Y237766D01*
X1028607Y237779D01*
X1028655Y237785D01*
X1028774Y237827D01*
X1028896Y237862D01*
X1028938Y237886D01*
X1028983Y237902D01*
X1029090Y237971D01*
X1029200Y238032D01*
X1029246Y238072D01*
X1029276Y238091D01*
X1029310Y238126D01*
X1029386Y238191D01*
X1036889Y245694D01*
X1036968Y245793D01*
X1037052Y245887D01*
X1037076Y245929D01*
X1037106Y245967D01*
X1037160Y246081D01*
X1037221Y246192D01*
X1037234Y246238D01*
X1037255Y246282D01*
X1037281Y246405D01*
X1037316Y246527D01*
X1037321Y246588D01*
X1037328Y246623D01*
X1037327Y246671D01*
X1037335Y246771D01*
X1037335Y299329D01*
X1037321Y299455D01*
X1037314Y299581D01*
X1037301Y299627D01*
X1037295Y299675D01*
X1037253Y299794D01*
X1037218Y299916D01*
X1037194Y299958D01*
X1037178Y300003D01*
X1037109Y300110D01*
X1037048Y300220D01*
X1037008Y300266D01*
X1036989Y300296D01*
X1036954Y300330D01*
X1036889Y300406D01*
X1024986Y312309D01*
X1024887Y312388D01*
X1024793Y312472D01*
X1024751Y312496D01*
X1024713Y312526D01*
X1024599Y312580D01*
X1024488Y312641D01*
X1024442Y312654D01*
X1024398Y312675D01*
X1024275Y312701D01*
X1024153Y312736D01*
X1024092Y312741D01*
X1024057Y312748D01*
X1024009Y312747D01*
X1023909Y312755D01*
X1022568Y312755D01*
X1022468Y312744D01*
X1022368Y312742D01*
X1022296Y312724D01*
X1022222Y312715D01*
X1022127Y312682D01*
X1022030Y312657D01*
X1021964Y312623D01*
X1021894Y312598D01*
X1021809Y312543D01*
X1021720Y312497D01*
X1021663Y312449D01*
X1021601Y312409D01*
X1021531Y312337D01*
X1021455Y312272D01*
X1021410Y312212D01*
X1021359Y312158D01*
X1021307Y312072D01*
X1021247Y311991D01*
X1021218Y311923D01*
X1021180Y311859D01*
X1021149Y311763D01*
X1021109Y311671D01*
X1021096Y311598D01*
X1021074Y311527D01*
X1021065Y311427D01*
X1021048Y311328D01*
X1021052Y311254D01*
X1021046Y311180D01*
X1021060Y311080D01*
X1021066Y310980D01*
X1021086Y310909D01*
X1021097Y310835D01*
X1021134Y310742D01*
X1021162Y310645D01*
X1021199Y310580D01*
X1021226Y310511D01*
X1021283Y310429D01*
X1021332Y310341D01*
X1021398Y310265D01*
X1021425Y310225D01*
X1021451Y310201D01*
X1021491Y310155D01*
X1022534Y309112D01*
X1025241Y302577D01*
X1025241Y295503D01*
X1022534Y288968D01*
X1020983Y287417D01*
X1020967Y287397D01*
X1020947Y287380D01*
X1020858Y287260D01*
X1020766Y287144D01*
X1020755Y287120D01*
X1020739Y287099D01*
X1020681Y286963D01*
X1020617Y286829D01*
X1020612Y286803D01*
X1020601Y286779D01*
X1020575Y286633D01*
X1020544Y286488D01*
X1020544Y286462D01*
X1020540Y286436D01*
X1020547Y286288D01*
X1020550Y286140D01*
X1020556Y286114D01*
X1020558Y286088D01*
X1020599Y285946D01*
X1020635Y285802D01*
X1020647Y285779D01*
X1020654Y285753D01*
X1020727Y285624D01*
X1020795Y285492D01*
X1020812Y285472D01*
X1020824Y285449D01*
X1020983Y285263D01*
X1022534Y283712D01*
X1025241Y277177D01*
X1025241Y270103D01*
X1022534Y263568D01*
X1017532Y258566D01*
X1010997Y255859D01*
X988683Y255859D01*
X982148Y258566D01*
X979205Y261509D01*
X979106Y261588D01*
X979012Y261672D01*
X978970Y261696D01*
X978932Y261726D01*
X978818Y261780D01*
X978707Y261841D01*
X978661Y261854D01*
X978617Y261875D01*
X978494Y261901D01*
X978372Y261936D01*
X978311Y261941D01*
X978276Y261948D01*
X978228Y261947D01*
X978128Y261955D01*
X961016Y261955D01*
X956721Y263734D01*
X884174Y336281D01*
X882395Y340576D01*
X882395Y419580D01*
X882384Y419680D01*
X882382Y419780D01*
X882364Y419852D01*
X882355Y419926D01*
X882321Y420021D01*
X882297Y420118D01*
X882263Y420184D01*
X882238Y420254D01*
X882183Y420339D01*
X882137Y420428D01*
X882089Y420484D01*
X882049Y420547D01*
X881977Y420617D01*
X881912Y420693D01*
X881852Y420737D01*
X881798Y420789D01*
X881712Y420841D01*
X881631Y420900D01*
X881563Y420930D01*
X881499Y420968D01*
X881404Y420999D01*
X881311Y421038D01*
X881238Y421052D01*
X881167Y421074D01*
X881067Y421082D01*
X880968Y421100D01*
X880894Y421096D01*
X880820Y421102D01*
X880720Y421087D01*
X880620Y421082D01*
X880549Y421062D01*
X880475Y421050D01*
X880382Y421013D01*
X880285Y420986D01*
X880220Y420949D01*
X880151Y420922D01*
X880069Y420864D01*
X879981Y420815D01*
X879905Y420750D01*
X879865Y420723D01*
X879841Y420696D01*
X879795Y420657D01*
X879118Y419980D01*
X873993Y417857D01*
X868447Y417857D01*
X863275Y419999D01*
X863273Y420000D01*
X863272Y420001D01*
X863110Y420047D01*
X862940Y420095D01*
X862938Y420095D01*
X862936Y420096D01*
X862692Y420115D01*
X780688Y420115D01*
X780686Y420115D01*
X780684Y420115D01*
X780507Y420094D01*
X780341Y420075D01*
X780340Y420075D01*
X780337Y420074D01*
X780105Y419999D01*
X774933Y417857D01*
X769387Y417857D01*
X764262Y419980D01*
X763585Y420657D01*
X763506Y420719D01*
X763434Y420789D01*
X763370Y420827D01*
X763312Y420874D01*
X763221Y420917D01*
X763135Y420968D01*
X763064Y420991D01*
X762997Y421022D01*
X762899Y421044D01*
X762803Y421074D01*
X762729Y421080D01*
X762656Y421096D01*
X762556Y421094D01*
X762456Y421102D01*
X762382Y421091D01*
X762308Y421090D01*
X762211Y421065D01*
X762111Y421050D01*
X762042Y421023D01*
X761970Y421005D01*
X761881Y420959D01*
X761787Y420922D01*
X761726Y420879D01*
X761660Y420845D01*
X761583Y420780D01*
X761501Y420723D01*
X761451Y420668D01*
X761395Y420619D01*
X761335Y420539D01*
X761268Y420464D01*
X761232Y420399D01*
X761187Y420339D01*
X761148Y420247D01*
X761099Y420159D01*
X761079Y420087D01*
X761049Y420019D01*
X761032Y419920D01*
X761004Y419824D01*
X760996Y419724D01*
X760988Y419676D01*
X760990Y419640D01*
X760985Y419580D01*
X760985Y305708D01*
X760985Y305706D01*
X760985Y305704D01*
X761006Y305527D01*
X761025Y305361D01*
X761025Y305360D01*
X761026Y305357D01*
X761101Y305125D01*
X763243Y299953D01*
X763243Y294407D01*
X761120Y289282D01*
X757198Y285360D01*
X752073Y283237D01*
X746527Y283237D01*
X741402Y285360D01*
X737480Y289282D01*
X735357Y294407D01*
X735357Y300230D01*
X735340Y300379D01*
X735328Y300530D01*
X735320Y300553D01*
X735317Y300577D01*
X735267Y300717D01*
X735221Y300861D01*
X735208Y300882D01*
X735200Y300905D01*
X735118Y301031D01*
X735041Y301160D01*
X735024Y301177D01*
X735011Y301197D01*
X734903Y301302D01*
X734798Y301410D01*
X734778Y301423D01*
X734760Y301440D01*
X734631Y301517D01*
X734505Y301598D01*
X734482Y301606D01*
X734461Y301619D01*
X734318Y301664D01*
X734176Y301715D01*
X734152Y301717D01*
X734129Y301725D01*
X733980Y301737D01*
X733830Y301754D01*
X733806Y301751D01*
X733782Y301753D01*
X733633Y301730D01*
X733484Y301713D01*
X733456Y301704D01*
X733437Y301701D01*
X733393Y301683D01*
X733251Y301638D01*
X731753Y301017D01*
X726207Y301017D01*
X721082Y303140D01*
X717160Y307062D01*
X715037Y312187D01*
X715037Y317733D01*
X717179Y322905D01*
X717180Y322907D01*
X717181Y322908D01*
X717227Y323070D01*
X717275Y323240D01*
X717275Y323242D01*
X717276Y323244D01*
X717295Y323488D01*
X717295Y497449D01*
X717281Y497575D01*
X717274Y497701D01*
X717261Y497747D01*
X717255Y497795D01*
X717213Y497914D01*
X717178Y498036D01*
X717154Y498078D01*
X717138Y498123D01*
X717069Y498230D01*
X717008Y498340D01*
X716968Y498386D01*
X716949Y498416D01*
X716914Y498450D01*
X716849Y498526D01*
X681906Y533469D01*
X681807Y533548D01*
X681713Y533632D01*
X681671Y533656D01*
X681633Y533686D01*
X681519Y533740D01*
X681408Y533801D01*
X681362Y533814D01*
X681318Y533835D01*
X681195Y533861D01*
X681073Y533896D01*
X681012Y533901D01*
X680977Y533908D01*
X680929Y533907D01*
X680829Y533915D01*
X657281Y533915D01*
X657181Y533904D01*
X657080Y533902D01*
X657008Y533884D01*
X656934Y533875D01*
X656840Y533842D01*
X656742Y533817D01*
X656676Y533783D01*
X656606Y533758D01*
X656522Y533703D01*
X656433Y533657D01*
X656376Y533609D01*
X656313Y533569D01*
X656244Y533497D01*
X656167Y533432D01*
X656123Y533372D01*
X656071Y533318D01*
X656020Y533232D01*
X655960Y533151D01*
X655931Y533083D01*
X655892Y533019D01*
X655862Y532923D01*
X655822Y532831D01*
X655809Y532758D01*
X655786Y532687D01*
X655778Y532587D01*
X655760Y532488D01*
X655764Y532414D01*
X655758Y532340D01*
X655773Y532240D01*
X655778Y532140D01*
X655799Y532069D01*
X655810Y531995D01*
X655847Y531902D01*
X655875Y531805D01*
X655911Y531740D01*
X655939Y531671D01*
X655996Y531589D01*
X656045Y531501D01*
X656110Y531425D01*
X656138Y531385D01*
X656164Y531361D01*
X656203Y531315D01*
X657858Y529660D01*
X660401Y523522D01*
X660401Y516878D01*
X657858Y510740D01*
X655696Y508577D01*
X655679Y508556D01*
X655659Y508540D01*
X655615Y508479D01*
X655566Y508428D01*
X655529Y508367D01*
X655479Y508304D01*
X655468Y508280D01*
X655452Y508259D01*
X655420Y508186D01*
X655387Y508129D01*
X655366Y508066D01*
X655330Y507989D01*
X655324Y507963D01*
X655314Y507939D01*
X655299Y507855D01*
X655280Y507797D01*
X655276Y507736D01*
X655257Y507648D01*
X655257Y507622D01*
X655252Y507596D01*
X655257Y507506D01*
X655252Y507450D01*
X655261Y507393D01*
X655263Y507300D01*
X655269Y507274D01*
X655270Y507248D01*
X655296Y507158D01*
X655304Y507105D01*
X655324Y507055D01*
X655348Y506962D01*
X655360Y506939D01*
X655367Y506913D01*
X655414Y506829D01*
X655433Y506781D01*
X655462Y506739D01*
X655507Y506652D01*
X655524Y506632D01*
X655537Y506609D01*
X655623Y506508D01*
X655632Y506495D01*
X655641Y506487D01*
X655696Y506423D01*
X657858Y504260D01*
X660401Y498122D01*
X660401Y491478D01*
X657858Y485340D01*
X655696Y483177D01*
X655679Y483156D01*
X655659Y483140D01*
X655571Y483020D01*
X655479Y482904D01*
X655468Y482880D01*
X655452Y482859D01*
X655393Y482723D01*
X655330Y482589D01*
X655324Y482563D01*
X655314Y482539D01*
X655288Y482393D01*
X655257Y482248D01*
X655257Y482222D01*
X655252Y482196D01*
X655260Y482048D01*
X655263Y481900D01*
X655269Y481874D01*
X655270Y481848D01*
X655311Y481705D01*
X655348Y481562D01*
X655360Y481539D01*
X655367Y481513D01*
X655439Y481384D01*
X655507Y481252D01*
X655524Y481232D01*
X655537Y481209D01*
X655696Y481023D01*
X657858Y478860D01*
X660401Y472722D01*
X660401Y466078D01*
X657858Y459940D01*
X653160Y455242D01*
X649633Y453781D01*
X649549Y453734D01*
X649461Y453697D01*
X649397Y453650D01*
X649328Y453611D01*
X649257Y453547D01*
X649180Y453490D01*
X649129Y453430D01*
X649070Y453377D01*
X649016Y453299D01*
X648953Y453226D01*
X648917Y453156D01*
X648872Y453091D01*
X648837Y453001D01*
X648793Y452917D01*
X648773Y452840D01*
X648744Y452766D01*
X648730Y452672D01*
X648706Y452579D01*
X648705Y452500D01*
X648693Y452422D01*
X648701Y452326D01*
X648699Y452231D01*
X648715Y452153D01*
X648722Y452074D01*
X648751Y451983D01*
X648771Y451890D01*
X648805Y451818D01*
X648829Y451743D01*
X648878Y451660D01*
X648919Y451574D01*
X648968Y451512D01*
X649009Y451444D01*
X649076Y451375D01*
X649135Y451300D01*
X649217Y451229D01*
X649252Y451194D01*
X649279Y451176D01*
X649320Y451141D01*
X649616Y450926D01*
X650626Y449916D01*
X651467Y448759D01*
X652115Y447486D01*
X652557Y446126D01*
X652577Y445999D01*
X644176Y445999D01*
X644150Y445996D01*
X644124Y445998D01*
X643977Y445976D01*
X643830Y445959D01*
X643805Y445951D01*
X643779Y445947D01*
X643698Y445914D01*
X643660Y445925D01*
X643519Y445970D01*
X643493Y445972D01*
X643468Y445980D01*
X643224Y445999D01*
X634823Y445999D01*
X634843Y446126D01*
X635285Y447486D01*
X635933Y448759D01*
X636774Y449916D01*
X637784Y450926D01*
X638080Y451141D01*
X638150Y451206D01*
X638227Y451263D01*
X638278Y451323D01*
X638336Y451377D01*
X638390Y451456D01*
X638452Y451529D01*
X638488Y451599D01*
X638533Y451665D01*
X638567Y451754D01*
X638611Y451839D01*
X638630Y451916D01*
X638659Y451990D01*
X638672Y452084D01*
X638695Y452177D01*
X638696Y452256D01*
X638707Y452335D01*
X638699Y452430D01*
X638700Y452526D01*
X638683Y452603D01*
X638676Y452682D01*
X638646Y452773D01*
X638626Y452866D01*
X638592Y452938D01*
X638567Y453013D01*
X638517Y453095D01*
X638476Y453181D01*
X638427Y453243D01*
X638385Y453310D01*
X638318Y453379D01*
X638259Y453453D01*
X638196Y453502D01*
X638141Y453559D01*
X638060Y453610D01*
X637985Y453669D01*
X637888Y453719D01*
X637846Y453745D01*
X637816Y453756D01*
X637767Y453781D01*
X634240Y455242D01*
X629542Y459940D01*
X626999Y466078D01*
X626999Y472722D01*
X629542Y478860D01*
X631704Y481023D01*
X631721Y481043D01*
X631741Y481060D01*
X631829Y481180D01*
X631921Y481296D01*
X631932Y481320D01*
X631948Y481341D01*
X632007Y481477D01*
X632070Y481611D01*
X632076Y481637D01*
X632086Y481661D01*
X632112Y481807D01*
X632143Y481952D01*
X632143Y481978D01*
X632148Y482004D01*
X632140Y482152D01*
X632137Y482300D01*
X632131Y482326D01*
X632130Y482352D01*
X632089Y482494D01*
X632052Y482638D01*
X632040Y482661D01*
X632033Y482687D01*
X631961Y482816D01*
X631893Y482948D01*
X631876Y482968D01*
X631863Y482991D01*
X631704Y483177D01*
X629542Y485340D01*
X626999Y491478D01*
X626999Y498122D01*
X629542Y504260D01*
X631197Y505915D01*
X631259Y505994D01*
X631329Y506066D01*
X631367Y506130D01*
X631413Y506188D01*
X631456Y506279D01*
X631508Y506365D01*
X631530Y506436D01*
X631562Y506503D01*
X631583Y506601D01*
X631614Y506697D01*
X631620Y506771D01*
X631635Y506844D01*
X631634Y506944D01*
X631642Y507044D01*
X631631Y507118D01*
X631629Y507192D01*
X631605Y507289D01*
X631590Y507389D01*
X631563Y507458D01*
X631544Y507530D01*
X631498Y507619D01*
X631461Y507713D01*
X631419Y507774D01*
X631385Y507840D01*
X631320Y507916D01*
X631262Y507999D01*
X631207Y508049D01*
X631159Y508105D01*
X631078Y508165D01*
X631004Y508232D01*
X630939Y508268D01*
X630879Y508313D01*
X630786Y508352D01*
X630699Y508401D01*
X630627Y508421D01*
X630559Y508451D01*
X630460Y508468D01*
X630363Y508496D01*
X630263Y508504D01*
X630216Y508512D01*
X630180Y508510D01*
X630119Y508515D01*
X623016Y508515D01*
X618721Y510294D01*
X615220Y513795D01*
X603565Y525450D01*
X603487Y525513D01*
X603414Y525582D01*
X603350Y525621D01*
X603292Y525667D01*
X603201Y525710D01*
X603115Y525761D01*
X603044Y525784D01*
X602977Y525816D01*
X602879Y525837D01*
X602783Y525867D01*
X602709Y525873D01*
X602636Y525889D01*
X602536Y525887D01*
X602436Y525895D01*
X602362Y525884D01*
X602288Y525883D01*
X602191Y525859D01*
X602091Y525844D01*
X602022Y525816D01*
X601950Y525798D01*
X601860Y525752D01*
X601767Y525715D01*
X601706Y525673D01*
X601640Y525639D01*
X601563Y525573D01*
X601481Y525516D01*
X601431Y525461D01*
X601375Y525413D01*
X601315Y525332D01*
X601248Y525257D01*
X601212Y525192D01*
X601167Y525132D01*
X601128Y525040D01*
X601079Y524952D01*
X601059Y524881D01*
X601029Y524812D01*
X601012Y524714D01*
X600984Y524617D01*
X600976Y524517D01*
X600968Y524469D01*
X600970Y524434D01*
X600965Y524373D01*
X600965Y300111D01*
X600979Y299985D01*
X600986Y299859D01*
X600999Y299813D01*
X601005Y299765D01*
X601047Y299646D01*
X601082Y299524D01*
X601106Y299482D01*
X601122Y299437D01*
X601191Y299330D01*
X601252Y299220D01*
X601292Y299174D01*
X601311Y299144D01*
X601346Y299110D01*
X601411Y299034D01*
X662254Y238191D01*
X662353Y238112D01*
X662447Y238028D01*
X662489Y238004D01*
X662527Y237974D01*
X662641Y237920D01*
X662752Y237859D01*
X662798Y237846D01*
X662842Y237825D01*
X662965Y237799D01*
X663087Y237764D01*
X663148Y237759D01*
X663183Y237752D01*
X663231Y237753D01*
X663331Y237745D01*
X1028309Y237745D01*
X1028435Y237759D01*
G37*
%LPC*%
G36*
X1326331Y59613D02*
X1326331Y59613D01*
X1319796Y62320D01*
X1314794Y67322D01*
X1312087Y73857D01*
X1312087Y80931D01*
X1314794Y87466D01*
X1319796Y92468D01*
X1326331Y95175D01*
X1338113Y95175D01*
X1338239Y95189D01*
X1338365Y95196D01*
X1338411Y95209D01*
X1338459Y95215D01*
X1338578Y95257D01*
X1338700Y95292D01*
X1338742Y95316D01*
X1338787Y95332D01*
X1338894Y95401D01*
X1339004Y95462D01*
X1339050Y95502D01*
X1339080Y95521D01*
X1339114Y95556D01*
X1339190Y95621D01*
X1345794Y102225D01*
X1345857Y102303D01*
X1345926Y102376D01*
X1345965Y102440D01*
X1346011Y102498D01*
X1346054Y102589D01*
X1346105Y102675D01*
X1346128Y102746D01*
X1346160Y102813D01*
X1346181Y102911D01*
X1346211Y103007D01*
X1346217Y103081D01*
X1346233Y103154D01*
X1346231Y103254D01*
X1346239Y103354D01*
X1346228Y103428D01*
X1346227Y103502D01*
X1346203Y103599D01*
X1346188Y103699D01*
X1346160Y103768D01*
X1346142Y103840D01*
X1346096Y103930D01*
X1346059Y104023D01*
X1346017Y104084D01*
X1345983Y104150D01*
X1345917Y104227D01*
X1345860Y104309D01*
X1345805Y104359D01*
X1345757Y104415D01*
X1345676Y104475D01*
X1345601Y104542D01*
X1345536Y104578D01*
X1345476Y104623D01*
X1345384Y104662D01*
X1345296Y104711D01*
X1345225Y104731D01*
X1345156Y104761D01*
X1345058Y104778D01*
X1344961Y104806D01*
X1344861Y104814D01*
X1344813Y104822D01*
X1344778Y104820D01*
X1344717Y104825D01*
X1326331Y104825D01*
X1319796Y107532D01*
X1314794Y112534D01*
X1312087Y119069D01*
X1312087Y126143D01*
X1313262Y128978D01*
X1313283Y129051D01*
X1313313Y129122D01*
X1313330Y129218D01*
X1313357Y129313D01*
X1313361Y129389D01*
X1313375Y129465D01*
X1313369Y129563D01*
X1313374Y129661D01*
X1313361Y129736D01*
X1313357Y129813D01*
X1313329Y129907D01*
X1313312Y130004D01*
X1313281Y130074D01*
X1313260Y130147D01*
X1313212Y130233D01*
X1313173Y130324D01*
X1313127Y130385D01*
X1313090Y130452D01*
X1312993Y130565D01*
X1312965Y130603D01*
X1312950Y130616D01*
X1312931Y130638D01*
X1307694Y135875D01*
X1307595Y135954D01*
X1307501Y136038D01*
X1307459Y136062D01*
X1307421Y136092D01*
X1307307Y136146D01*
X1307196Y136207D01*
X1307150Y136220D01*
X1307106Y136241D01*
X1306983Y136267D01*
X1306861Y136302D01*
X1306800Y136307D01*
X1306765Y136314D01*
X1306717Y136313D01*
X1306617Y136321D01*
X1304940Y136321D01*
X1304791Y136304D01*
X1304641Y136292D01*
X1304618Y136284D01*
X1304594Y136281D01*
X1304453Y136231D01*
X1304310Y136185D01*
X1304289Y136172D01*
X1304266Y136164D01*
X1304139Y136082D01*
X1304011Y136005D01*
X1303994Y135988D01*
X1303973Y135975D01*
X1303869Y135867D01*
X1303761Y135762D01*
X1303748Y135742D01*
X1303731Y135724D01*
X1303654Y135595D01*
X1303573Y135469D01*
X1303565Y135446D01*
X1303552Y135425D01*
X1303506Y135282D01*
X1303456Y135140D01*
X1303453Y135116D01*
X1303446Y135093D01*
X1303434Y134944D01*
X1303417Y134794D01*
X1303420Y134770D01*
X1303418Y134746D01*
X1303440Y134597D01*
X1303458Y134448D01*
X1303467Y134420D01*
X1303470Y134401D01*
X1303487Y134357D01*
X1303533Y134215D01*
X1305013Y130643D01*
X1305013Y123569D01*
X1302306Y117034D01*
X1297304Y112032D01*
X1290769Y109325D01*
X1268455Y109325D01*
X1261920Y112032D01*
X1256918Y117034D01*
X1254211Y123569D01*
X1254211Y130643D01*
X1255691Y134215D01*
X1255732Y134360D01*
X1255778Y134503D01*
X1255780Y134527D01*
X1255787Y134550D01*
X1255794Y134701D01*
X1255806Y134850D01*
X1255802Y134874D01*
X1255804Y134898D01*
X1255777Y135046D01*
X1255754Y135195D01*
X1255745Y135217D01*
X1255741Y135241D01*
X1255681Y135379D01*
X1255626Y135519D01*
X1255612Y135539D01*
X1255602Y135561D01*
X1255512Y135682D01*
X1255427Y135805D01*
X1255409Y135821D01*
X1255394Y135841D01*
X1255279Y135938D01*
X1255168Y136038D01*
X1255147Y136050D01*
X1255128Y136066D01*
X1254995Y136134D01*
X1254863Y136207D01*
X1254839Y136213D01*
X1254818Y136224D01*
X1254673Y136261D01*
X1254527Y136302D01*
X1254498Y136304D01*
X1254480Y136309D01*
X1254433Y136309D01*
X1254284Y136321D01*
X1240959Y136321D01*
X1240833Y136307D01*
X1240707Y136300D01*
X1240661Y136287D01*
X1240613Y136281D01*
X1240494Y136239D01*
X1240372Y136204D01*
X1240330Y136180D01*
X1240285Y136164D01*
X1240178Y136095D01*
X1240068Y136034D01*
X1240022Y135994D01*
X1239992Y135975D01*
X1239958Y135940D01*
X1239882Y135875D01*
X1239461Y135454D01*
X1239414Y135395D01*
X1239359Y135341D01*
X1239306Y135259D01*
X1239245Y135181D01*
X1239212Y135112D01*
X1239171Y135048D01*
X1239138Y134955D01*
X1239096Y134866D01*
X1239080Y134792D01*
X1239054Y134720D01*
X1239043Y134622D01*
X1239022Y134526D01*
X1239024Y134449D01*
X1239015Y134373D01*
X1239027Y134275D01*
X1239028Y134177D01*
X1239047Y134103D01*
X1239056Y134027D01*
X1239102Y133885D01*
X1239113Y133839D01*
X1239122Y133822D01*
X1239131Y133794D01*
X1240939Y129430D01*
X1240939Y124782D01*
X1239160Y120487D01*
X1238610Y119937D01*
X1238608Y119935D01*
X1238607Y119934D01*
X1238504Y119803D01*
X1238393Y119664D01*
X1238392Y119662D01*
X1238391Y119661D01*
X1238280Y119443D01*
X1237282Y117034D01*
X1232280Y112032D01*
X1225745Y109325D01*
X1203431Y109325D01*
X1196896Y112032D01*
X1191894Y117034D01*
X1189187Y123569D01*
X1189187Y130643D01*
X1191894Y137178D01*
X1196896Y142180D01*
X1203431Y144887D01*
X1215213Y144887D01*
X1215339Y144901D01*
X1215465Y144908D01*
X1215511Y144921D01*
X1215559Y144927D01*
X1215678Y144969D01*
X1215800Y145004D01*
X1215842Y145028D01*
X1215887Y145044D01*
X1215994Y145113D01*
X1216104Y145174D01*
X1216150Y145214D01*
X1216180Y145233D01*
X1216214Y145268D01*
X1216290Y145333D01*
X1228869Y157912D01*
X1233164Y159691D01*
X1314412Y159691D01*
X1318707Y157912D01*
X1335786Y140833D01*
X1335885Y140754D01*
X1335979Y140670D01*
X1336021Y140646D01*
X1336059Y140616D01*
X1336173Y140562D01*
X1336284Y140501D01*
X1336330Y140488D01*
X1336374Y140467D01*
X1336497Y140441D01*
X1336619Y140406D01*
X1336680Y140401D01*
X1336715Y140394D01*
X1336763Y140395D01*
X1336863Y140387D01*
X1348645Y140387D01*
X1355269Y137643D01*
X1355414Y137601D01*
X1355557Y137556D01*
X1355581Y137554D01*
X1355604Y137547D01*
X1355755Y137540D01*
X1355904Y137528D01*
X1355928Y137531D01*
X1355952Y137530D01*
X1356100Y137557D01*
X1356249Y137580D01*
X1356271Y137588D01*
X1356295Y137593D01*
X1356433Y137653D01*
X1356573Y137708D01*
X1356593Y137722D01*
X1356615Y137732D01*
X1356736Y137821D01*
X1356859Y137907D01*
X1356875Y137925D01*
X1356895Y137940D01*
X1356992Y138054D01*
X1357092Y138166D01*
X1357104Y138187D01*
X1357120Y138206D01*
X1357188Y138339D01*
X1357261Y138471D01*
X1357267Y138494D01*
X1357278Y138516D01*
X1357315Y138661D01*
X1357356Y138806D01*
X1357358Y138836D01*
X1357363Y138854D01*
X1357363Y138901D01*
X1357375Y139050D01*
X1357375Y324729D01*
X1357373Y324748D01*
X1357374Y324764D01*
X1357361Y324855D01*
X1357354Y324981D01*
X1357341Y325027D01*
X1357335Y325075D01*
X1357293Y325194D01*
X1357258Y325316D01*
X1357234Y325358D01*
X1357218Y325403D01*
X1357149Y325510D01*
X1357088Y325620D01*
X1357048Y325666D01*
X1357029Y325696D01*
X1356994Y325730D01*
X1356929Y325806D01*
X1314866Y367869D01*
X1314767Y367948D01*
X1314673Y368032D01*
X1314631Y368056D01*
X1314593Y368086D01*
X1314479Y368140D01*
X1314368Y368201D01*
X1314322Y368214D01*
X1314278Y368235D01*
X1314155Y368261D01*
X1314033Y368296D01*
X1313972Y368301D01*
X1313937Y368308D01*
X1313889Y368307D01*
X1313789Y368315D01*
X1165995Y368315D01*
X1165869Y368301D01*
X1165743Y368294D01*
X1165697Y368281D01*
X1165649Y368275D01*
X1165530Y368233D01*
X1165408Y368198D01*
X1165366Y368174D01*
X1165321Y368158D01*
X1165215Y368089D01*
X1165104Y368028D01*
X1165058Y367988D01*
X1165028Y367969D01*
X1164994Y367934D01*
X1164918Y367869D01*
X1160284Y363235D01*
X1146396Y363235D01*
X1136575Y373056D01*
X1136575Y386944D01*
X1146396Y396765D01*
X1160284Y396765D01*
X1164918Y392131D01*
X1165017Y392052D01*
X1165111Y391968D01*
X1165153Y391944D01*
X1165191Y391914D01*
X1165305Y391860D01*
X1165416Y391799D01*
X1165462Y391786D01*
X1165506Y391765D01*
X1165629Y391739D01*
X1165751Y391704D01*
X1165812Y391699D01*
X1165847Y391692D01*
X1165895Y391693D01*
X1165995Y391685D01*
X1260690Y391685D01*
X1260740Y391690D01*
X1260790Y391688D01*
X1260913Y391710D01*
X1261036Y391725D01*
X1261083Y391742D01*
X1261133Y391751D01*
X1261247Y391800D01*
X1261364Y391842D01*
X1261406Y391869D01*
X1261453Y391889D01*
X1261553Y391964D01*
X1261657Y392031D01*
X1261692Y392067D01*
X1261732Y392097D01*
X1261813Y392192D01*
X1261899Y392282D01*
X1261925Y392325D01*
X1261958Y392363D01*
X1262014Y392474D01*
X1262078Y392581D01*
X1262093Y392629D01*
X1262116Y392674D01*
X1262146Y392794D01*
X1262184Y392913D01*
X1262188Y392963D01*
X1262200Y393012D01*
X1262202Y393136D01*
X1262212Y393260D01*
X1262205Y393310D01*
X1262206Y393360D01*
X1262179Y393482D01*
X1262161Y393605D01*
X1262142Y393652D01*
X1262131Y393701D01*
X1262078Y393813D01*
X1262032Y393929D01*
X1262003Y393970D01*
X1261981Y394016D01*
X1261904Y394113D01*
X1261833Y394215D01*
X1261796Y394249D01*
X1261764Y394288D01*
X1261666Y394365D01*
X1261574Y394448D01*
X1261530Y394473D01*
X1261491Y394504D01*
X1261273Y394615D01*
X1258292Y395850D01*
X1254370Y399772D01*
X1252247Y404897D01*
X1252247Y410443D01*
X1254370Y415568D01*
X1258292Y419490D01*
X1263417Y421613D01*
X1265197Y421613D01*
X1265323Y421627D01*
X1265449Y421634D01*
X1265495Y421647D01*
X1265543Y421653D01*
X1265662Y421695D01*
X1265784Y421730D01*
X1265826Y421754D01*
X1265871Y421770D01*
X1265978Y421839D01*
X1266088Y421900D01*
X1266134Y421940D01*
X1266164Y421959D01*
X1266198Y421994D01*
X1266274Y422059D01*
X1341849Y497634D01*
X1341928Y497733D01*
X1342012Y497827D01*
X1342036Y497869D01*
X1342066Y497907D01*
X1342120Y498021D01*
X1342181Y498132D01*
X1342194Y498178D01*
X1342215Y498222D01*
X1342241Y498345D01*
X1342276Y498467D01*
X1342281Y498528D01*
X1342288Y498563D01*
X1342287Y498611D01*
X1342295Y498711D01*
X1342295Y570752D01*
X1342284Y570852D01*
X1342282Y570952D01*
X1342264Y571024D01*
X1342255Y571098D01*
X1342222Y571193D01*
X1342197Y571290D01*
X1342163Y571356D01*
X1342138Y571426D01*
X1342083Y571511D01*
X1342037Y571600D01*
X1341989Y571657D01*
X1341949Y571719D01*
X1341877Y571789D01*
X1341812Y571865D01*
X1341752Y571910D01*
X1341698Y571961D01*
X1341612Y572013D01*
X1341531Y572073D01*
X1341463Y572102D01*
X1341399Y572140D01*
X1341303Y572171D01*
X1341211Y572211D01*
X1341138Y572224D01*
X1341067Y572246D01*
X1340967Y572255D01*
X1340868Y572272D01*
X1340794Y572268D01*
X1340720Y572274D01*
X1340620Y572260D01*
X1340520Y572254D01*
X1340449Y572234D01*
X1340375Y572223D01*
X1340282Y572186D01*
X1340185Y572158D01*
X1340120Y572121D01*
X1340051Y572094D01*
X1339969Y572037D01*
X1339881Y571988D01*
X1339805Y571922D01*
X1339765Y571895D01*
X1339741Y571869D01*
X1339695Y571829D01*
X1338652Y570786D01*
X1332117Y568079D01*
X1325043Y568079D01*
X1318508Y570786D01*
X1316957Y572337D01*
X1316937Y572353D01*
X1316920Y572373D01*
X1316800Y572462D01*
X1316684Y572554D01*
X1316660Y572565D01*
X1316639Y572581D01*
X1316503Y572639D01*
X1316369Y572703D01*
X1316343Y572708D01*
X1316319Y572719D01*
X1316173Y572745D01*
X1316028Y572776D01*
X1316002Y572776D01*
X1315976Y572780D01*
X1315828Y572773D01*
X1315680Y572770D01*
X1315654Y572764D01*
X1315628Y572762D01*
X1315486Y572721D01*
X1315342Y572685D01*
X1315319Y572673D01*
X1315293Y572666D01*
X1315164Y572593D01*
X1315032Y572525D01*
X1315012Y572508D01*
X1314989Y572496D01*
X1314803Y572337D01*
X1313252Y570786D01*
X1306717Y568079D01*
X1299643Y568079D01*
X1293108Y570786D01*
X1288106Y575788D01*
X1285399Y582323D01*
X1285399Y604637D01*
X1288106Y611172D01*
X1293108Y616174D01*
X1299643Y618881D01*
X1306717Y618881D01*
X1313252Y616174D01*
X1314803Y614623D01*
X1314823Y614607D01*
X1314840Y614587D01*
X1314960Y614498D01*
X1315076Y614406D01*
X1315100Y614395D01*
X1315121Y614379D01*
X1315257Y614321D01*
X1315391Y614257D01*
X1315417Y614252D01*
X1315441Y614241D01*
X1315587Y614215D01*
X1315732Y614184D01*
X1315758Y614184D01*
X1315784Y614180D01*
X1315932Y614187D01*
X1316080Y614190D01*
X1316106Y614196D01*
X1316132Y614198D01*
X1316274Y614239D01*
X1316418Y614275D01*
X1316441Y614287D01*
X1316467Y614294D01*
X1316596Y614367D01*
X1316728Y614435D01*
X1316748Y614452D01*
X1316771Y614464D01*
X1316957Y614623D01*
X1318508Y616174D01*
X1325043Y618881D01*
X1332117Y618881D01*
X1338652Y616174D01*
X1340203Y614623D01*
X1340223Y614607D01*
X1340240Y614587D01*
X1340360Y614498D01*
X1340476Y614406D01*
X1340500Y614395D01*
X1340521Y614379D01*
X1340657Y614321D01*
X1340791Y614257D01*
X1340817Y614252D01*
X1340841Y614241D01*
X1340987Y614215D01*
X1341132Y614184D01*
X1341158Y614184D01*
X1341184Y614180D01*
X1341332Y614187D01*
X1341480Y614190D01*
X1341506Y614196D01*
X1341532Y614198D01*
X1341674Y614239D01*
X1341818Y614275D01*
X1341841Y614287D01*
X1341867Y614294D01*
X1341996Y614367D01*
X1342128Y614435D01*
X1342148Y614452D01*
X1342171Y614464D01*
X1342357Y614623D01*
X1343908Y616174D01*
X1350443Y618881D01*
X1357517Y618881D01*
X1364052Y616174D01*
X1369054Y611172D01*
X1369947Y609015D01*
X1370020Y608884D01*
X1370089Y608750D01*
X1370105Y608732D01*
X1370116Y608711D01*
X1370218Y608599D01*
X1370315Y608485D01*
X1370334Y608470D01*
X1370351Y608452D01*
X1370474Y608367D01*
X1370595Y608278D01*
X1370618Y608268D01*
X1370637Y608254D01*
X1370777Y608199D01*
X1370915Y608140D01*
X1370939Y608135D01*
X1370962Y608126D01*
X1371110Y608105D01*
X1371258Y608078D01*
X1371282Y608079D01*
X1371306Y608076D01*
X1371456Y608088D01*
X1371606Y608096D01*
X1371629Y608102D01*
X1371654Y608104D01*
X1371797Y608151D01*
X1371941Y608192D01*
X1371962Y608204D01*
X1371985Y608212D01*
X1372114Y608289D01*
X1372245Y608363D01*
X1372267Y608381D01*
X1372284Y608391D01*
X1372318Y608424D01*
X1372432Y608521D01*
X1372761Y608850D01*
X1374055Y609790D01*
X1375480Y610516D01*
X1376841Y610959D01*
X1376841Y594496D01*
X1376844Y594470D01*
X1376842Y594444D01*
X1376864Y594297D01*
X1376881Y594150D01*
X1376889Y594125D01*
X1376893Y594099D01*
X1376948Y593962D01*
X1376998Y593822D01*
X1377012Y593800D01*
X1377022Y593775D01*
X1377107Y593654D01*
X1377187Y593529D01*
X1377206Y593511D01*
X1377221Y593489D01*
X1377237Y593475D01*
X1377155Y593390D01*
X1377141Y593367D01*
X1377124Y593348D01*
X1377052Y593218D01*
X1376976Y593091D01*
X1376968Y593066D01*
X1376955Y593043D01*
X1376915Y592900D01*
X1376870Y592759D01*
X1376867Y592733D01*
X1376860Y592708D01*
X1376841Y592464D01*
X1376841Y576001D01*
X1375480Y576444D01*
X1374055Y577170D01*
X1372761Y578110D01*
X1372432Y578439D01*
X1372313Y578533D01*
X1372199Y578630D01*
X1372178Y578641D01*
X1372159Y578656D01*
X1372023Y578720D01*
X1371889Y578788D01*
X1371865Y578794D01*
X1371843Y578805D01*
X1371696Y578836D01*
X1371551Y578872D01*
X1371526Y578873D01*
X1371503Y578878D01*
X1371353Y578875D01*
X1371202Y578878D01*
X1371179Y578872D01*
X1371154Y578872D01*
X1371009Y578835D01*
X1370862Y578803D01*
X1370840Y578793D01*
X1370816Y578787D01*
X1370683Y578718D01*
X1370547Y578653D01*
X1370528Y578638D01*
X1370507Y578627D01*
X1370392Y578530D01*
X1370274Y578436D01*
X1370260Y578417D01*
X1370241Y578402D01*
X1370152Y578280D01*
X1370059Y578163D01*
X1370045Y578137D01*
X1370034Y578121D01*
X1370015Y578078D01*
X1369947Y577945D01*
X1369054Y575788D01*
X1366111Y572845D01*
X1366032Y572746D01*
X1365948Y572652D01*
X1365924Y572610D01*
X1365894Y572572D01*
X1365840Y572458D01*
X1365779Y572347D01*
X1365766Y572301D01*
X1365745Y572257D01*
X1365719Y572134D01*
X1365684Y572012D01*
X1365679Y571951D01*
X1365672Y571916D01*
X1365673Y571868D01*
X1365665Y571768D01*
X1365665Y490916D01*
X1363886Y486621D01*
X1278913Y401648D01*
X1278911Y401646D01*
X1278910Y401645D01*
X1278797Y401502D01*
X1278696Y401375D01*
X1278695Y401373D01*
X1278694Y401371D01*
X1278582Y401154D01*
X1278010Y399772D01*
X1274088Y395850D01*
X1271107Y394615D01*
X1271063Y394591D01*
X1271016Y394574D01*
X1270911Y394506D01*
X1270803Y394446D01*
X1270765Y394412D01*
X1270723Y394385D01*
X1270637Y394295D01*
X1270544Y394212D01*
X1270516Y394170D01*
X1270481Y394134D01*
X1270417Y394027D01*
X1270346Y393925D01*
X1270328Y393878D01*
X1270302Y393835D01*
X1270264Y393717D01*
X1270218Y393601D01*
X1270211Y393551D01*
X1270196Y393503D01*
X1270186Y393379D01*
X1270168Y393256D01*
X1270172Y393206D01*
X1270168Y393156D01*
X1270186Y393033D01*
X1270197Y392909D01*
X1270212Y392861D01*
X1270219Y392811D01*
X1270265Y392696D01*
X1270304Y392577D01*
X1270330Y392534D01*
X1270348Y392487D01*
X1270419Y392385D01*
X1270483Y392279D01*
X1270518Y392242D01*
X1270547Y392201D01*
X1270639Y392118D01*
X1270726Y392029D01*
X1270769Y392001D01*
X1270806Y391968D01*
X1270915Y391908D01*
X1271019Y391840D01*
X1271067Y391823D01*
X1271111Y391799D01*
X1271231Y391765D01*
X1271348Y391724D01*
X1271398Y391718D01*
X1271446Y391704D01*
X1271690Y391685D01*
X1321584Y391685D01*
X1325879Y389906D01*
X1378966Y336819D01*
X1380745Y332524D01*
X1380745Y137282D01*
X1380756Y137182D01*
X1380758Y137082D01*
X1380776Y137010D01*
X1380785Y136936D01*
X1380818Y136841D01*
X1380843Y136744D01*
X1380877Y136678D01*
X1380902Y136608D01*
X1380957Y136523D01*
X1381003Y136434D01*
X1381051Y136377D01*
X1381091Y136315D01*
X1381163Y136245D01*
X1381228Y136169D01*
X1381288Y136124D01*
X1381342Y136073D01*
X1381428Y136021D01*
X1381509Y135961D01*
X1381577Y135932D01*
X1381641Y135894D01*
X1381737Y135863D01*
X1381829Y135823D01*
X1381902Y135810D01*
X1381973Y135788D01*
X1382073Y135779D01*
X1382172Y135762D01*
X1382246Y135766D01*
X1382320Y135760D01*
X1382420Y135774D01*
X1382520Y135780D01*
X1382591Y135800D01*
X1382665Y135811D01*
X1382758Y135848D01*
X1382855Y135876D01*
X1382920Y135913D01*
X1382989Y135940D01*
X1383071Y135997D01*
X1383159Y136046D01*
X1383235Y136112D01*
X1383275Y136139D01*
X1383299Y136165D01*
X1383345Y136205D01*
X1384820Y137680D01*
X1391355Y140387D01*
X1413669Y140387D01*
X1420204Y137680D01*
X1425206Y132678D01*
X1427913Y126143D01*
X1427913Y119069D01*
X1425206Y112534D01*
X1420204Y107532D01*
X1413669Y104825D01*
X1391355Y104825D01*
X1384820Y107532D01*
X1383345Y109007D01*
X1383266Y109070D01*
X1383194Y109139D01*
X1383130Y109178D01*
X1383072Y109224D01*
X1382981Y109267D01*
X1382895Y109318D01*
X1382824Y109341D01*
X1382757Y109373D01*
X1382659Y109394D01*
X1382563Y109424D01*
X1382489Y109430D01*
X1382416Y109446D01*
X1382316Y109444D01*
X1382216Y109452D01*
X1382142Y109441D01*
X1382068Y109440D01*
X1381971Y109416D01*
X1381871Y109401D01*
X1381802Y109373D01*
X1381730Y109355D01*
X1381641Y109309D01*
X1381547Y109272D01*
X1381486Y109230D01*
X1381420Y109195D01*
X1381344Y109130D01*
X1381261Y109073D01*
X1381211Y109018D01*
X1381155Y108970D01*
X1381095Y108889D01*
X1381028Y108814D01*
X1380992Y108749D01*
X1380947Y108689D01*
X1380908Y108597D01*
X1380859Y108509D01*
X1380839Y108438D01*
X1380809Y108369D01*
X1380792Y108271D01*
X1380764Y108174D01*
X1380756Y108074D01*
X1380748Y108026D01*
X1380750Y107991D01*
X1380745Y107930D01*
X1380745Y106642D01*
X1378966Y102347D01*
X1375465Y98846D01*
X1362045Y85426D01*
X1361997Y85366D01*
X1361942Y85313D01*
X1361889Y85230D01*
X1361828Y85153D01*
X1361795Y85084D01*
X1361754Y85019D01*
X1361721Y84927D01*
X1361679Y84838D01*
X1361663Y84763D01*
X1361637Y84691D01*
X1361626Y84593D01*
X1361606Y84497D01*
X1361607Y84421D01*
X1361598Y84345D01*
X1361610Y84247D01*
X1361612Y84149D01*
X1361630Y84074D01*
X1361639Y83999D01*
X1361685Y83857D01*
X1361697Y83811D01*
X1361705Y83794D01*
X1361714Y83766D01*
X1362889Y80931D01*
X1362889Y73857D01*
X1360182Y67322D01*
X1355180Y62320D01*
X1348645Y59613D01*
X1326331Y59613D01*
G37*
%LPD*%
G36*
X576198Y297076D02*
X576198Y297076D01*
X576272Y297077D01*
X576369Y297101D01*
X576469Y297116D01*
X576538Y297144D01*
X576610Y297162D01*
X576700Y297208D01*
X576793Y297245D01*
X576854Y297287D01*
X576920Y297321D01*
X576997Y297387D01*
X577079Y297444D01*
X577129Y297499D01*
X577185Y297547D01*
X577245Y297628D01*
X577312Y297703D01*
X577348Y297768D01*
X577393Y297828D01*
X577432Y297920D01*
X577481Y298008D01*
X577501Y298079D01*
X577531Y298148D01*
X577548Y298246D01*
X577576Y298343D01*
X577584Y298443D01*
X577592Y298491D01*
X577590Y298526D01*
X577595Y298587D01*
X577595Y682869D01*
X577581Y682995D01*
X577574Y683121D01*
X577561Y683167D01*
X577555Y683215D01*
X577513Y683334D01*
X577478Y683456D01*
X577454Y683498D01*
X577438Y683543D01*
X577369Y683650D01*
X577308Y683760D01*
X577268Y683806D01*
X577249Y683836D01*
X577214Y683870D01*
X577149Y683946D01*
X549826Y711269D01*
X549727Y711348D01*
X549633Y711432D01*
X549591Y711456D01*
X549553Y711486D01*
X549439Y711540D01*
X549328Y711601D01*
X549282Y711614D01*
X549238Y711635D01*
X549115Y711661D01*
X548993Y711696D01*
X548932Y711701D01*
X548897Y711708D01*
X548849Y711707D01*
X548749Y711715D01*
X507696Y711715D01*
X507570Y711701D01*
X507444Y711694D01*
X507397Y711681D01*
X507349Y711675D01*
X507231Y711633D01*
X507109Y711598D01*
X507067Y711574D01*
X507021Y711558D01*
X506915Y711489D01*
X506805Y711428D01*
X506759Y711388D01*
X506729Y711369D01*
X506695Y711334D01*
X506619Y711269D01*
X505211Y709862D01*
X505195Y709841D01*
X505175Y709824D01*
X505086Y709705D01*
X504994Y709589D01*
X504983Y709565D01*
X504968Y709544D01*
X504909Y709407D01*
X504845Y709273D01*
X504840Y709248D01*
X504830Y709224D01*
X504803Y709077D01*
X504772Y708933D01*
X504773Y708907D01*
X504768Y708881D01*
X504776Y708732D01*
X504778Y708584D01*
X504784Y708559D01*
X504786Y708533D01*
X504827Y708390D01*
X504863Y708246D01*
X504875Y708223D01*
X504882Y708198D01*
X504955Y708068D01*
X505023Y707937D01*
X505040Y707917D01*
X505053Y707894D01*
X505211Y707707D01*
X505458Y707460D01*
X508001Y701322D01*
X508001Y694678D01*
X505458Y688540D01*
X503296Y686377D01*
X503279Y686357D01*
X503259Y686340D01*
X503171Y686220D01*
X503079Y686104D01*
X503068Y686080D01*
X503052Y686059D01*
X502993Y685923D01*
X502930Y685789D01*
X502924Y685763D01*
X502914Y685739D01*
X502888Y685593D01*
X502857Y685448D01*
X502857Y685422D01*
X502852Y685396D01*
X502860Y685248D01*
X502863Y685100D01*
X502869Y685074D01*
X502870Y685048D01*
X502911Y684906D01*
X502948Y684762D01*
X502960Y684739D01*
X502967Y684713D01*
X503039Y684584D01*
X503107Y684452D01*
X503124Y684432D01*
X503137Y684409D01*
X503296Y684223D01*
X505458Y682060D01*
X508001Y675922D01*
X508001Y669278D01*
X505458Y663140D01*
X503296Y660977D01*
X503279Y660957D01*
X503259Y660940D01*
X503171Y660820D01*
X503079Y660704D01*
X503068Y660680D01*
X503052Y660659D01*
X502993Y660523D01*
X502930Y660389D01*
X502924Y660363D01*
X502914Y660339D01*
X502888Y660193D01*
X502857Y660048D01*
X502857Y660022D01*
X502852Y659996D01*
X502860Y659848D01*
X502863Y659700D01*
X502869Y659674D01*
X502870Y659648D01*
X502911Y659506D01*
X502948Y659362D01*
X502960Y659339D01*
X502967Y659313D01*
X503039Y659184D01*
X503107Y659052D01*
X503124Y659032D01*
X503137Y659009D01*
X503296Y658823D01*
X505458Y656660D01*
X508001Y650522D01*
X508001Y643878D01*
X505458Y637740D01*
X503296Y635577D01*
X503279Y635557D01*
X503259Y635540D01*
X503171Y635420D01*
X503079Y635304D01*
X503068Y635280D01*
X503052Y635259D01*
X502993Y635123D01*
X502930Y634989D01*
X502924Y634963D01*
X502914Y634939D01*
X502888Y634793D01*
X502857Y634648D01*
X502857Y634622D01*
X502852Y634596D01*
X502860Y634448D01*
X502863Y634300D01*
X502869Y634274D01*
X502870Y634248D01*
X502911Y634106D01*
X502948Y633962D01*
X502960Y633939D01*
X502967Y633913D01*
X503039Y633784D01*
X503107Y633652D01*
X503124Y633632D01*
X503137Y633609D01*
X503296Y633423D01*
X505458Y631260D01*
X508001Y625122D01*
X508001Y618478D01*
X505458Y612340D01*
X503296Y610177D01*
X503279Y610157D01*
X503259Y610140D01*
X503171Y610020D01*
X503079Y609904D01*
X503068Y609880D01*
X503052Y609859D01*
X502993Y609723D01*
X502930Y609589D01*
X502924Y609563D01*
X502914Y609539D01*
X502888Y609393D01*
X502857Y609248D01*
X502857Y609222D01*
X502852Y609196D01*
X502860Y609048D01*
X502863Y608900D01*
X502869Y608874D01*
X502870Y608848D01*
X502911Y608706D01*
X502948Y608562D01*
X502960Y608539D01*
X502967Y608513D01*
X503040Y608383D01*
X503107Y608252D01*
X503124Y608232D01*
X503137Y608209D01*
X503296Y608023D01*
X505458Y605860D01*
X508001Y599722D01*
X508001Y593078D01*
X505458Y586940D01*
X504303Y585785D01*
X504241Y585706D01*
X504171Y585634D01*
X504133Y585570D01*
X504087Y585512D01*
X504044Y585421D01*
X503992Y585335D01*
X503970Y585264D01*
X503938Y585197D01*
X503917Y585099D01*
X503886Y585003D01*
X503880Y584929D01*
X503865Y584856D01*
X503866Y584756D01*
X503858Y584656D01*
X503869Y584582D01*
X503871Y584508D01*
X503895Y584411D01*
X503910Y584311D01*
X503937Y584242D01*
X503956Y584170D01*
X504002Y584081D01*
X504039Y583987D01*
X504081Y583926D01*
X504115Y583860D01*
X504180Y583784D01*
X504238Y583701D01*
X504293Y583651D01*
X504341Y583595D01*
X504422Y583535D01*
X504496Y583468D01*
X504562Y583432D01*
X504621Y583387D01*
X504713Y583348D01*
X504801Y583299D01*
X504873Y583279D01*
X504941Y583249D01*
X505040Y583232D01*
X505137Y583204D01*
X505237Y583196D01*
X505284Y583188D01*
X505320Y583190D01*
X505381Y583185D01*
X523024Y583185D01*
X527319Y581406D01*
X530820Y577905D01*
X536895Y571830D01*
X536973Y571767D01*
X537046Y571698D01*
X537110Y571659D01*
X537168Y571613D01*
X537259Y571570D01*
X537345Y571519D01*
X537416Y571496D01*
X537483Y571464D01*
X537581Y571443D01*
X537677Y571413D01*
X537751Y571407D01*
X537824Y571391D01*
X537924Y571393D01*
X538024Y571385D01*
X538098Y571396D01*
X538172Y571397D01*
X538269Y571421D01*
X538369Y571436D01*
X538438Y571464D01*
X538510Y571482D01*
X538600Y571528D01*
X538693Y571565D01*
X538754Y571607D01*
X538820Y571641D01*
X538897Y571707D01*
X538979Y571764D01*
X539029Y571819D01*
X539085Y571867D01*
X539145Y571948D01*
X539212Y572023D01*
X539248Y572088D01*
X539293Y572148D01*
X539332Y572240D01*
X539381Y572328D01*
X539401Y572399D01*
X539431Y572468D01*
X539448Y572566D01*
X539476Y572663D01*
X539484Y572763D01*
X539492Y572811D01*
X539490Y572846D01*
X539495Y572907D01*
X539495Y662032D01*
X539495Y662034D01*
X539495Y662036D01*
X539475Y662207D01*
X539455Y662379D01*
X539455Y662381D01*
X539454Y662383D01*
X539379Y662615D01*
X537237Y667787D01*
X537237Y673333D01*
X539360Y678458D01*
X543282Y682380D01*
X548407Y684503D01*
X553953Y684503D01*
X559078Y682380D01*
X563000Y678458D01*
X565123Y673333D01*
X565123Y667787D01*
X562981Y662615D01*
X562980Y662613D01*
X562979Y662612D01*
X562933Y662450D01*
X562885Y662280D01*
X562885Y662278D01*
X562884Y662276D01*
X562865Y662032D01*
X562865Y467576D01*
X561086Y463281D01*
X531899Y434094D01*
X527604Y432315D01*
X504881Y432315D01*
X504781Y432304D01*
X504680Y432302D01*
X504608Y432284D01*
X504534Y432275D01*
X504440Y432242D01*
X504342Y432217D01*
X504276Y432183D01*
X504206Y432158D01*
X504122Y432103D01*
X504033Y432057D01*
X503976Y432009D01*
X503913Y431969D01*
X503844Y431897D01*
X503767Y431832D01*
X503723Y431772D01*
X503671Y431718D01*
X503620Y431632D01*
X503560Y431551D01*
X503531Y431483D01*
X503492Y431419D01*
X503462Y431323D01*
X503422Y431231D01*
X503409Y431158D01*
X503386Y431087D01*
X503378Y430987D01*
X503360Y430888D01*
X503364Y430814D01*
X503358Y430740D01*
X503373Y430640D01*
X503378Y430540D01*
X503399Y430469D01*
X503410Y430395D01*
X503447Y430302D01*
X503475Y430205D01*
X503511Y430140D01*
X503539Y430071D01*
X503596Y429989D01*
X503645Y429901D01*
X503710Y429825D01*
X503738Y429785D01*
X503764Y429761D01*
X503803Y429715D01*
X505458Y428060D01*
X508001Y421922D01*
X508001Y415278D01*
X505458Y409140D01*
X500760Y404442D01*
X497233Y402981D01*
X497149Y402934D01*
X497061Y402897D01*
X496997Y402850D01*
X496928Y402811D01*
X496857Y402747D01*
X496780Y402690D01*
X496729Y402630D01*
X496670Y402577D01*
X496616Y402499D01*
X496553Y402426D01*
X496517Y402356D01*
X496472Y402291D01*
X496437Y402201D01*
X496393Y402117D01*
X496373Y402040D01*
X496344Y401966D01*
X496330Y401872D01*
X496306Y401779D01*
X496305Y401700D01*
X496293Y401622D01*
X496301Y401526D01*
X496299Y401431D01*
X496315Y401353D01*
X496322Y401274D01*
X496351Y401183D01*
X496371Y401090D01*
X496405Y401018D01*
X496429Y400943D01*
X496478Y400860D01*
X496519Y400774D01*
X496568Y400712D01*
X496609Y400644D01*
X496676Y400575D01*
X496735Y400500D01*
X496817Y400429D01*
X496852Y400394D01*
X496879Y400376D01*
X496920Y400341D01*
X497216Y400126D01*
X498226Y399116D01*
X499067Y397959D01*
X499715Y396686D01*
X500157Y395326D01*
X500177Y395199D01*
X491776Y395199D01*
X491750Y395196D01*
X491724Y395198D01*
X491577Y395176D01*
X491430Y395159D01*
X491405Y395151D01*
X491379Y395147D01*
X491298Y395114D01*
X491260Y395125D01*
X491119Y395170D01*
X491093Y395172D01*
X491068Y395180D01*
X490824Y395199D01*
X482423Y395199D01*
X482443Y395326D01*
X482885Y396686D01*
X483533Y397959D01*
X484374Y399116D01*
X485384Y400126D01*
X485680Y400341D01*
X485750Y400406D01*
X485827Y400463D01*
X485878Y400523D01*
X485936Y400577D01*
X485990Y400656D01*
X486052Y400729D01*
X486088Y400799D01*
X486133Y400865D01*
X486167Y400954D01*
X486211Y401039D01*
X486230Y401116D01*
X486259Y401190D01*
X486272Y401284D01*
X486295Y401377D01*
X486296Y401456D01*
X486307Y401535D01*
X486299Y401630D01*
X486300Y401726D01*
X486283Y401803D01*
X486276Y401882D01*
X486246Y401973D01*
X486226Y402066D01*
X486192Y402138D01*
X486167Y402213D01*
X486117Y402295D01*
X486076Y402381D01*
X486027Y402443D01*
X485985Y402510D01*
X485918Y402579D01*
X485859Y402653D01*
X485796Y402702D01*
X485741Y402759D01*
X485660Y402810D01*
X485585Y402869D01*
X485488Y402919D01*
X485446Y402945D01*
X485416Y402956D01*
X485367Y402981D01*
X481840Y404442D01*
X477142Y409140D01*
X476895Y409735D01*
X476871Y409779D01*
X476854Y409826D01*
X476786Y409931D01*
X476726Y410040D01*
X476692Y410077D01*
X476665Y410119D01*
X476575Y410206D01*
X476492Y410298D01*
X476450Y410326D01*
X476414Y410361D01*
X476308Y410425D01*
X476205Y410496D01*
X476158Y410514D01*
X476115Y410540D01*
X475997Y410578D01*
X475881Y410624D01*
X475831Y410631D01*
X475783Y410646D01*
X475659Y410656D01*
X475536Y410675D01*
X475486Y410670D01*
X475436Y410674D01*
X475313Y410656D01*
X475189Y410646D01*
X475141Y410630D01*
X475091Y410623D01*
X474975Y410577D01*
X474857Y410539D01*
X474814Y410513D01*
X474767Y410494D01*
X474665Y410423D01*
X474559Y410359D01*
X474522Y410324D01*
X474481Y410295D01*
X474398Y410203D01*
X474309Y410116D01*
X474281Y410074D01*
X474248Y410036D01*
X474187Y409927D01*
X474120Y409823D01*
X474104Y409775D01*
X474079Y409731D01*
X474045Y409611D01*
X474004Y409494D01*
X473998Y409444D01*
X473984Y409396D01*
X473965Y409152D01*
X473965Y377248D01*
X473970Y377198D01*
X473968Y377148D01*
X473990Y377025D01*
X474005Y376902D01*
X474022Y376854D01*
X474031Y376805D01*
X474080Y376691D01*
X474122Y376574D01*
X474149Y376531D01*
X474170Y376485D01*
X474244Y376385D01*
X474311Y376281D01*
X474347Y376246D01*
X474377Y376205D01*
X474472Y376125D01*
X474562Y376039D01*
X474605Y376013D01*
X474643Y375980D01*
X474754Y375924D01*
X474861Y375860D01*
X474909Y375844D01*
X474954Y375821D01*
X475074Y375791D01*
X475193Y375754D01*
X475243Y375750D01*
X475292Y375737D01*
X475416Y375736D01*
X475540Y375726D01*
X475590Y375733D01*
X475640Y375732D01*
X475762Y375759D01*
X475885Y375777D01*
X475932Y375796D01*
X475981Y375807D01*
X476093Y375860D01*
X476209Y375906D01*
X476250Y375935D01*
X476296Y375956D01*
X476393Y376034D01*
X476495Y376105D01*
X476528Y376142D01*
X476568Y376174D01*
X476645Y376272D01*
X476728Y376364D01*
X476753Y376408D01*
X476784Y376447D01*
X476895Y376665D01*
X477142Y377260D01*
X481840Y381958D01*
X485367Y383419D01*
X485451Y383466D01*
X485539Y383503D01*
X485603Y383550D01*
X485672Y383589D01*
X485743Y383653D01*
X485820Y383710D01*
X485871Y383770D01*
X485930Y383823D01*
X485984Y383901D01*
X486047Y383974D01*
X486083Y384044D01*
X486128Y384109D01*
X486163Y384199D01*
X486207Y384283D01*
X486227Y384360D01*
X486256Y384434D01*
X486270Y384528D01*
X486294Y384621D01*
X486295Y384700D01*
X486307Y384778D01*
X486299Y384874D01*
X486301Y384969D01*
X486285Y385047D01*
X486278Y385126D01*
X486249Y385217D01*
X486229Y385310D01*
X486195Y385382D01*
X486171Y385457D01*
X486122Y385540D01*
X486081Y385626D01*
X486032Y385688D01*
X485991Y385756D01*
X485924Y385825D01*
X485865Y385900D01*
X485783Y385971D01*
X485748Y386006D01*
X485721Y386024D01*
X485680Y386059D01*
X485384Y386274D01*
X484374Y387284D01*
X483533Y388441D01*
X482885Y389714D01*
X482443Y391074D01*
X482423Y391201D01*
X490824Y391201D01*
X490850Y391204D01*
X490876Y391202D01*
X491023Y391224D01*
X491170Y391241D01*
X491195Y391249D01*
X491221Y391253D01*
X491302Y391286D01*
X491340Y391275D01*
X491481Y391230D01*
X491507Y391227D01*
X491532Y391220D01*
X491776Y391201D01*
X500177Y391201D01*
X500157Y391074D01*
X499715Y389714D01*
X499067Y388441D01*
X498226Y387284D01*
X497216Y386274D01*
X496920Y386059D01*
X496850Y385994D01*
X496773Y385937D01*
X496722Y385877D01*
X496664Y385823D01*
X496610Y385744D01*
X496548Y385671D01*
X496512Y385601D01*
X496467Y385535D01*
X496433Y385446D01*
X496389Y385361D01*
X496370Y385284D01*
X496341Y385210D01*
X496328Y385116D01*
X496305Y385023D01*
X496304Y384944D01*
X496293Y384865D01*
X496301Y384770D01*
X496300Y384674D01*
X496317Y384597D01*
X496324Y384518D01*
X496354Y384427D01*
X496374Y384334D01*
X496408Y384262D01*
X496433Y384187D01*
X496483Y384105D01*
X496524Y384019D01*
X496573Y383957D01*
X496615Y383890D01*
X496682Y383821D01*
X496741Y383747D01*
X496804Y383698D01*
X496859Y383641D01*
X496940Y383590D01*
X497015Y383531D01*
X497112Y383481D01*
X497154Y383455D01*
X497184Y383444D01*
X497233Y383419D01*
X500760Y381958D01*
X502788Y379931D01*
X502887Y379852D01*
X502980Y379768D01*
X503023Y379744D01*
X503061Y379714D01*
X503175Y379660D01*
X503285Y379599D01*
X503332Y379586D01*
X503376Y379565D01*
X503499Y379539D01*
X503621Y379504D01*
X503682Y379499D01*
X503716Y379492D01*
X503764Y379493D01*
X503865Y379485D01*
X518444Y379485D01*
X522739Y377706D01*
X563626Y336819D01*
X565405Y332524D01*
X565405Y307731D01*
X565419Y307605D01*
X565426Y307479D01*
X565439Y307433D01*
X565445Y307385D01*
X565487Y307266D01*
X565522Y307144D01*
X565546Y307102D01*
X565562Y307057D01*
X565631Y306950D01*
X565692Y306840D01*
X565732Y306794D01*
X565751Y306764D01*
X565786Y306730D01*
X565851Y306654D01*
X574995Y297510D01*
X575073Y297447D01*
X575146Y297378D01*
X575210Y297339D01*
X575268Y297293D01*
X575359Y297250D01*
X575445Y297199D01*
X575516Y297176D01*
X575583Y297144D01*
X575681Y297123D01*
X575777Y297093D01*
X575851Y297087D01*
X575924Y297071D01*
X576024Y297073D01*
X576124Y297065D01*
X576198Y297076D01*
G37*
%LPC*%
G36*
X1033547Y468657D02*
X1033547Y468657D01*
X1028422Y470780D01*
X1024500Y474702D01*
X1022377Y479827D01*
X1022377Y485373D01*
X1024500Y490498D01*
X1028422Y494420D01*
X1033547Y496543D01*
X1039093Y496543D01*
X1044265Y494401D01*
X1044267Y494400D01*
X1044268Y494399D01*
X1044430Y494353D01*
X1044600Y494305D01*
X1044602Y494305D01*
X1044604Y494304D01*
X1044848Y494285D01*
X1051069Y494285D01*
X1051195Y494299D01*
X1051321Y494306D01*
X1051367Y494319D01*
X1051415Y494325D01*
X1051534Y494367D01*
X1051656Y494402D01*
X1051698Y494426D01*
X1051743Y494442D01*
X1051850Y494511D01*
X1051960Y494572D01*
X1052006Y494612D01*
X1052036Y494631D01*
X1052070Y494666D01*
X1052146Y494731D01*
X1059870Y502455D01*
X1059933Y502533D01*
X1060002Y502606D01*
X1060041Y502670D01*
X1060087Y502728D01*
X1060130Y502819D01*
X1060181Y502905D01*
X1060204Y502976D01*
X1060236Y503043D01*
X1060257Y503141D01*
X1060287Y503237D01*
X1060293Y503311D01*
X1060309Y503384D01*
X1060307Y503484D01*
X1060315Y503584D01*
X1060304Y503658D01*
X1060303Y503732D01*
X1060279Y503829D01*
X1060264Y503929D01*
X1060236Y503998D01*
X1060218Y504070D01*
X1060172Y504160D01*
X1060135Y504253D01*
X1060093Y504314D01*
X1060059Y504380D01*
X1059993Y504457D01*
X1059936Y504539D01*
X1059881Y504589D01*
X1059833Y504645D01*
X1059752Y504705D01*
X1059677Y504772D01*
X1059612Y504808D01*
X1059552Y504853D01*
X1059460Y504892D01*
X1059372Y504941D01*
X1059301Y504961D01*
X1059232Y504991D01*
X1059134Y505008D01*
X1059037Y505036D01*
X1058937Y505044D01*
X1058889Y505052D01*
X1058854Y505050D01*
X1058793Y505055D01*
X1048956Y505055D01*
X1039135Y514876D01*
X1039135Y528764D01*
X1045369Y534998D01*
X1045448Y535097D01*
X1045532Y535191D01*
X1045556Y535233D01*
X1045586Y535271D01*
X1045640Y535385D01*
X1045701Y535496D01*
X1045714Y535542D01*
X1045735Y535586D01*
X1045761Y535709D01*
X1045796Y535831D01*
X1045801Y535892D01*
X1045808Y535927D01*
X1045807Y535975D01*
X1045815Y536075D01*
X1045815Y569325D01*
X1045801Y569450D01*
X1045794Y569577D01*
X1045781Y569623D01*
X1045775Y569671D01*
X1045733Y569790D01*
X1045698Y569912D01*
X1045674Y569954D01*
X1045658Y569999D01*
X1045589Y570105D01*
X1045528Y570216D01*
X1045488Y570262D01*
X1045469Y570292D01*
X1045434Y570326D01*
X1045369Y570402D01*
X1040735Y575036D01*
X1040735Y588924D01*
X1045369Y593558D01*
X1045448Y593657D01*
X1045532Y593751D01*
X1045556Y593793D01*
X1045586Y593831D01*
X1045640Y593945D01*
X1045701Y594056D01*
X1045714Y594102D01*
X1045735Y594146D01*
X1045761Y594269D01*
X1045796Y594391D01*
X1045801Y594452D01*
X1045808Y594487D01*
X1045807Y594535D01*
X1045815Y594635D01*
X1045815Y641829D01*
X1045801Y641955D01*
X1045794Y642081D01*
X1045781Y642127D01*
X1045775Y642175D01*
X1045733Y642294D01*
X1045698Y642416D01*
X1045674Y642458D01*
X1045658Y642503D01*
X1045589Y642610D01*
X1045528Y642720D01*
X1045488Y642766D01*
X1045469Y642796D01*
X1045434Y642830D01*
X1045369Y642906D01*
X1025406Y662869D01*
X1025307Y662948D01*
X1025213Y663032D01*
X1025171Y663056D01*
X1025133Y663086D01*
X1025019Y663140D01*
X1024908Y663201D01*
X1024862Y663214D01*
X1024818Y663235D01*
X1024695Y663261D01*
X1024573Y663296D01*
X1024512Y663301D01*
X1024477Y663308D01*
X1024429Y663307D01*
X1024329Y663315D01*
X1017776Y663315D01*
X1007709Y673382D01*
X1007688Y673398D01*
X1007671Y673418D01*
X1007552Y673507D01*
X1007436Y673599D01*
X1007412Y673610D01*
X1007391Y673626D01*
X1007255Y673684D01*
X1007121Y673748D01*
X1007095Y673753D01*
X1007071Y673764D01*
X1006925Y673790D01*
X1006780Y673821D01*
X1006754Y673821D01*
X1006728Y673825D01*
X1006580Y673818D01*
X1006432Y673815D01*
X1006406Y673809D01*
X1006380Y673807D01*
X1006238Y673766D01*
X1006094Y673730D01*
X1006070Y673718D01*
X1006045Y673711D01*
X1005916Y673638D01*
X1005784Y673570D01*
X1005764Y673553D01*
X1005741Y673541D01*
X1005555Y673382D01*
X1003108Y670935D01*
X1001351Y670935D01*
X1001351Y679572D01*
X1001348Y679598D01*
X1001350Y679624D01*
X1001328Y679771D01*
X1001311Y679918D01*
X1001303Y679943D01*
X1001299Y679969D01*
X1001256Y680076D01*
X1001277Y680152D01*
X1001322Y680293D01*
X1001324Y680319D01*
X1001332Y680344D01*
X1001351Y680588D01*
X1001351Y689225D01*
X1003108Y689225D01*
X1005555Y686778D01*
X1005575Y686762D01*
X1005592Y686742D01*
X1005712Y686653D01*
X1005828Y686561D01*
X1005851Y686550D01*
X1005873Y686534D01*
X1006009Y686476D01*
X1006143Y686412D01*
X1006169Y686407D01*
X1006193Y686396D01*
X1006339Y686370D01*
X1006484Y686339D01*
X1006510Y686339D01*
X1006536Y686335D01*
X1006684Y686342D01*
X1006832Y686345D01*
X1006857Y686351D01*
X1006884Y686353D01*
X1007026Y686394D01*
X1007170Y686430D01*
X1007193Y686442D01*
X1007219Y686449D01*
X1007348Y686522D01*
X1007480Y686590D01*
X1007500Y686606D01*
X1007523Y686619D01*
X1007709Y686778D01*
X1017776Y696845D01*
X1031664Y696845D01*
X1041485Y687024D01*
X1041485Y680471D01*
X1041499Y680345D01*
X1041506Y680219D01*
X1041519Y680173D01*
X1041525Y680125D01*
X1041567Y680006D01*
X1041602Y679884D01*
X1041626Y679842D01*
X1041642Y679797D01*
X1041711Y679690D01*
X1041772Y679580D01*
X1041812Y679534D01*
X1041831Y679504D01*
X1041866Y679470D01*
X1041931Y679394D01*
X1063905Y657420D01*
X1067406Y653919D01*
X1069185Y649624D01*
X1069185Y594635D01*
X1069199Y594510D01*
X1069206Y594383D01*
X1069219Y594337D01*
X1069225Y594289D01*
X1069267Y594170D01*
X1069302Y594048D01*
X1069326Y594006D01*
X1069342Y593961D01*
X1069411Y593855D01*
X1069472Y593744D01*
X1069512Y593698D01*
X1069531Y593668D01*
X1069566Y593634D01*
X1069631Y593558D01*
X1074265Y588924D01*
X1074265Y575036D01*
X1069631Y570402D01*
X1069552Y570303D01*
X1069468Y570209D01*
X1069444Y570167D01*
X1069414Y570129D01*
X1069360Y570015D01*
X1069299Y569904D01*
X1069286Y569858D01*
X1069265Y569814D01*
X1069239Y569691D01*
X1069204Y569569D01*
X1069199Y569508D01*
X1069192Y569473D01*
X1069193Y569425D01*
X1069185Y569325D01*
X1069185Y532875D01*
X1069199Y532750D01*
X1069206Y532623D01*
X1069219Y532577D01*
X1069225Y532529D01*
X1069267Y532410D01*
X1069302Y532288D01*
X1069326Y532246D01*
X1069342Y532201D01*
X1069411Y532095D01*
X1069472Y531984D01*
X1069512Y531938D01*
X1069531Y531908D01*
X1069566Y531874D01*
X1069631Y531798D01*
X1072665Y528764D01*
X1072665Y518927D01*
X1072676Y518827D01*
X1072678Y518727D01*
X1072696Y518655D01*
X1072705Y518581D01*
X1072739Y518486D01*
X1072763Y518389D01*
X1072797Y518323D01*
X1072822Y518253D01*
X1072877Y518168D01*
X1072923Y518079D01*
X1072971Y518022D01*
X1073011Y517960D01*
X1073083Y517890D01*
X1073148Y517813D01*
X1073208Y517769D01*
X1073262Y517718D01*
X1073348Y517666D01*
X1073429Y517606D01*
X1073497Y517577D01*
X1073561Y517539D01*
X1073657Y517508D01*
X1073749Y517468D01*
X1073822Y517455D01*
X1073893Y517433D01*
X1073993Y517424D01*
X1074092Y517407D01*
X1074166Y517411D01*
X1074240Y517405D01*
X1074340Y517419D01*
X1074440Y517425D01*
X1074511Y517445D01*
X1074585Y517456D01*
X1074678Y517493D01*
X1074775Y517521D01*
X1074840Y517557D01*
X1074909Y517585D01*
X1074991Y517642D01*
X1075079Y517691D01*
X1075155Y517756D01*
X1075195Y517784D01*
X1075219Y517810D01*
X1075265Y517850D01*
X1076309Y518894D01*
X1076388Y518993D01*
X1076472Y519087D01*
X1076496Y519129D01*
X1076526Y519167D01*
X1076580Y519281D01*
X1076641Y519392D01*
X1076654Y519438D01*
X1076675Y519482D01*
X1076701Y519605D01*
X1076736Y519727D01*
X1076741Y519788D01*
X1076748Y519823D01*
X1076747Y519871D01*
X1076755Y519971D01*
X1076755Y529064D01*
X1082329Y534638D01*
X1082408Y534737D01*
X1082492Y534831D01*
X1082516Y534873D01*
X1082546Y534911D01*
X1082600Y535025D01*
X1082661Y535136D01*
X1082674Y535182D01*
X1082695Y535226D01*
X1082721Y535349D01*
X1082756Y535471D01*
X1082761Y535532D01*
X1082768Y535567D01*
X1082767Y535615D01*
X1082775Y535715D01*
X1082775Y568685D01*
X1082761Y568811D01*
X1082754Y568937D01*
X1082741Y568983D01*
X1082735Y569031D01*
X1082693Y569150D01*
X1082658Y569272D01*
X1082634Y569314D01*
X1082618Y569359D01*
X1082549Y569465D01*
X1082488Y569576D01*
X1082448Y569622D01*
X1082429Y569652D01*
X1082394Y569686D01*
X1082329Y569762D01*
X1077695Y574396D01*
X1077695Y588284D01*
X1087516Y598105D01*
X1101404Y598105D01*
X1111225Y588284D01*
X1111225Y574396D01*
X1106591Y569762D01*
X1106512Y569663D01*
X1106428Y569569D01*
X1106404Y569527D01*
X1106374Y569489D01*
X1106320Y569375D01*
X1106259Y569264D01*
X1106246Y569218D01*
X1106225Y569174D01*
X1106199Y569051D01*
X1106164Y568929D01*
X1106159Y568868D01*
X1106152Y568833D01*
X1106153Y568785D01*
X1106145Y568685D01*
X1106145Y533835D01*
X1106159Y533709D01*
X1106166Y533583D01*
X1106179Y533537D01*
X1106185Y533489D01*
X1106227Y533370D01*
X1106262Y533248D01*
X1106286Y533206D01*
X1106302Y533161D01*
X1106371Y533055D01*
X1106432Y532944D01*
X1106472Y532898D01*
X1106491Y532868D01*
X1106526Y532834D01*
X1106591Y532758D01*
X1110285Y529064D01*
X1110285Y515176D01*
X1100464Y505355D01*
X1096451Y505355D01*
X1096325Y505341D01*
X1096199Y505334D01*
X1096153Y505321D01*
X1096105Y505315D01*
X1095986Y505273D01*
X1095864Y505238D01*
X1095822Y505214D01*
X1095777Y505198D01*
X1095670Y505129D01*
X1095560Y505068D01*
X1095514Y505028D01*
X1095484Y505009D01*
X1095450Y504974D01*
X1095374Y504909D01*
X1063159Y472694D01*
X1058864Y470915D01*
X1044848Y470915D01*
X1044846Y470915D01*
X1044844Y470915D01*
X1044667Y470894D01*
X1044501Y470875D01*
X1044500Y470875D01*
X1044497Y470874D01*
X1044265Y470799D01*
X1039093Y468657D01*
X1033547Y468657D01*
G37*
%LPD*%
G36*
X308104Y10928D02*
X308104Y10928D01*
X308155Y10926D01*
X308277Y10948D01*
X308400Y10963D01*
X308448Y10980D01*
X308497Y10989D01*
X308612Y11038D01*
X308729Y11080D01*
X308771Y11107D01*
X308817Y11127D01*
X308917Y11202D01*
X309021Y11269D01*
X309056Y11305D01*
X309097Y11335D01*
X309177Y11430D01*
X309264Y11520D01*
X309289Y11563D01*
X309322Y11601D01*
X309379Y11712D01*
X309442Y11819D01*
X309458Y11867D01*
X309481Y11912D01*
X309511Y12032D01*
X309549Y12151D01*
X309553Y12201D01*
X309565Y12250D01*
X309567Y12374D01*
X309577Y12498D01*
X309569Y12548D01*
X309570Y12598D01*
X309543Y12720D01*
X309525Y12843D01*
X309506Y12890D01*
X309496Y12939D01*
X309442Y13051D01*
X309396Y13167D01*
X309367Y13208D01*
X309346Y13254D01*
X309268Y13351D01*
X309197Y13453D01*
X309160Y13487D01*
X309128Y13526D01*
X309031Y13603D01*
X308938Y13686D01*
X308894Y13711D01*
X308855Y13742D01*
X308637Y13853D01*
X304888Y15406D01*
X299886Y20408D01*
X298993Y22565D01*
X298920Y22696D01*
X298851Y22830D01*
X298835Y22848D01*
X298824Y22869D01*
X298723Y22981D01*
X298625Y23095D01*
X298606Y23110D01*
X298589Y23128D01*
X298466Y23213D01*
X298345Y23302D01*
X298323Y23312D01*
X298303Y23326D01*
X298163Y23381D01*
X298025Y23440D01*
X298001Y23445D01*
X297978Y23454D01*
X297830Y23475D01*
X297682Y23502D01*
X297658Y23501D01*
X297634Y23504D01*
X297484Y23492D01*
X297334Y23484D01*
X297311Y23477D01*
X297286Y23475D01*
X297143Y23429D01*
X296999Y23388D01*
X296978Y23376D01*
X296955Y23368D01*
X296826Y23291D01*
X296695Y23217D01*
X296673Y23199D01*
X296656Y23189D01*
X296622Y23156D01*
X296508Y23059D01*
X296179Y22730D01*
X294885Y21790D01*
X293460Y21064D01*
X292099Y20621D01*
X292099Y37084D01*
X292096Y37110D01*
X292098Y37136D01*
X292076Y37283D01*
X292059Y37430D01*
X292051Y37455D01*
X292047Y37481D01*
X291992Y37618D01*
X291942Y37758D01*
X291928Y37780D01*
X291918Y37805D01*
X291833Y37926D01*
X291753Y38051D01*
X291734Y38069D01*
X291719Y38091D01*
X291703Y38105D01*
X291785Y38190D01*
X291799Y38213D01*
X291816Y38232D01*
X291888Y38362D01*
X291964Y38489D01*
X291972Y38514D01*
X291985Y38537D01*
X292025Y38680D01*
X292070Y38821D01*
X292072Y38847D01*
X292080Y38872D01*
X292099Y39116D01*
X292099Y55579D01*
X293460Y55136D01*
X294885Y54410D01*
X296179Y53470D01*
X296508Y53141D01*
X296626Y53048D01*
X296741Y52950D01*
X296763Y52939D01*
X296781Y52924D01*
X296918Y52860D01*
X297051Y52792D01*
X297075Y52786D01*
X297097Y52775D01*
X297244Y52744D01*
X297389Y52708D01*
X297414Y52707D01*
X297437Y52702D01*
X297587Y52705D01*
X297738Y52702D01*
X297762Y52708D01*
X297786Y52708D01*
X297931Y52745D01*
X298078Y52777D01*
X298100Y52787D01*
X298124Y52793D01*
X298258Y52862D01*
X298393Y52927D01*
X298412Y52942D01*
X298434Y52953D01*
X298548Y53050D01*
X298666Y53144D01*
X298680Y53163D01*
X298699Y53179D01*
X298788Y53300D01*
X298881Y53417D01*
X298895Y53443D01*
X298906Y53459D01*
X298925Y53502D01*
X298993Y53635D01*
X299886Y55792D01*
X302829Y58735D01*
X302908Y58834D01*
X302992Y58928D01*
X303016Y58970D01*
X303046Y59008D01*
X303100Y59122D01*
X303161Y59233D01*
X303174Y59279D01*
X303195Y59323D01*
X303221Y59446D01*
X303256Y59568D01*
X303261Y59629D01*
X303268Y59664D01*
X303267Y59712D01*
X303275Y59812D01*
X303275Y159804D01*
X305054Y164099D01*
X308555Y167600D01*
X408641Y267686D01*
X412936Y269465D01*
X443688Y269465D01*
X443814Y269479D01*
X443940Y269486D01*
X443986Y269499D01*
X444034Y269505D01*
X444153Y269547D01*
X444275Y269582D01*
X444317Y269606D01*
X444362Y269622D01*
X444469Y269691D01*
X444579Y269752D01*
X444625Y269792D01*
X444655Y269811D01*
X444689Y269846D01*
X444765Y269911D01*
X447708Y272854D01*
X449655Y273660D01*
X449722Y273697D01*
X449793Y273726D01*
X449874Y273782D01*
X449960Y273830D01*
X450016Y273881D01*
X450079Y273925D01*
X450145Y273997D01*
X450218Y274064D01*
X450261Y274127D01*
X450312Y274183D01*
X450360Y274269D01*
X450416Y274350D01*
X450444Y274421D01*
X450481Y274488D01*
X450508Y274583D01*
X450544Y274675D01*
X450555Y274750D01*
X450576Y274824D01*
X450588Y274973D01*
X450595Y275019D01*
X450593Y275038D01*
X450595Y275068D01*
X450595Y340360D01*
X450590Y340410D01*
X450592Y340460D01*
X450570Y340583D01*
X450555Y340706D01*
X450538Y340754D01*
X450529Y340803D01*
X450480Y340917D01*
X450438Y341034D01*
X450411Y341077D01*
X450391Y341123D01*
X450316Y341223D01*
X450249Y341327D01*
X450213Y341362D01*
X450183Y341403D01*
X450088Y341483D01*
X449998Y341569D01*
X449955Y341595D01*
X449917Y341628D01*
X449806Y341684D01*
X449699Y341748D01*
X449651Y341763D01*
X449606Y341786D01*
X449486Y341817D01*
X449367Y341854D01*
X449317Y341858D01*
X449268Y341871D01*
X449144Y341872D01*
X449020Y341882D01*
X448970Y341875D01*
X448920Y341876D01*
X448798Y341849D01*
X448675Y341831D01*
X448628Y341812D01*
X448579Y341801D01*
X448467Y341748D01*
X448351Y341702D01*
X448310Y341673D01*
X448264Y341652D01*
X448167Y341574D01*
X448065Y341503D01*
X448031Y341466D01*
X447992Y341434D01*
X447915Y341337D01*
X447832Y341244D01*
X447807Y341200D01*
X447776Y341161D01*
X447665Y340943D01*
X446786Y338821D01*
X276291Y168326D01*
X276212Y168227D01*
X276128Y168133D01*
X276104Y168091D01*
X276074Y168053D01*
X276020Y167939D01*
X275959Y167828D01*
X275946Y167782D01*
X275925Y167738D01*
X275899Y167615D01*
X275864Y167493D01*
X275859Y167432D01*
X275852Y167397D01*
X275853Y167349D01*
X275845Y167249D01*
X275845Y59812D01*
X275859Y59686D01*
X275866Y59560D01*
X275879Y59514D01*
X275885Y59466D01*
X275927Y59347D01*
X275962Y59225D01*
X275986Y59183D01*
X276002Y59138D01*
X276071Y59031D01*
X276132Y58921D01*
X276172Y58875D01*
X276191Y58845D01*
X276226Y58811D01*
X276291Y58735D01*
X279234Y55792D01*
X280127Y53635D01*
X280200Y53504D01*
X280269Y53370D01*
X280285Y53352D01*
X280296Y53331D01*
X280397Y53219D01*
X280495Y53105D01*
X280514Y53090D01*
X280531Y53072D01*
X280654Y52987D01*
X280775Y52898D01*
X280797Y52888D01*
X280817Y52874D01*
X280957Y52819D01*
X281095Y52760D01*
X281119Y52755D01*
X281142Y52746D01*
X281290Y52725D01*
X281438Y52698D01*
X281462Y52699D01*
X281486Y52696D01*
X281636Y52708D01*
X281786Y52716D01*
X281809Y52723D01*
X281834Y52725D01*
X281977Y52771D01*
X282121Y52812D01*
X282142Y52824D01*
X282165Y52832D01*
X282294Y52909D01*
X282425Y52983D01*
X282447Y53001D01*
X282464Y53011D01*
X282498Y53044D01*
X282612Y53141D01*
X282941Y53470D01*
X284235Y54410D01*
X285660Y55136D01*
X287021Y55579D01*
X287021Y39116D01*
X287024Y39090D01*
X287022Y39064D01*
X287044Y38917D01*
X287061Y38770D01*
X287069Y38745D01*
X287073Y38719D01*
X287128Y38582D01*
X287178Y38442D01*
X287192Y38420D01*
X287202Y38395D01*
X287287Y38274D01*
X287367Y38149D01*
X287386Y38131D01*
X287401Y38109D01*
X287417Y38095D01*
X287335Y38010D01*
X287321Y37987D01*
X287304Y37968D01*
X287232Y37838D01*
X287156Y37711D01*
X287148Y37686D01*
X287135Y37663D01*
X287095Y37520D01*
X287050Y37379D01*
X287047Y37353D01*
X287040Y37328D01*
X287021Y37084D01*
X287021Y20621D01*
X285660Y21064D01*
X284235Y21790D01*
X282941Y22730D01*
X282612Y23059D01*
X282494Y23152D01*
X282379Y23250D01*
X282357Y23261D01*
X282339Y23276D01*
X282202Y23340D01*
X282069Y23408D01*
X282045Y23414D01*
X282023Y23425D01*
X281876Y23456D01*
X281731Y23492D01*
X281706Y23493D01*
X281683Y23498D01*
X281533Y23495D01*
X281382Y23498D01*
X281358Y23492D01*
X281334Y23492D01*
X281189Y23455D01*
X281042Y23423D01*
X281020Y23413D01*
X280996Y23407D01*
X280862Y23338D01*
X280727Y23273D01*
X280708Y23258D01*
X280686Y23247D01*
X280572Y23150D01*
X280454Y23056D01*
X280440Y23037D01*
X280421Y23021D01*
X280332Y22900D01*
X280239Y22783D01*
X280225Y22757D01*
X280214Y22741D01*
X280195Y22698D01*
X280127Y22565D01*
X279234Y20408D01*
X274232Y15406D01*
X270483Y13853D01*
X270439Y13829D01*
X270391Y13812D01*
X270287Y13744D01*
X270178Y13684D01*
X270141Y13650D01*
X270099Y13623D01*
X270012Y13533D01*
X269920Y13450D01*
X269891Y13408D01*
X269856Y13372D01*
X269793Y13265D01*
X269722Y13163D01*
X269703Y13116D01*
X269678Y13073D01*
X269640Y12955D01*
X269594Y12839D01*
X269587Y12789D01*
X269571Y12741D01*
X269561Y12617D01*
X269543Y12494D01*
X269547Y12444D01*
X269543Y12394D01*
X269562Y12271D01*
X269572Y12147D01*
X269588Y12099D01*
X269595Y12049D01*
X269641Y11934D01*
X269679Y11815D01*
X269705Y11772D01*
X269724Y11725D01*
X269795Y11623D01*
X269859Y11517D01*
X269894Y11480D01*
X269923Y11439D01*
X270015Y11356D01*
X270102Y11267D01*
X270144Y11239D01*
X270182Y11206D01*
X270290Y11146D01*
X270395Y11078D01*
X270443Y11061D01*
X270487Y11037D01*
X270606Y11003D01*
X270723Y10962D01*
X270774Y10956D01*
X270822Y10942D01*
X271066Y10923D01*
X308054Y10923D01*
X308104Y10928D01*
G37*
G36*
X865234Y479045D02*
X865234Y479045D01*
X865236Y479045D01*
X865413Y479066D01*
X865579Y479085D01*
X865580Y479085D01*
X865583Y479086D01*
X865815Y479161D01*
X870987Y481303D01*
X876533Y481303D01*
X880289Y479747D01*
X880434Y479706D01*
X880577Y479660D01*
X880601Y479658D01*
X880624Y479651D01*
X880775Y479644D01*
X880924Y479632D01*
X880948Y479636D01*
X880972Y479634D01*
X881120Y479661D01*
X881269Y479684D01*
X881291Y479693D01*
X881315Y479697D01*
X881453Y479757D01*
X881593Y479812D01*
X881613Y479826D01*
X881635Y479836D01*
X881756Y479926D01*
X881879Y480011D01*
X881895Y480029D01*
X881915Y480044D01*
X882012Y480159D01*
X882112Y480270D01*
X882124Y480291D01*
X882140Y480310D01*
X882208Y480443D01*
X882281Y480575D01*
X882287Y480599D01*
X882298Y480620D01*
X882335Y480765D01*
X882376Y480911D01*
X882378Y480940D01*
X882383Y480958D01*
X882383Y481005D01*
X882395Y481154D01*
X882395Y523732D01*
X882384Y523832D01*
X882382Y523932D01*
X882364Y524004D01*
X882355Y524078D01*
X882322Y524173D01*
X882297Y524270D01*
X882263Y524336D01*
X882238Y524406D01*
X882183Y524491D01*
X882137Y524580D01*
X882089Y524637D01*
X882049Y524699D01*
X881977Y524769D01*
X881912Y524845D01*
X881852Y524890D01*
X881798Y524941D01*
X881712Y524993D01*
X881631Y525053D01*
X881563Y525082D01*
X881499Y525120D01*
X881403Y525151D01*
X881311Y525191D01*
X881238Y525204D01*
X881167Y525226D01*
X881067Y525235D01*
X880968Y525252D01*
X880894Y525248D01*
X880820Y525254D01*
X880720Y525240D01*
X880620Y525234D01*
X880549Y525214D01*
X880475Y525203D01*
X880382Y525166D01*
X880285Y525138D01*
X880220Y525101D01*
X880151Y525074D01*
X880069Y525017D01*
X879981Y524968D01*
X879905Y524903D01*
X879865Y524875D01*
X879841Y524849D01*
X879795Y524809D01*
X875465Y520479D01*
X860735Y520479D01*
X856477Y524737D01*
X856457Y524753D01*
X856440Y524773D01*
X856320Y524862D01*
X856204Y524954D01*
X856180Y524965D01*
X856159Y524981D01*
X856023Y525039D01*
X855889Y525103D01*
X855863Y525108D01*
X855839Y525119D01*
X855693Y525145D01*
X855548Y525176D01*
X855522Y525176D01*
X855496Y525180D01*
X855348Y525173D01*
X855200Y525170D01*
X855174Y525164D01*
X855148Y525162D01*
X855006Y525121D01*
X854862Y525085D01*
X854839Y525073D01*
X854813Y525066D01*
X854684Y524993D01*
X854552Y524925D01*
X854532Y524908D01*
X854509Y524896D01*
X854323Y524737D01*
X850065Y520479D01*
X835335Y520479D01*
X831077Y524737D01*
X831057Y524753D01*
X831040Y524773D01*
X830920Y524862D01*
X830804Y524954D01*
X830780Y524965D01*
X830759Y524981D01*
X830623Y525039D01*
X830489Y525103D01*
X830463Y525108D01*
X830439Y525119D01*
X830293Y525145D01*
X830148Y525176D01*
X830122Y525176D01*
X830096Y525180D01*
X829948Y525173D01*
X829800Y525170D01*
X829774Y525164D01*
X829748Y525162D01*
X829606Y525121D01*
X829462Y525085D01*
X829439Y525073D01*
X829413Y525066D01*
X829284Y524993D01*
X829152Y524925D01*
X829132Y524908D01*
X829109Y524896D01*
X828923Y524737D01*
X824665Y520479D01*
X809935Y520479D01*
X800289Y530125D01*
X800268Y530142D01*
X800251Y530162D01*
X800132Y530250D01*
X800016Y530342D01*
X799992Y530353D01*
X799971Y530369D01*
X799835Y530428D01*
X799701Y530491D01*
X799675Y530496D01*
X799651Y530507D01*
X799505Y530533D01*
X799360Y530564D01*
X799334Y530564D01*
X799308Y530568D01*
X799160Y530561D01*
X799012Y530558D01*
X798986Y530552D01*
X798960Y530551D01*
X798818Y530509D01*
X798674Y530473D01*
X798650Y530461D01*
X798625Y530454D01*
X798496Y530382D01*
X798364Y530314D01*
X798344Y530297D01*
X798321Y530284D01*
X798135Y530125D01*
X796109Y528099D01*
X794439Y528099D01*
X794439Y537244D01*
X794436Y537270D01*
X794438Y537296D01*
X794416Y537443D01*
X794399Y537590D01*
X794391Y537615D01*
X794387Y537641D01*
X794332Y537778D01*
X794282Y537918D01*
X794268Y537940D01*
X794258Y537965D01*
X794173Y538086D01*
X794093Y538211D01*
X794074Y538229D01*
X794059Y538251D01*
X793949Y538350D01*
X793842Y538453D01*
X793820Y538467D01*
X793800Y538484D01*
X793670Y538556D01*
X793543Y538632D01*
X793518Y538640D01*
X793495Y538653D01*
X793352Y538693D01*
X793211Y538738D01*
X793185Y538740D01*
X793160Y538747D01*
X792916Y538767D01*
X790884Y538767D01*
X790858Y538764D01*
X790832Y538766D01*
X790685Y538744D01*
X790538Y538727D01*
X790513Y538718D01*
X790487Y538714D01*
X790349Y538660D01*
X790210Y538610D01*
X790188Y538595D01*
X790163Y538586D01*
X790042Y538501D01*
X789917Y538421D01*
X789899Y538402D01*
X789877Y538387D01*
X789778Y538277D01*
X789675Y538170D01*
X789661Y538147D01*
X789644Y538128D01*
X789572Y537998D01*
X789496Y537871D01*
X789488Y537846D01*
X789475Y537823D01*
X789435Y537680D01*
X789390Y537539D01*
X789387Y537513D01*
X789380Y537488D01*
X789361Y537244D01*
X789361Y528099D01*
X787691Y528099D01*
X781355Y534436D01*
X781334Y534452D01*
X781317Y534472D01*
X781198Y534560D01*
X781082Y534652D01*
X781058Y534664D01*
X781037Y534679D01*
X780901Y534738D01*
X780767Y534801D01*
X780741Y534807D01*
X780717Y534817D01*
X780571Y534844D01*
X780426Y534875D01*
X780400Y534874D01*
X780374Y534879D01*
X780225Y534871D01*
X780077Y534869D01*
X780052Y534862D01*
X780026Y534861D01*
X779883Y534820D01*
X779739Y534784D01*
X779716Y534772D01*
X779691Y534764D01*
X779561Y534692D01*
X779430Y534624D01*
X779410Y534607D01*
X779387Y534594D01*
X779201Y534436D01*
X776671Y531906D01*
X776592Y531807D01*
X776508Y531713D01*
X776484Y531671D01*
X776454Y531633D01*
X776400Y531519D01*
X776339Y531408D01*
X776326Y531362D01*
X776305Y531318D01*
X776279Y531195D01*
X776244Y531073D01*
X776239Y531012D01*
X776232Y530977D01*
X776233Y530929D01*
X776225Y530829D01*
X776225Y493151D01*
X776239Y493025D01*
X776246Y492899D01*
X776259Y492853D01*
X776265Y492805D01*
X776307Y492686D01*
X776342Y492564D01*
X776366Y492522D01*
X776382Y492477D01*
X776451Y492370D01*
X776512Y492260D01*
X776552Y492214D01*
X776571Y492184D01*
X776606Y492150D01*
X776671Y492074D01*
X789254Y479491D01*
X789353Y479412D01*
X789447Y479328D01*
X789489Y479304D01*
X789527Y479274D01*
X789641Y479220D01*
X789752Y479159D01*
X789798Y479146D01*
X789842Y479125D01*
X789965Y479099D01*
X790087Y479064D01*
X790148Y479059D01*
X790183Y479052D01*
X790231Y479053D01*
X790331Y479045D01*
X865232Y479045D01*
X865234Y479045D01*
G37*
%LPC*%
G36*
X639911Y323349D02*
X639911Y323349D01*
X632909Y326250D01*
X627550Y331609D01*
X624649Y338611D01*
X624649Y346189D01*
X627550Y353191D01*
X630043Y355685D01*
X630059Y355705D01*
X630079Y355722D01*
X630167Y355842D01*
X630259Y355958D01*
X630271Y355981D01*
X630286Y356002D01*
X630345Y356139D01*
X630408Y356273D01*
X630414Y356298D01*
X630424Y356322D01*
X630451Y356469D01*
X630482Y356613D01*
X630481Y356640D01*
X630486Y356665D01*
X630478Y356814D01*
X630476Y356962D01*
X630469Y356987D01*
X630468Y357014D01*
X630427Y357156D01*
X630391Y357300D01*
X630379Y357323D01*
X630371Y357348D01*
X630299Y357478D01*
X630231Y357610D01*
X630214Y357630D01*
X630201Y357653D01*
X630043Y357839D01*
X629542Y358340D01*
X626999Y364478D01*
X626999Y371122D01*
X629542Y377260D01*
X631704Y379423D01*
X631721Y379443D01*
X631741Y379460D01*
X631829Y379580D01*
X631921Y379696D01*
X631932Y379720D01*
X631948Y379741D01*
X632007Y379877D01*
X632070Y380011D01*
X632076Y380037D01*
X632086Y380061D01*
X632112Y380207D01*
X632143Y380352D01*
X632143Y380378D01*
X632148Y380404D01*
X632140Y380552D01*
X632137Y380700D01*
X632131Y380726D01*
X632130Y380752D01*
X632089Y380894D01*
X632052Y381038D01*
X632040Y381061D01*
X632033Y381087D01*
X631961Y381216D01*
X631893Y381348D01*
X631876Y381368D01*
X631863Y381391D01*
X631704Y381577D01*
X629542Y383740D01*
X626999Y389878D01*
X626999Y396522D01*
X629542Y402660D01*
X631704Y404823D01*
X631721Y404843D01*
X631741Y404860D01*
X631829Y404980D01*
X631921Y405096D01*
X631932Y405120D01*
X631948Y405141D01*
X632007Y405277D01*
X632070Y405411D01*
X632076Y405437D01*
X632086Y405461D01*
X632112Y405607D01*
X632143Y405752D01*
X632143Y405778D01*
X632148Y405804D01*
X632140Y405952D01*
X632137Y406100D01*
X632131Y406126D01*
X632130Y406152D01*
X632089Y406294D01*
X632052Y406438D01*
X632040Y406461D01*
X632033Y406487D01*
X631961Y406616D01*
X631893Y406748D01*
X631876Y406768D01*
X631863Y406791D01*
X631704Y406977D01*
X629542Y409140D01*
X626999Y415278D01*
X626999Y421922D01*
X629542Y428060D01*
X634240Y432758D01*
X637767Y434219D01*
X637851Y434266D01*
X637939Y434303D01*
X638003Y434350D01*
X638072Y434389D01*
X638143Y434453D01*
X638220Y434510D01*
X638271Y434570D01*
X638330Y434623D01*
X638384Y434701D01*
X638447Y434774D01*
X638483Y434844D01*
X638528Y434909D01*
X638563Y434999D01*
X638607Y435083D01*
X638627Y435160D01*
X638656Y435234D01*
X638670Y435328D01*
X638694Y435421D01*
X638695Y435500D01*
X638707Y435578D01*
X638699Y435674D01*
X638701Y435769D01*
X638685Y435847D01*
X638678Y435926D01*
X638649Y436017D01*
X638629Y436110D01*
X638595Y436182D01*
X638571Y436257D01*
X638522Y436340D01*
X638481Y436426D01*
X638432Y436488D01*
X638391Y436556D01*
X638324Y436625D01*
X638265Y436700D01*
X638183Y436771D01*
X638148Y436806D01*
X638121Y436824D01*
X638080Y436859D01*
X637784Y437074D01*
X636774Y438084D01*
X635933Y439241D01*
X635285Y440514D01*
X634843Y441874D01*
X634823Y442001D01*
X643224Y442001D01*
X643250Y442004D01*
X643276Y442002D01*
X643423Y442024D01*
X643570Y442041D01*
X643595Y442049D01*
X643621Y442053D01*
X643702Y442086D01*
X643740Y442075D01*
X643881Y442030D01*
X643907Y442027D01*
X643932Y442020D01*
X644176Y442001D01*
X652577Y442001D01*
X652557Y441874D01*
X652115Y440514D01*
X651467Y439241D01*
X650626Y438084D01*
X649616Y437074D01*
X649320Y436859D01*
X649250Y436794D01*
X649173Y436737D01*
X649122Y436677D01*
X649064Y436623D01*
X649010Y436544D01*
X648948Y436471D01*
X648912Y436401D01*
X648867Y436335D01*
X648833Y436246D01*
X648789Y436161D01*
X648770Y436084D01*
X648741Y436010D01*
X648728Y435916D01*
X648705Y435823D01*
X648704Y435744D01*
X648693Y435665D01*
X648701Y435570D01*
X648700Y435474D01*
X648717Y435397D01*
X648724Y435318D01*
X648754Y435227D01*
X648774Y435134D01*
X648808Y435062D01*
X648833Y434987D01*
X648883Y434905D01*
X648924Y434819D01*
X648973Y434757D01*
X649015Y434690D01*
X649082Y434621D01*
X649141Y434547D01*
X649204Y434498D01*
X649259Y434441D01*
X649340Y434390D01*
X649415Y434331D01*
X649512Y434281D01*
X649554Y434255D01*
X649584Y434244D01*
X649633Y434219D01*
X653160Y432758D01*
X657858Y428060D01*
X660401Y421922D01*
X660401Y415278D01*
X657858Y409140D01*
X655696Y406977D01*
X655679Y406956D01*
X655659Y406940D01*
X655571Y406820D01*
X655479Y406704D01*
X655468Y406680D01*
X655452Y406659D01*
X655393Y406523D01*
X655330Y406389D01*
X655324Y406363D01*
X655314Y406339D01*
X655288Y406193D01*
X655257Y406048D01*
X655257Y406022D01*
X655252Y405996D01*
X655260Y405848D01*
X655263Y405700D01*
X655269Y405674D01*
X655270Y405648D01*
X655311Y405506D01*
X655348Y405362D01*
X655360Y405339D01*
X655367Y405313D01*
X655439Y405184D01*
X655507Y405052D01*
X655524Y405032D01*
X655537Y405009D01*
X655696Y404823D01*
X657858Y402660D01*
X660401Y396522D01*
X660401Y389878D01*
X657858Y383740D01*
X655696Y381577D01*
X655679Y381556D01*
X655659Y381540D01*
X655571Y381420D01*
X655479Y381304D01*
X655468Y381280D01*
X655452Y381259D01*
X655393Y381123D01*
X655330Y380989D01*
X655324Y380963D01*
X655314Y380939D01*
X655288Y380793D01*
X655257Y380648D01*
X655257Y380622D01*
X655252Y380596D01*
X655260Y380448D01*
X655263Y380300D01*
X655269Y380274D01*
X655270Y380248D01*
X655311Y380106D01*
X655348Y379962D01*
X655360Y379939D01*
X655367Y379913D01*
X655439Y379784D01*
X655507Y379652D01*
X655524Y379632D01*
X655537Y379609D01*
X655696Y379423D01*
X657858Y377260D01*
X660401Y371122D01*
X660401Y364478D01*
X657858Y358340D01*
X657357Y357839D01*
X657341Y357818D01*
X657321Y357801D01*
X657233Y357682D01*
X657141Y357566D01*
X657129Y357542D01*
X657114Y357521D01*
X657055Y357385D01*
X656992Y357251D01*
X656986Y357225D01*
X656976Y357201D01*
X656950Y357055D01*
X656918Y356910D01*
X656919Y356884D01*
X656914Y356858D01*
X656922Y356709D01*
X656924Y356562D01*
X656931Y356536D01*
X656932Y356510D01*
X656973Y356367D01*
X657009Y356224D01*
X657021Y356200D01*
X657029Y356175D01*
X657101Y356046D01*
X657169Y355914D01*
X657186Y355894D01*
X657199Y355871D01*
X657357Y355685D01*
X659850Y353191D01*
X662751Y346189D01*
X662751Y338611D01*
X659850Y331609D01*
X654491Y326250D01*
X647489Y323349D01*
X639911Y323349D01*
G37*
%LPD*%
%LPC*%
G36*
X972756Y505055D02*
X972756Y505055D01*
X962935Y514876D01*
X962935Y528764D01*
X969169Y534998D01*
X969248Y535097D01*
X969332Y535191D01*
X969356Y535233D01*
X969386Y535271D01*
X969440Y535385D01*
X969501Y535496D01*
X969514Y535542D01*
X969535Y535586D01*
X969561Y535709D01*
X969596Y535831D01*
X969601Y535892D01*
X969608Y535927D01*
X969607Y535975D01*
X969615Y536075D01*
X969615Y569325D01*
X969601Y569451D01*
X969594Y569577D01*
X969581Y569623D01*
X969575Y569671D01*
X969533Y569790D01*
X969498Y569912D01*
X969474Y569954D01*
X969458Y569999D01*
X969389Y570105D01*
X969328Y570216D01*
X969288Y570262D01*
X969269Y570292D01*
X969234Y570326D01*
X969169Y570402D01*
X964535Y575036D01*
X964535Y588924D01*
X974356Y598745D01*
X988244Y598745D01*
X998065Y588924D01*
X998065Y575036D01*
X993431Y570402D01*
X993352Y570303D01*
X993268Y570209D01*
X993244Y570167D01*
X993214Y570129D01*
X993160Y570015D01*
X993099Y569904D01*
X993086Y569858D01*
X993065Y569814D01*
X993039Y569691D01*
X993004Y569569D01*
X992999Y569508D01*
X992992Y569473D01*
X992993Y569425D01*
X992985Y569325D01*
X992985Y532875D01*
X992999Y532749D01*
X993006Y532623D01*
X993019Y532577D01*
X993025Y532529D01*
X993067Y532410D01*
X993102Y532288D01*
X993126Y532246D01*
X993142Y532201D01*
X993211Y532095D01*
X993272Y531984D01*
X993312Y531938D01*
X993331Y531908D01*
X993366Y531874D01*
X993431Y531798D01*
X996465Y528764D01*
X996465Y514876D01*
X986644Y505055D01*
X972756Y505055D01*
G37*
%LPD*%
%LPC*%
G36*
X96688Y74839D02*
X96688Y74839D01*
X90288Y76554D01*
X84551Y79866D01*
X79866Y84551D01*
X76554Y90288D01*
X74839Y96688D01*
X74839Y103312D01*
X76554Y109712D01*
X79866Y115449D01*
X84551Y120134D01*
X90288Y123446D01*
X96688Y125161D01*
X103312Y125161D01*
X109712Y123446D01*
X115449Y120134D01*
X120134Y115449D01*
X123446Y109712D01*
X125161Y103312D01*
X125161Y96688D01*
X123446Y90288D01*
X120134Y84551D01*
X115449Y79866D01*
X109712Y76554D01*
X103312Y74839D01*
X96688Y74839D01*
G37*
%LPD*%
%LPC*%
G36*
X196688Y714839D02*
X196688Y714839D01*
X190288Y716554D01*
X184551Y719866D01*
X179866Y724551D01*
X176554Y730288D01*
X174839Y736688D01*
X174839Y743312D01*
X176554Y749712D01*
X179866Y755449D01*
X184551Y760134D01*
X190288Y763446D01*
X196688Y765161D01*
X203312Y765161D01*
X209712Y763446D01*
X215449Y760134D01*
X220134Y755449D01*
X223446Y749712D01*
X225161Y743312D01*
X225161Y736688D01*
X223446Y730288D01*
X220134Y724551D01*
X215449Y719866D01*
X209712Y716554D01*
X203312Y714839D01*
X196688Y714839D01*
G37*
%LPD*%
%LPC*%
G36*
X1376688Y714839D02*
X1376688Y714839D01*
X1370288Y716554D01*
X1364551Y719866D01*
X1359866Y724551D01*
X1356554Y730288D01*
X1354839Y736688D01*
X1354839Y743312D01*
X1356554Y749712D01*
X1359866Y755449D01*
X1364551Y760134D01*
X1370288Y763446D01*
X1376688Y765161D01*
X1383312Y765161D01*
X1389712Y763446D01*
X1395449Y760134D01*
X1400134Y755449D01*
X1403446Y749712D01*
X1405161Y743312D01*
X1405161Y736688D01*
X1403446Y730288D01*
X1400134Y724551D01*
X1395449Y719866D01*
X1389712Y716554D01*
X1383312Y714839D01*
X1376688Y714839D01*
G37*
%LPD*%
%LPC*%
G36*
X1456688Y74839D02*
X1456688Y74839D01*
X1450288Y76554D01*
X1444551Y79866D01*
X1439866Y84551D01*
X1436554Y90288D01*
X1434839Y96688D01*
X1434839Y103312D01*
X1436554Y109712D01*
X1439866Y115449D01*
X1444551Y120134D01*
X1450288Y123446D01*
X1456688Y125161D01*
X1463312Y125161D01*
X1469712Y123446D01*
X1475449Y120134D01*
X1480134Y115449D01*
X1483446Y109712D01*
X1485161Y103312D01*
X1485161Y96688D01*
X1483446Y90288D01*
X1480134Y84551D01*
X1475449Y79866D01*
X1469712Y76554D01*
X1463312Y74839D01*
X1456688Y74839D01*
G37*
%LPD*%
%LPC*%
G36*
X1391355Y59613D02*
X1391355Y59613D01*
X1384820Y62320D01*
X1379818Y67322D01*
X1377111Y73857D01*
X1377111Y80931D01*
X1379818Y87466D01*
X1384820Y92468D01*
X1391355Y95175D01*
X1413669Y95175D01*
X1420204Y92468D01*
X1425206Y87466D01*
X1427913Y80931D01*
X1427913Y73857D01*
X1425206Y67322D01*
X1420204Y62320D01*
X1413669Y59613D01*
X1391355Y59613D01*
G37*
%LPD*%
%LPC*%
G36*
X1268455Y64113D02*
X1268455Y64113D01*
X1261920Y66820D01*
X1256918Y71822D01*
X1254211Y78357D01*
X1254211Y85431D01*
X1256918Y91966D01*
X1261920Y96968D01*
X1268455Y99675D01*
X1290769Y99675D01*
X1297304Y96968D01*
X1302306Y91966D01*
X1305013Y85431D01*
X1305013Y78357D01*
X1302306Y71822D01*
X1297304Y66820D01*
X1290769Y64113D01*
X1268455Y64113D01*
G37*
%LPD*%
%LPC*%
G36*
X265779Y568079D02*
X265779Y568079D01*
X265779Y583019D01*
X267140Y582576D01*
X268565Y581850D01*
X269859Y580910D01*
X270990Y579779D01*
X271930Y578485D01*
X272656Y577060D01*
X273151Y575539D01*
X273401Y573960D01*
X273401Y568079D01*
X265779Y568079D01*
G37*
%LPD*%
%LPC*%
G36*
X1381919Y596019D02*
X1381919Y596019D01*
X1381919Y610959D01*
X1383280Y610516D01*
X1384705Y609790D01*
X1385999Y608850D01*
X1387130Y607719D01*
X1388070Y606425D01*
X1388796Y605000D01*
X1389291Y603479D01*
X1389541Y601900D01*
X1389541Y596019D01*
X1381919Y596019D01*
G37*
%LPD*%
%LPC*%
G36*
X1381919Y590941D02*
X1381919Y590941D01*
X1389541Y590941D01*
X1389541Y585060D01*
X1389291Y583481D01*
X1388796Y581960D01*
X1388070Y580535D01*
X1387130Y579241D01*
X1385999Y578110D01*
X1384705Y577170D01*
X1383280Y576444D01*
X1381919Y576001D01*
X1381919Y590941D01*
G37*
%LPD*%
%LPC*%
G36*
X265779Y563001D02*
X265779Y563001D01*
X273401Y563001D01*
X273401Y557120D01*
X273151Y555541D01*
X272656Y554020D01*
X271930Y552595D01*
X270990Y551301D01*
X269859Y550170D01*
X268565Y549230D01*
X267140Y548504D01*
X265779Y548061D01*
X265779Y563001D01*
G37*
%LPD*%
%LPC*%
G36*
X1310239Y645959D02*
X1310239Y645959D01*
X1310239Y653581D01*
X1325179Y653581D01*
X1324736Y652220D01*
X1324010Y650795D01*
X1323070Y649501D01*
X1321939Y648370D01*
X1320645Y647430D01*
X1319220Y646704D01*
X1317699Y646209D01*
X1316120Y645959D01*
X1310239Y645959D01*
G37*
%LPD*%
%LPC*%
G36*
X467939Y222219D02*
X467939Y222219D01*
X467939Y229841D01*
X482879Y229841D01*
X482436Y228480D01*
X481710Y227055D01*
X480770Y225761D01*
X479639Y224630D01*
X478345Y223690D01*
X476920Y222964D01*
X475399Y222469D01*
X473820Y222219D01*
X467939Y222219D01*
G37*
%LPD*%
%LPC*%
G36*
X1299280Y645959D02*
X1299280Y645959D01*
X1297701Y646209D01*
X1296180Y646704D01*
X1294755Y647430D01*
X1293461Y648370D01*
X1292330Y649501D01*
X1291390Y650795D01*
X1290664Y652220D01*
X1290221Y653581D01*
X1305161Y653581D01*
X1305161Y645959D01*
X1299280Y645959D01*
G37*
%LPD*%
%LPC*%
G36*
X456980Y222219D02*
X456980Y222219D01*
X455401Y222469D01*
X453880Y222964D01*
X452455Y223690D01*
X451161Y224630D01*
X450030Y225761D01*
X449090Y227055D01*
X448364Y228480D01*
X447921Y229841D01*
X462861Y229841D01*
X462861Y222219D01*
X456980Y222219D01*
G37*
%LPD*%
%LPC*%
G36*
X389171Y480431D02*
X389171Y480431D01*
X389171Y487545D01*
X390928Y487545D01*
X396285Y482188D01*
X396285Y480431D01*
X389171Y480431D01*
G37*
%LPD*%
%LPC*%
G36*
X1079171Y382031D02*
X1079171Y382031D01*
X1079171Y389145D01*
X1080928Y389145D01*
X1086285Y383788D01*
X1086285Y382031D01*
X1079171Y382031D01*
G37*
%LPD*%
%LPC*%
G36*
X206711Y480411D02*
X206711Y480411D01*
X206711Y487525D01*
X208468Y487525D01*
X213825Y482168D01*
X213825Y480411D01*
X206711Y480411D01*
G37*
%LPD*%
%LPC*%
G36*
X1080171Y326391D02*
X1080171Y326391D01*
X1080171Y333505D01*
X1081928Y333505D01*
X1087285Y328148D01*
X1087285Y326391D01*
X1080171Y326391D01*
G37*
%LPD*%
%LPC*%
G36*
X377995Y480431D02*
X377995Y480431D01*
X377995Y482188D01*
X383352Y487545D01*
X385109Y487545D01*
X385109Y480431D01*
X377995Y480431D01*
G37*
%LPD*%
%LPC*%
G36*
X990175Y682111D02*
X990175Y682111D01*
X990175Y683868D01*
X995532Y689225D01*
X997289Y689225D01*
X997289Y682111D01*
X990175Y682111D01*
G37*
%LPD*%
%LPC*%
G36*
X1079171Y370855D02*
X1079171Y370855D01*
X1079171Y377969D01*
X1086285Y377969D01*
X1086285Y376212D01*
X1080928Y370855D01*
X1079171Y370855D01*
G37*
%LPD*%
%LPC*%
G36*
X1067995Y382031D02*
X1067995Y382031D01*
X1067995Y383788D01*
X1073352Y389145D01*
X1075109Y389145D01*
X1075109Y382031D01*
X1067995Y382031D01*
G37*
%LPD*%
%LPC*%
G36*
X206711Y469235D02*
X206711Y469235D01*
X206711Y476349D01*
X213825Y476349D01*
X213825Y474592D01*
X208468Y469235D01*
X206711Y469235D01*
G37*
%LPD*%
%LPC*%
G36*
X1068995Y326391D02*
X1068995Y326391D01*
X1068995Y328148D01*
X1074352Y333505D01*
X1076109Y333505D01*
X1076109Y326391D01*
X1068995Y326391D01*
G37*
%LPD*%
%LPC*%
G36*
X1094795Y682111D02*
X1094795Y682111D01*
X1094795Y683868D01*
X1100152Y689225D01*
X1101909Y689225D01*
X1101909Y682111D01*
X1094795Y682111D01*
G37*
%LPD*%
%LPC*%
G36*
X1080171Y315215D02*
X1080171Y315215D01*
X1080171Y322329D01*
X1087285Y322329D01*
X1087285Y320572D01*
X1081928Y315215D01*
X1080171Y315215D01*
G37*
%LPD*%
%LPC*%
G36*
X389171Y469255D02*
X389171Y469255D01*
X389171Y476369D01*
X396285Y476369D01*
X396285Y474612D01*
X390928Y469255D01*
X389171Y469255D01*
G37*
%LPD*%
%LPC*%
G36*
X995532Y670935D02*
X995532Y670935D01*
X990175Y676292D01*
X990175Y678049D01*
X997289Y678049D01*
X997289Y670935D01*
X995532Y670935D01*
G37*
%LPD*%
%LPC*%
G36*
X1100152Y670935D02*
X1100152Y670935D01*
X1094795Y676292D01*
X1094795Y678049D01*
X1101909Y678049D01*
X1101909Y670935D01*
X1100152Y670935D01*
G37*
%LPD*%
%LPC*%
G36*
X1074352Y315215D02*
X1074352Y315215D01*
X1068995Y320572D01*
X1068995Y322329D01*
X1076109Y322329D01*
X1076109Y315215D01*
X1074352Y315215D01*
G37*
%LPD*%
%LPC*%
G36*
X1073352Y370855D02*
X1073352Y370855D01*
X1067995Y376212D01*
X1067995Y377969D01*
X1075109Y377969D01*
X1075109Y370855D01*
X1073352Y370855D01*
G37*
%LPD*%
%LPC*%
G36*
X383352Y469255D02*
X383352Y469255D01*
X377995Y474612D01*
X377995Y476369D01*
X385109Y476369D01*
X385109Y469255D01*
X383352Y469255D01*
G37*
%LPD*%
D10*
X491300Y723400D03*
D11*
X491300Y698000D03*
X491300Y672600D03*
X491300Y647200D03*
X491300Y621800D03*
X491300Y596400D03*
X491300Y571000D03*
X491300Y545600D03*
X491300Y520200D03*
X491300Y494800D03*
X491300Y469400D03*
X491300Y444000D03*
X491300Y418600D03*
X491300Y393200D03*
X491300Y367800D03*
X643700Y367800D03*
X643700Y393200D03*
X643700Y418600D03*
X643700Y444000D03*
X643700Y469400D03*
X643700Y494800D03*
X643700Y520200D03*
X643700Y545600D03*
X643700Y571000D03*
X643700Y596400D03*
X643700Y621800D03*
X643700Y647200D03*
X643700Y672600D03*
X643700Y698000D03*
X643700Y723400D03*
D12*
X1103940Y680080D03*
X1129340Y680080D03*
X999320Y680080D03*
X1024720Y680080D03*
D13*
X1206968Y127106D02*
X1222208Y127106D01*
X1222208Y81894D02*
X1206968Y81894D01*
X1271992Y127106D02*
X1287232Y127106D01*
X1287232Y81894D02*
X1271992Y81894D01*
D14*
X1170660Y581340D03*
X1094460Y581340D03*
X1169720Y522120D03*
X1093520Y522120D03*
X1055900Y521820D03*
X979700Y521820D03*
X1057500Y581980D03*
X981300Y581980D03*
X1154340Y324360D03*
X1078140Y324360D03*
D15*
X387852Y639531D02*
X387852Y669630D01*
X347720Y669630D02*
X347720Y639531D01*
X307588Y639531D02*
X307588Y669630D01*
D13*
X1300080Y681520D02*
X1315320Y681520D01*
X1315320Y656120D02*
X1300080Y656120D01*
X1007460Y273640D02*
X992220Y273640D01*
X992220Y299040D02*
X1007460Y299040D01*
X1007460Y324440D02*
X992220Y324440D01*
X992220Y349840D02*
X1007460Y349840D01*
X1007460Y375240D02*
X992220Y375240D01*
X992220Y400640D02*
X1007460Y400640D01*
D14*
X1153340Y380000D03*
X1077140Y380000D03*
D13*
X1329868Y122606D02*
X1345108Y122606D01*
X1345108Y77394D02*
X1329868Y77394D01*
X1394892Y122606D02*
X1410132Y122606D01*
X1410132Y77394D02*
X1394892Y77394D01*
D14*
X387140Y478400D03*
X310940Y478400D03*
X280880Y478380D03*
X204680Y478380D03*
D13*
X263240Y557920D02*
X263240Y573160D01*
X237840Y573160D02*
X237840Y557920D01*
X212440Y557920D02*
X212440Y573160D01*
X187040Y573160D02*
X187040Y557920D01*
X1379380Y585860D02*
X1379380Y601100D01*
X1353980Y601100D02*
X1353980Y585860D01*
X1328580Y585860D02*
X1328580Y601100D01*
X1303180Y601100D02*
X1303180Y585860D01*
X473020Y232380D02*
X457780Y232380D01*
X457780Y257780D02*
X473020Y257780D01*
D16*
X791900Y538260D03*
X791900Y563660D03*
X817300Y538260D03*
X817300Y563660D03*
X842700Y538260D03*
X842700Y563660D03*
X868100Y538260D03*
X868100Y563660D03*
D17*
X1190630Y701040D02*
X1207130Y701040D01*
X1207130Y675640D02*
X1190630Y675640D01*
X1190630Y650240D02*
X1207130Y650240D01*
D13*
X314960Y45720D02*
X314960Y30480D01*
X289560Y30480D02*
X289560Y45720D01*
X264160Y45720D02*
X264160Y30480D01*
X238760Y30480D02*
X238760Y45720D01*
X213360Y45720D02*
X213360Y30480D01*
X187960Y30480D02*
X187960Y45720D01*
D18*
X1093140Y690880D02*
X1103940Y680080D01*
X1010120Y690880D02*
X999320Y680080D01*
X1010120Y690880D02*
X1093140Y690880D01*
X1077140Y380000D02*
X1077140Y325360D01*
X1078140Y324360D01*
X1077140Y380000D02*
X1077140Y444680D01*
X1130300Y497840D01*
X1130300Y627380D01*
X1103940Y653740D02*
X1103940Y680080D01*
X1103940Y653740D02*
X1130300Y627380D01*
X204680Y501240D02*
X204680Y478380D01*
X204680Y501240D02*
X219060Y515620D01*
X243840Y515620D01*
X263240Y535020D01*
X263240Y565540D01*
X1307700Y656120D02*
X1353020Y656120D01*
X1379380Y629760D02*
X1379380Y593480D01*
X1379380Y629760D02*
X1353020Y656120D01*
X512580Y393200D02*
X491300Y393200D01*
X512580Y393200D02*
X563880Y444500D01*
D19*
X563880Y444500D03*
D18*
X516120Y367800D02*
X491300Y367800D01*
X516120Y367800D02*
X553720Y330200D01*
X553720Y302260D01*
X647860Y208120D01*
X1059020Y208120D01*
X1112520Y261620D01*
X1112520Y452120D01*
X1135380Y474980D01*
X1165860Y474980D01*
X1191260Y500380D01*
X1191260Y586740D01*
X1198880Y675640D02*
X1226820Y675640D01*
X1239520Y662940D01*
X1239520Y635000D01*
X1191260Y586740D01*
X1198880Y701040D02*
X1254760Y701040D01*
X1275080Y680720D01*
X1306900Y680720D01*
X1307700Y681520D01*
X465400Y257780D02*
X462280Y260900D01*
X462280Y434340D01*
X471940Y444000D01*
X491300Y444000D01*
X1312088Y148006D02*
X1337488Y122606D01*
X1312088Y148006D02*
X1235488Y148006D01*
X1214588Y127106D01*
X1229254Y127106D01*
X347720Y654580D02*
X347720Y751840D01*
X421640Y751840D01*
X452120Y721360D02*
X452120Y541020D01*
D19*
X452120Y541020D03*
D18*
X452120Y721360D02*
X421640Y751840D01*
D19*
X767080Y627380D03*
D18*
X767080Y611340D01*
X791900Y586520D01*
X791900Y563660D01*
X1353980Y593480D02*
X1353980Y493240D01*
X1268410Y407670D02*
X1266190Y407670D01*
X1268410Y407670D02*
X1353980Y493240D01*
D19*
X1266190Y407670D03*
D18*
X465400Y257780D02*
X415260Y257780D01*
X314960Y157480D01*
X237840Y593440D02*
X251460Y607060D01*
X237840Y593440D02*
X237840Y565540D01*
X251460Y607060D02*
X330200Y607060D01*
X347720Y624580D02*
X347720Y654580D01*
X347720Y624580D02*
X330200Y607060D01*
X977900Y467360D02*
X1005840Y439420D01*
X1028700Y439420D02*
X1056640Y411480D01*
X1028700Y439420D02*
X1005840Y439420D01*
D19*
X1056640Y411480D03*
X551180Y670560D03*
D18*
X314960Y157480D02*
X314960Y38100D01*
D19*
X949960Y467360D03*
X873760Y467360D03*
D18*
X784860Y467360D01*
X764540Y487680D01*
X764540Y536300D01*
X791900Y563660D01*
X949960Y467360D02*
X977900Y467360D01*
X551180Y469900D02*
X551180Y670560D01*
X525280Y444000D02*
X491300Y444000D01*
X525280Y444000D02*
X551180Y469900D01*
X643700Y723400D02*
X853940Y723400D01*
X929640Y647700D01*
X929640Y421640D01*
X976040Y375240D02*
X999840Y375240D01*
X976040Y375240D02*
X929640Y421640D01*
X861560Y698000D02*
X643700Y698000D01*
X919480Y640080D02*
X919480Y396240D01*
X965880Y349840D01*
X999840Y349840D01*
X919480Y640080D02*
X861560Y698000D01*
X861560Y672600D02*
X643700Y672600D01*
X963340Y299040D02*
X999840Y299040D01*
X906780Y627380D02*
X861560Y672600D01*
X906780Y627380D02*
X906780Y355600D01*
X963340Y299040D01*
X554220Y723400D02*
X491300Y723400D01*
X589280Y688340D02*
X589280Y294640D01*
X657860Y226060D01*
X1033780Y226060D01*
X1049020Y241300D01*
X1049020Y304800D01*
X1029380Y324440D01*
X999840Y324440D01*
X589280Y688340D02*
X554220Y723400D01*
X643700Y647200D02*
X853940Y647200D01*
X894080Y607060D02*
X894080Y342900D01*
X963340Y273640D01*
X999840Y273640D01*
X894080Y607060D02*
X853940Y647200D01*
X1094460Y581340D02*
X1094460Y523060D01*
X1093520Y522120D01*
X1093520Y519580D01*
X1056540Y482600D01*
X1036320Y482600D01*
D19*
X1036320Y482600D03*
D18*
X981300Y523420D02*
X981300Y581980D01*
X981300Y523420D02*
X979700Y521820D01*
X1170660Y523060D02*
X1170660Y581340D01*
X1170660Y523060D02*
X1169720Y522120D01*
X1129340Y658820D02*
X1129340Y680080D01*
X1170660Y617500D02*
X1170660Y581340D01*
X1170660Y617500D02*
X1129340Y658820D01*
X1057500Y647300D02*
X1024720Y680080D01*
X1057500Y647300D02*
X1057500Y581980D01*
X1057500Y523420D01*
X1055900Y521820D01*
X686300Y545600D02*
X643700Y545600D01*
X686300Y545600D02*
X728980Y502920D01*
X728980Y314960D01*
D19*
X728980Y314960D03*
X1107280Y194940D03*
D18*
X1107280Y228440D02*
X1154340Y275500D01*
X1107280Y228440D02*
X1107280Y194940D01*
X1154340Y275500D02*
X1154340Y324360D01*
X1107280Y194940D02*
X1107280Y146882D01*
X1106800Y137800D01*
X1163320Y81280D01*
X1213974Y81280D01*
X1214588Y81894D01*
X1337488Y77394D02*
X1369060Y108966D01*
X1369060Y330200D01*
X1319260Y380000D01*
X1153340Y380000D01*
X691380Y571000D02*
X643700Y571000D01*
D19*
X749300Y297180D03*
D18*
X749300Y513080D02*
X691380Y571000D01*
X749300Y513080D02*
X749300Y297180D01*
X436880Y345440D02*
X436880Y474980D01*
X482100Y520200D01*
X491300Y520200D01*
X436880Y345440D02*
X264160Y172720D01*
X264160Y38100D01*
X238760Y175260D02*
X419100Y355600D01*
X419100Y485140D01*
X479560Y545600D02*
X491300Y545600D01*
X479560Y545600D02*
X419100Y485140D01*
X238760Y175260D02*
X238760Y38100D01*
X341630Y781050D02*
X554990Y781050D01*
X614680Y721360D01*
X614680Y650820D01*
X643700Y621800D01*
X160020Y599440D02*
X160020Y530860D01*
X160020Y599440D02*
X341630Y781050D01*
X187960Y502920D02*
X187960Y38100D01*
X187960Y502920D02*
X160020Y530860D01*
X387140Y653868D02*
X387852Y654580D01*
X387852Y617820D01*
X310940Y537588D01*
X310940Y478400D01*
X307588Y654580D02*
X307588Y729228D01*
X347734Y769374D02*
X548886Y769374D01*
X604520Y713740D02*
X604520Y541020D01*
X625340Y520200D01*
X643700Y520200D01*
X347734Y769374D02*
X307588Y729228D01*
X548886Y769374D02*
X604520Y713740D01*
X307340Y571500D02*
X307340Y553720D01*
X293580Y539960D01*
X293580Y491080D01*
X280880Y478380D01*
D19*
X307340Y571500D03*
X871220Y431800D03*
D18*
X772160Y431800D01*
D19*
X772160Y431800D03*
X871220Y449580D03*
D18*
X769620Y449580D01*
D19*
X769620Y449580D03*
X533400Y505460D03*
D18*
X491300Y571000D02*
X491800Y571500D01*
X533400Y558800D02*
X533400Y505460D01*
X533400Y558800D02*
X520700Y571500D01*
X491800Y571500D01*
M02*
