G04 EAGLE Gerber RS-274X export*
G75*
%MOMM*%
%FSLAX34Y34*%
%LPD*%
%IN*%
%IPPOS*%
%AMOC8*
5,1,8,0,0,1.08239X$1,22.5*%
G01*
%ADD10C,0.254000*%


D10*
X20228Y117031D02*
X19118Y108378D01*
X18767Y99662D01*
X19177Y90947D01*
X20345Y82302D01*
X22262Y73791D01*
X24914Y65480D01*
X28279Y57432D01*
X32334Y49707D01*
X37046Y42365D01*
X42380Y35462D01*
X48296Y29050D01*
X54747Y23178D01*
X61687Y17891D01*
X69060Y13229D01*
X76812Y9227D01*
X84883Y5916D01*
X93212Y3320D01*
X101735Y1461D01*
X110388Y352D01*
X118767Y0D01*
X379249Y0D01*
X387964Y381D01*
X396613Y1519D01*
X405130Y3407D01*
X413451Y6031D01*
X421510Y9369D01*
X429248Y13397D01*
X436606Y18085D01*
X443527Y23396D01*
X449959Y29289D01*
X455853Y35721D01*
X461164Y42642D01*
X465851Y50000D01*
X469879Y57738D01*
X473218Y65798D01*
X473548Y66718D01*
X486452Y103282D01*
X489712Y111374D01*
X493664Y119151D01*
X498280Y126554D01*
X503523Y133527D01*
X509353Y140016D01*
X515727Y145973D01*
X522596Y151351D01*
X529908Y156110D01*
X537606Y160213D01*
X545633Y163631D01*
X553927Y166335D01*
X562425Y168306D01*
X571063Y169530D01*
X579774Y169995D01*
X580752Y170000D01*
X979249Y170000D01*
X987964Y169619D01*
X996613Y168481D01*
X1005130Y166593D01*
X1013451Y163969D01*
X1021510Y160631D01*
X1029249Y156603D01*
X1036606Y151915D01*
X1043527Y146604D01*
X1049959Y140711D01*
X1055853Y134279D01*
X1061164Y127358D01*
X1065851Y120000D01*
X1069879Y112262D01*
X1073218Y104202D01*
X1073548Y103282D01*
X1086452Y66718D01*
X1089712Y58626D01*
X1093664Y50849D01*
X1098280Y43446D01*
X1103523Y36473D01*
X1109353Y29984D01*
X1115727Y24027D01*
X1122596Y18649D01*
X1129908Y13890D01*
X1137606Y9787D01*
X1145633Y6369D01*
X1153927Y3665D01*
X1162425Y1694D01*
X1171063Y470D01*
X1179774Y5D01*
X1180752Y0D01*
X1444094Y0D01*
X1452809Y381D01*
X1461459Y1519D01*
X1469976Y3407D01*
X1478296Y6031D01*
X1486356Y9369D01*
X1494094Y13397D01*
X1501451Y18085D01*
X1508372Y23396D01*
X1514804Y29289D01*
X1520698Y35721D01*
X1526009Y42642D01*
X1530696Y50000D01*
X1534724Y57738D01*
X1538063Y65798D01*
X1540686Y74118D01*
X1542574Y82635D01*
X1543713Y91284D01*
X1544094Y100000D01*
X1543713Y108716D01*
X1543014Y114655D01*
X1452644Y724655D01*
X1450990Y733221D01*
X1448596Y741610D01*
X1445480Y749758D01*
X1441666Y757604D01*
X1437182Y765087D01*
X1432063Y772152D01*
X1426348Y778743D01*
X1420081Y784811D01*
X1413308Y790310D01*
X1406082Y795197D01*
X1398457Y799437D01*
X1390492Y802995D01*
X1382247Y805846D01*
X1373785Y807967D01*
X1365170Y809343D01*
X1356468Y809962D01*
X1353723Y810000D01*
X224199Y810000D01*
X215483Y809619D01*
X206834Y808481D01*
X198317Y806593D01*
X189997Y803969D01*
X181937Y800631D01*
X174199Y796603D01*
X166841Y791915D01*
X159920Y786604D01*
X153488Y780711D01*
X147594Y774279D01*
X142284Y767358D01*
X137596Y760000D01*
X133568Y752262D01*
X130229Y744202D01*
X127606Y735882D01*
X125718Y727365D01*
X125660Y727031D01*
X20228Y117031D01*
X215000Y739464D02*
X214924Y738396D01*
X214771Y737335D01*
X214543Y736288D01*
X214241Y735260D01*
X213867Y734256D01*
X213422Y733281D01*
X212908Y732341D01*
X212329Y731440D01*
X211687Y730582D01*
X210985Y729772D01*
X210228Y729015D01*
X209418Y728313D01*
X208560Y727671D01*
X207659Y727092D01*
X206719Y726578D01*
X205744Y726133D01*
X204740Y725759D01*
X203712Y725457D01*
X202665Y725229D01*
X201604Y725076D01*
X200536Y725000D01*
X199464Y725000D01*
X198396Y725076D01*
X197335Y725229D01*
X196288Y725457D01*
X195260Y725759D01*
X194256Y726133D01*
X193281Y726578D01*
X192341Y727092D01*
X191440Y727671D01*
X190582Y728313D01*
X189772Y729015D01*
X189015Y729772D01*
X188313Y730582D01*
X187671Y731440D01*
X187092Y732341D01*
X186578Y733281D01*
X186133Y734256D01*
X185759Y735260D01*
X185457Y736288D01*
X185229Y737335D01*
X185076Y738396D01*
X185000Y739464D01*
X185000Y740536D01*
X185076Y741604D01*
X185229Y742665D01*
X185457Y743712D01*
X185759Y744740D01*
X186133Y745744D01*
X186578Y746719D01*
X187092Y747659D01*
X187671Y748560D01*
X188313Y749418D01*
X189015Y750228D01*
X189772Y750985D01*
X190582Y751687D01*
X191440Y752329D01*
X192341Y752908D01*
X193281Y753422D01*
X194256Y753867D01*
X195260Y754241D01*
X196288Y754543D01*
X197335Y754771D01*
X198396Y754924D01*
X199464Y755000D01*
X200536Y755000D01*
X201604Y754924D01*
X202665Y754771D01*
X203712Y754543D01*
X204740Y754241D01*
X205744Y753867D01*
X206719Y753422D01*
X207659Y752908D01*
X208560Y752329D01*
X209418Y751687D01*
X210228Y750985D01*
X210985Y750228D01*
X211687Y749418D01*
X212329Y748560D01*
X212908Y747659D01*
X213422Y746719D01*
X213867Y745744D01*
X214241Y744740D01*
X214543Y743712D01*
X214771Y742665D01*
X214924Y741604D01*
X215000Y740536D01*
X215000Y739464D01*
X1395000Y739464D02*
X1394924Y738396D01*
X1394771Y737335D01*
X1394543Y736288D01*
X1394241Y735260D01*
X1393867Y734256D01*
X1393422Y733281D01*
X1392908Y732341D01*
X1392329Y731440D01*
X1391687Y730582D01*
X1390985Y729772D01*
X1390228Y729015D01*
X1389418Y728313D01*
X1388560Y727671D01*
X1387659Y727092D01*
X1386719Y726578D01*
X1385744Y726133D01*
X1384740Y725759D01*
X1383712Y725457D01*
X1382665Y725229D01*
X1381604Y725076D01*
X1380536Y725000D01*
X1379464Y725000D01*
X1378396Y725076D01*
X1377335Y725229D01*
X1376288Y725457D01*
X1375260Y725759D01*
X1374256Y726133D01*
X1373281Y726578D01*
X1372341Y727092D01*
X1371440Y727671D01*
X1370582Y728313D01*
X1369772Y729015D01*
X1369015Y729772D01*
X1368313Y730582D01*
X1367671Y731440D01*
X1367092Y732341D01*
X1366578Y733281D01*
X1366133Y734256D01*
X1365759Y735260D01*
X1365457Y736288D01*
X1365229Y737335D01*
X1365076Y738396D01*
X1365000Y739464D01*
X1365000Y740536D01*
X1365076Y741604D01*
X1365229Y742665D01*
X1365457Y743712D01*
X1365759Y744740D01*
X1366133Y745744D01*
X1366578Y746719D01*
X1367092Y747659D01*
X1367671Y748560D01*
X1368313Y749418D01*
X1369015Y750228D01*
X1369772Y750985D01*
X1370582Y751687D01*
X1371440Y752329D01*
X1372341Y752908D01*
X1373281Y753422D01*
X1374256Y753867D01*
X1375260Y754241D01*
X1376288Y754543D01*
X1377335Y754771D01*
X1378396Y754924D01*
X1379464Y755000D01*
X1380536Y755000D01*
X1381604Y754924D01*
X1382665Y754771D01*
X1383712Y754543D01*
X1384740Y754241D01*
X1385744Y753867D01*
X1386719Y753422D01*
X1387659Y752908D01*
X1388560Y752329D01*
X1389418Y751687D01*
X1390228Y750985D01*
X1390985Y750228D01*
X1391687Y749418D01*
X1392329Y748560D01*
X1392908Y747659D01*
X1393422Y746719D01*
X1393867Y745744D01*
X1394241Y744740D01*
X1394543Y743712D01*
X1394771Y742665D01*
X1394924Y741604D01*
X1395000Y740536D01*
X1395000Y739464D01*
X115000Y99464D02*
X114924Y98396D01*
X114771Y97335D01*
X114543Y96288D01*
X114241Y95260D01*
X113867Y94256D01*
X113422Y93281D01*
X112908Y92341D01*
X112329Y91440D01*
X111687Y90582D01*
X110985Y89772D01*
X110228Y89015D01*
X109418Y88313D01*
X108560Y87671D01*
X107659Y87092D01*
X106719Y86578D01*
X105744Y86133D01*
X104740Y85759D01*
X103712Y85457D01*
X102665Y85229D01*
X101604Y85076D01*
X100536Y85000D01*
X99464Y85000D01*
X98396Y85076D01*
X97335Y85229D01*
X96288Y85457D01*
X95260Y85759D01*
X94256Y86133D01*
X93281Y86578D01*
X92341Y87092D01*
X91440Y87671D01*
X90582Y88313D01*
X89772Y89015D01*
X89015Y89772D01*
X88313Y90582D01*
X87671Y91440D01*
X87092Y92341D01*
X86578Y93281D01*
X86133Y94256D01*
X85759Y95260D01*
X85457Y96288D01*
X85229Y97335D01*
X85076Y98396D01*
X85000Y99464D01*
X85000Y100536D01*
X85076Y101604D01*
X85229Y102665D01*
X85457Y103712D01*
X85759Y104740D01*
X86133Y105744D01*
X86578Y106719D01*
X87092Y107659D01*
X87671Y108560D01*
X88313Y109418D01*
X89015Y110228D01*
X89772Y110985D01*
X90582Y111687D01*
X91440Y112329D01*
X92341Y112908D01*
X93281Y113422D01*
X94256Y113867D01*
X95260Y114241D01*
X96288Y114543D01*
X97335Y114771D01*
X98396Y114924D01*
X99464Y115000D01*
X100536Y115000D01*
X101604Y114924D01*
X102665Y114771D01*
X103712Y114543D01*
X104740Y114241D01*
X105744Y113867D01*
X106719Y113422D01*
X107659Y112908D01*
X108560Y112329D01*
X109418Y111687D01*
X110228Y110985D01*
X110985Y110228D01*
X111687Y109418D01*
X112329Y108560D01*
X112908Y107659D01*
X113422Y106719D01*
X113867Y105744D01*
X114241Y104740D01*
X114543Y103712D01*
X114771Y102665D01*
X114924Y101604D01*
X115000Y100536D01*
X115000Y99464D01*
X1475000Y99464D02*
X1474924Y98396D01*
X1474771Y97335D01*
X1474543Y96288D01*
X1474241Y95260D01*
X1473867Y94256D01*
X1473422Y93281D01*
X1472908Y92341D01*
X1472329Y91440D01*
X1471687Y90582D01*
X1470985Y89772D01*
X1470228Y89015D01*
X1469418Y88313D01*
X1468560Y87671D01*
X1467659Y87092D01*
X1466719Y86578D01*
X1465744Y86133D01*
X1464740Y85759D01*
X1463712Y85457D01*
X1462665Y85229D01*
X1461604Y85076D01*
X1460536Y85000D01*
X1459464Y85000D01*
X1458396Y85076D01*
X1457335Y85229D01*
X1456288Y85457D01*
X1455260Y85759D01*
X1454256Y86133D01*
X1453281Y86578D01*
X1452341Y87092D01*
X1451440Y87671D01*
X1450582Y88313D01*
X1449772Y89015D01*
X1449015Y89772D01*
X1448313Y90582D01*
X1447671Y91440D01*
X1447092Y92341D01*
X1446578Y93281D01*
X1446133Y94256D01*
X1445759Y95260D01*
X1445457Y96288D01*
X1445229Y97335D01*
X1445076Y98396D01*
X1445000Y99464D01*
X1445000Y100536D01*
X1445076Y101604D01*
X1445229Y102665D01*
X1445457Y103712D01*
X1445759Y104740D01*
X1446133Y105744D01*
X1446578Y106719D01*
X1447092Y107659D01*
X1447671Y108560D01*
X1448313Y109418D01*
X1449015Y110228D01*
X1449772Y110985D01*
X1450582Y111687D01*
X1451440Y112329D01*
X1452341Y112908D01*
X1453281Y113422D01*
X1454256Y113867D01*
X1455260Y114241D01*
X1456288Y114543D01*
X1457335Y114771D01*
X1458396Y114924D01*
X1459464Y115000D01*
X1460536Y115000D01*
X1461604Y114924D01*
X1462665Y114771D01*
X1463712Y114543D01*
X1464740Y114241D01*
X1465744Y113867D01*
X1466719Y113422D01*
X1467659Y112908D01*
X1468560Y112329D01*
X1469418Y111687D01*
X1470228Y110985D01*
X1470985Y110228D01*
X1471687Y109418D01*
X1472329Y108560D01*
X1472908Y107659D01*
X1473422Y106719D01*
X1473867Y105744D01*
X1474241Y104740D01*
X1474543Y103712D01*
X1474771Y102665D01*
X1474924Y101604D01*
X1475000Y100536D01*
X1475000Y99464D01*
X490912Y739910D02*
X490139Y739978D01*
X489374Y740112D01*
X488624Y740313D01*
X487895Y740579D01*
X487191Y740907D01*
X486519Y741295D01*
X485883Y741740D01*
X485288Y742239D01*
X484739Y742788D01*
X484240Y743383D01*
X483795Y744019D01*
X483407Y744691D01*
X483079Y745395D01*
X482813Y746124D01*
X482612Y746874D01*
X482478Y747639D01*
X482410Y748412D01*
X482410Y749188D01*
X482478Y749961D01*
X482612Y750726D01*
X482813Y751476D01*
X483079Y752205D01*
X483407Y752909D01*
X483795Y753581D01*
X484240Y754217D01*
X484739Y754812D01*
X485288Y755361D01*
X485883Y755860D01*
X486519Y756305D01*
X487191Y756693D01*
X487895Y757021D01*
X488624Y757287D01*
X489374Y757488D01*
X490139Y757622D01*
X490912Y757690D01*
X491688Y757690D01*
X492461Y757622D01*
X493226Y757488D01*
X493976Y757287D01*
X494705Y757021D01*
X495409Y756693D01*
X496081Y756305D01*
X496717Y755860D01*
X497312Y755361D01*
X497861Y754812D01*
X498360Y754217D01*
X498805Y753581D01*
X499193Y752909D01*
X499521Y752205D01*
X499787Y751476D01*
X499988Y750726D01*
X500122Y749961D01*
X500190Y749188D01*
X500190Y748412D01*
X500122Y747639D01*
X499988Y746874D01*
X499787Y746124D01*
X499521Y745395D01*
X499193Y744691D01*
X498805Y744019D01*
X498360Y743383D01*
X497861Y742788D01*
X497312Y742239D01*
X496717Y741740D01*
X496081Y741295D01*
X495409Y740907D01*
X494705Y740579D01*
X493976Y740313D01*
X493226Y740112D01*
X492461Y739978D01*
X491688Y739910D01*
X490912Y739910D01*
X643312Y739910D02*
X642539Y739978D01*
X641774Y740112D01*
X641024Y740313D01*
X640295Y740579D01*
X639591Y740907D01*
X638919Y741295D01*
X638283Y741740D01*
X637688Y742239D01*
X637139Y742788D01*
X636640Y743383D01*
X636195Y744019D01*
X635807Y744691D01*
X635479Y745395D01*
X635213Y746124D01*
X635012Y746874D01*
X634878Y747639D01*
X634810Y748412D01*
X634810Y749188D01*
X634878Y749961D01*
X635012Y750726D01*
X635213Y751476D01*
X635479Y752205D01*
X635807Y752909D01*
X636195Y753581D01*
X636640Y754217D01*
X637139Y754812D01*
X637688Y755361D01*
X638283Y755860D01*
X638919Y756305D01*
X639591Y756693D01*
X640295Y757021D01*
X641024Y757287D01*
X641774Y757488D01*
X642539Y757622D01*
X643312Y757690D01*
X644088Y757690D01*
X644861Y757622D01*
X645626Y757488D01*
X646376Y757287D01*
X647105Y757021D01*
X647809Y756693D01*
X648481Y756305D01*
X649117Y755860D01*
X649712Y755361D01*
X650261Y754812D01*
X650760Y754217D01*
X651205Y753581D01*
X651593Y752909D01*
X651921Y752205D01*
X652187Y751476D01*
X652388Y750726D01*
X652522Y749961D01*
X652590Y749188D01*
X652590Y748412D01*
X652522Y747639D01*
X652388Y746874D01*
X652187Y746124D01*
X651921Y745395D01*
X651593Y744691D01*
X651205Y744019D01*
X650760Y743383D01*
X650261Y742788D01*
X649712Y742239D01*
X649117Y741740D01*
X648481Y741295D01*
X647809Y740907D01*
X647105Y740579D01*
X646376Y740313D01*
X645626Y740112D01*
X644861Y739978D01*
X644088Y739910D01*
X643312Y739910D01*
X643312Y333510D02*
X642539Y333578D01*
X641774Y333712D01*
X641024Y333913D01*
X640295Y334179D01*
X639591Y334507D01*
X638919Y334895D01*
X638283Y335340D01*
X637688Y335839D01*
X637139Y336388D01*
X636640Y336983D01*
X636195Y337619D01*
X635807Y338291D01*
X635479Y338995D01*
X635213Y339724D01*
X635012Y340474D01*
X634878Y341239D01*
X634810Y342012D01*
X634810Y342788D01*
X634878Y343561D01*
X635012Y344326D01*
X635213Y345076D01*
X635479Y345805D01*
X635807Y346509D01*
X636195Y347181D01*
X636640Y347817D01*
X637139Y348412D01*
X637688Y348961D01*
X638283Y349460D01*
X638919Y349905D01*
X639591Y350293D01*
X640295Y350621D01*
X641024Y350887D01*
X641774Y351088D01*
X642539Y351222D01*
X643312Y351290D01*
X644088Y351290D01*
X644861Y351222D01*
X645626Y351088D01*
X646376Y350887D01*
X647105Y350621D01*
X647809Y350293D01*
X648481Y349905D01*
X649117Y349460D01*
X649712Y348961D01*
X650261Y348412D01*
X650760Y347817D01*
X651205Y347181D01*
X651593Y346509D01*
X651921Y345805D01*
X652187Y345076D01*
X652388Y344326D01*
X652522Y343561D01*
X652590Y342788D01*
X652590Y342012D01*
X652522Y341239D01*
X652388Y340474D01*
X652187Y339724D01*
X651921Y338995D01*
X651593Y338291D01*
X651205Y337619D01*
X650760Y336983D01*
X650261Y336388D01*
X649712Y335839D01*
X649117Y335340D01*
X648481Y334895D01*
X647809Y334507D01*
X647105Y334179D01*
X646376Y333913D01*
X645626Y333712D01*
X644861Y333578D01*
X644088Y333510D01*
X643312Y333510D01*
X490912Y333510D02*
X490139Y333578D01*
X489374Y333712D01*
X488624Y333913D01*
X487895Y334179D01*
X487191Y334507D01*
X486519Y334895D01*
X485883Y335340D01*
X485288Y335839D01*
X484739Y336388D01*
X484240Y336983D01*
X483795Y337619D01*
X483407Y338291D01*
X483079Y338995D01*
X482813Y339724D01*
X482612Y340474D01*
X482478Y341239D01*
X482410Y342012D01*
X482410Y342788D01*
X482478Y343561D01*
X482612Y344326D01*
X482813Y345076D01*
X483079Y345805D01*
X483407Y346509D01*
X483795Y347181D01*
X484240Y347817D01*
X484739Y348412D01*
X485288Y348961D01*
X485883Y349460D01*
X486519Y349905D01*
X487191Y350293D01*
X487895Y350621D01*
X488624Y350887D01*
X489374Y351088D01*
X490139Y351222D01*
X490912Y351290D01*
X491688Y351290D01*
X492461Y351222D01*
X493226Y351088D01*
X493976Y350887D01*
X494705Y350621D01*
X495409Y350293D01*
X496081Y349905D01*
X496717Y349460D01*
X497312Y348961D01*
X497861Y348412D01*
X498360Y347817D01*
X498805Y347181D01*
X499193Y346509D01*
X499521Y345805D01*
X499787Y345076D01*
X499988Y344326D01*
X500122Y343561D01*
X500190Y342788D01*
X500190Y342012D01*
X500122Y341239D01*
X499988Y340474D01*
X499787Y339724D01*
X499521Y338995D01*
X499193Y338291D01*
X498805Y337619D01*
X498360Y336983D01*
X497861Y336388D01*
X497312Y335839D01*
X496717Y335340D01*
X496081Y334895D01*
X495409Y334507D01*
X494705Y334179D01*
X493976Y333913D01*
X493226Y333712D01*
X492461Y333578D01*
X491688Y333510D01*
X490912Y333510D01*
M02*
